<svg width="25" height="42" viewBox="0 0 25 42" fill="none" xmlns="http://www.w3.org/2000/svg">
<path fill-rule="evenodd" clip-rule="evenodd" d="M12.6113 41.8574C12.243 41.8574 11.8898 41.7144 11.6294 41.4599C11.3689 41.2055 11.2226 40.8603 11.2226 40.5004L11.1113 4.6364L2.37364 13.1777C2.11288 13.4325 1.75922 13.5757 1.39045 13.5757C1.02168 13.5757 0.668011 13.4325 0.407251 13.1777C0.146492 12.9229 -1.27119e-06 12.5773 -1.29563e-06 12.2169C-1.32007e-06 11.8565 0.146492 11.5109 0.407251 11.2561L11.5168 0.399669C11.6458 0.273291 11.799 0.173023 11.9678 0.10461C12.1365 0.0361968 12.3173 0.000983653 12.5 0.000983646C12.6827 0.000983638 12.8635 0.0361967 13.0322 0.10461C13.201 0.173023 13.3542 0.273291 13.4832 0.399669L24.5927 11.2561C24.8535 11.5109 25 11.8565 25 12.2169C25 12.5773 24.8535 12.9229 24.5927 13.1777C24.332 13.4325 23.9783 13.5757 23.6096 13.5757C23.2408 13.5757 22.8871 13.4325 22.6264 13.1777L13.8887 4.6364L14 40.5004C14 40.8603 13.8537 41.2055 13.5933 41.4599C13.3328 41.7144 12.9796 41.8574 12.6113 41.8574Z" fill="#0A2339"/>
</svg>
