<svg width="190" height="162" viewBox="0 0 190 162" fill="none" xmlns="http://www.w3.org/2000/svg">
<path d="M98.5301 159.705C96.4171 161.278 93.583 161.278 91.47 159.705L53.0206 131.049L51.4968 131.226L90.8859 160.58C92.1151 161.498 93.5576 161.954 95 161.954C96.4425 161.954 97.885 161.498 99.1142 160.58L138.493 131.231L136.985 131.043L98.5301 159.705Z" fill="white"/>
<path d="M150.528 43.6095C150.528 41.1616 149.396 38.8532 147.501 37.4413L99.1117 1.37697C96.6533 -0.458991 93.3417 -0.458991 90.8834 1.37697L42.494 37.4413C40.5995 38.8532 39.4668 41.1562 39.4668 43.6095V96.5572L40.4826 96.4069V43.6149C40.4826 41.5159 41.4528 39.535 43.0781 38.3271L91.4675 2.26274C92.524 1.4736 93.7582 1.08171 94.9975 1.08171C96.2369 1.08171 97.4711 1.4736 98.5276 2.26274L146.917 38.3271C148.542 39.5403 149.512 41.5159 149.512 43.6149V96.4981L150.528 96.6646V43.6095Z" fill="white"/>
<path d="M145.361 47.2765C145.361 44.8286 144.228 42.5202 142.334 41.1083L99.1149 8.89846C96.6566 7.06249 93.3449 7.06249 90.8866 8.89846L47.6678 41.1083C45.7733 42.5202 44.6406 44.8232 44.6406 47.2765V95.7792L45.6565 95.6289V47.2819C45.6565 45.1829 46.6266 43.202 48.2519 41.9941L91.4707 9.78423C92.5272 8.99508 93.7614 8.60321 95.0008 8.60321C96.2401 8.60321 97.4743 8.99508 98.5308 9.78423L141.75 41.9941C143.375 43.2073 144.345 45.1829 144.345 47.2819V95.6504L145.361 95.8168V47.2765Z" fill="white"/>
<path d="M98.5341 151.813C96.4212 153.386 93.587 153.386 91.4741 151.813L62.1773 129.98L60.6536 130.158L90.8899 152.694C92.1191 153.612 93.5616 154.068 95.0041 154.068C96.4466 154.068 97.8891 153.612 99.1182 152.694L129.426 130.104L127.917 129.916L98.5341 151.813Z" fill="white"/>
<path d="M83.0274 137.598V137.834H82.1792V137.598H83.0274Z" fill="white"/>
<path d="M85.7947 137.555H84.8956V138.436H85.8962V138.699H84.5959V136.256H85.8455V136.519H84.8956V137.292H85.7947V137.555Z" fill="white"/>
<path d="M86.4857 138.317C86.6177 138.403 86.8158 138.478 87.019 138.478C87.3237 138.478 87.5015 138.307 87.5015 138.06C87.5015 137.829 87.3796 137.7 87.0647 137.571C86.6888 137.432 86.4552 137.222 86.4552 136.879C86.4552 136.497 86.7548 136.213 87.2018 136.213C87.4405 136.213 87.6081 136.272 87.7148 136.331L87.6335 136.589C87.5573 136.546 87.405 136.471 87.1967 136.471C86.8818 136.471 86.7599 136.669 86.7599 136.836C86.7599 137.066 86.9021 137.179 87.2221 137.308C87.6132 137.469 87.8113 137.668 87.8113 138.027C87.8113 138.403 87.5472 138.731 87.0037 138.731C86.7802 138.731 86.5364 138.661 86.4146 138.575L86.4857 138.317Z" fill="white"/>
<path d="M88.9047 136.525H88.1987V136.256H89.9104V136.525H89.2044V138.699H88.9047V136.525Z" fill="white"/>
<path d="M90.4074 136.287C90.5903 136.26 90.8036 136.239 91.0423 136.239C91.469 136.239 91.7788 136.346 91.9769 136.545C92.1851 136.743 92.302 137.028 92.302 137.42C92.302 137.817 92.1851 138.145 91.9667 138.37C91.7483 138.601 91.3928 138.724 90.9458 138.724C90.7325 138.724 90.5547 138.714 90.4023 138.697V136.287H90.4074ZM90.7071 138.451C90.7833 138.467 90.89 138.467 91.0068 138.467C91.6468 138.467 91.9921 138.091 91.9921 137.431C91.9972 136.856 91.6874 136.486 91.0576 136.486C90.9052 136.486 90.7884 136.502 90.7071 136.518V138.451Z" fill="white"/>
<path d="M93.7981 138.698V138.504L94.0368 138.263C94.6057 137.688 94.8647 137.382 94.8647 137.028C94.8647 136.786 94.753 136.566 94.4228 136.566C94.2197 136.566 94.052 136.674 93.9505 136.765L93.854 136.539C94.0063 136.4 94.2298 136.298 94.4838 136.298C94.9663 136.298 95.1644 136.647 95.1644 136.985C95.1644 137.42 94.8647 137.774 94.3974 138.252L94.2197 138.424V138.429H95.2203V138.692H93.7981V138.698Z" fill="white"/>
<path d="M97.2865 137.496C97.2865 138.296 97.0072 138.741 96.5094 138.741C96.0726 138.741 95.778 138.312 95.7729 137.528C95.7729 136.739 96.0929 136.304 96.5501 136.304C97.0173 136.304 97.2865 136.744 97.2865 137.496ZM96.0726 137.534C96.0726 138.145 96.2504 138.494 96.5247 138.494C96.8345 138.494 96.9818 138.113 96.9818 137.512C96.9818 136.932 96.8396 136.551 96.5298 136.551C96.2656 136.551 96.0726 136.889 96.0726 137.534Z" fill="white"/>
<path d="M98.457 136.635H98.4519L98.0659 136.855L98.01 136.614L98.4977 136.34H98.7567V138.697H98.4672V136.635H98.457Z" fill="white"/>
<path d="M101.251 136.34V136.549L100.281 138.697H99.971L100.941 136.608V136.603H99.8491V136.34H101.251Z" fill="white"/>
<path d="M103.574 137.598V137.834H102.726V137.598H103.574Z" fill="white"/>
<path d="M179.426 140.276C179.182 140.276 178.939 140.243 178.69 140.174C123.936 124.793 66.0588 124.793 11.3052 140.174C9.80679 140.592 8.26272 139.674 7.86146 138.123L0.0903044 108.093C-0.0925464 107.389 0.00395867 106.632 0.364581 105.972C0.770916 105.221 1.48708 104.657 2.32007 104.421C62.9503 87.3923 127.05 87.3923 187.68 104.421C188.513 104.657 189.224 105.221 189.635 105.972C189.996 106.638 190.093 107.389 189.91 108.093L182.139 138.123C181.798 139.417 180.666 140.276 179.426 140.276ZM178.913 139.299C179.954 139.594 181.031 138.955 181.311 137.887L189.082 107.856C189.204 107.384 189.138 106.879 188.889 106.428C188.594 105.886 188.071 105.478 187.456 105.306C126.968 88.3157 63.0214 88.3157 2.53339 105.306C1.91881 105.478 1.39565 105.886 1.10106 106.428C0.857261 106.879 0.786153 107.389 0.908054 107.856L8.67921 137.887C8.95857 138.96 10.0354 139.594 11.0766 139.299C65.9826 123.881 124.017 123.881 178.913 139.299Z" fill="#B99E76"/>
<path d="M18.3929 129.196C17.758 129.368 17.1942 129.357 16.7016 129.159C16.2089 129.626 15.7568 129.916 15.3353 130.034C14.9188 130.152 14.5734 130.211 14.3042 130.211C14.035 130.211 13.8013 130.173 13.5982 130.093C13.1868 129.942 12.9785 129.669 12.9785 129.261C12.9785 129.051 13.0293 128.858 13.136 128.67C13.3493 128.783 13.6185 128.794 13.9436 128.702C14.7969 128.461 15.3911 127.902 15.7162 127.022C15.7162 124.494 15.7162 121.965 15.7162 119.442C15.7162 118.964 15.6248 118.642 15.4419 118.465C15.1524 118.164 14.6597 117.923 13.9588 117.751C14.614 117.246 15.0356 116.838 15.2286 116.538C15.5537 116.044 15.7213 115.545 15.7213 115.035C15.7213 112.855 15.7213 110.67 15.7213 108.491C15.3962 107.787 14.8019 107.551 13.9486 107.798C13.6236 107.889 13.3544 108.056 13.1411 108.292C13.0344 108.169 12.9836 108.002 12.9836 107.804C12.9836 107.6 13.0395 107.396 13.1512 107.192C13.263 106.982 13.4153 106.789 13.6033 106.612C14.0452 106.193 14.5531 105.908 15.127 105.747C15.701 105.586 16.2241 105.613 16.7066 105.817C17.2095 105.339 17.7682 105.017 18.3828 104.851C18.9974 104.685 19.5611 104.706 20.0589 104.915C20.5973 104.432 21.09 104.132 21.5369 104.019C21.9788 103.906 22.3395 103.852 22.6087 103.863C22.8779 103.874 23.1166 103.917 23.3197 104.003C23.7362 104.169 23.9445 104.454 23.9445 104.856C23.9445 105.066 23.8937 105.259 23.787 105.436C23.5737 105.313 23.2893 105.297 22.9337 105.388C22.5782 105.479 22.2176 105.672 21.8519 105.962C21.4912 106.257 21.222 106.628 21.0493 107.079C21.0493 109.253 21.0493 111.432 21.0493 113.607C21.0493 114.111 21.1509 114.466 21.3541 114.659C21.6741 114.981 22.1617 115.217 22.8169 115.373C22.1109 115.926 21.6639 116.344 21.4709 116.629C21.1916 117.075 21.0493 117.536 21.0493 118.009C21.0493 120.269 21.0493 122.529 21.0493 124.783C21.6842 125.701 22.4817 126.04 23.4416 125.803C25.8085 125.213 27.3374 123.78 28.018 121.471C28.3177 120.451 28.47 119.544 28.47 118.755C28.47 117.966 28.3685 117.456 28.1653 117.236C28.3888 116.989 28.6173 116.838 28.8561 116.779C29.0948 116.726 29.3132 116.726 29.5164 116.785C29.7195 116.844 29.9024 116.956 30.07 117.123C30.4103 117.472 30.5779 117.934 30.5779 118.513C30.5779 119.093 30.5322 119.544 30.4458 119.877C30.8928 120.172 31.1163 120.671 31.1163 121.385C31.1163 122.099 30.9284 122.722 30.5474 123.248C30.8674 123.613 31.0299 123.968 31.0299 124.322C31.0299 124.671 30.9842 124.987 30.8928 125.261C30.8014 125.535 30.6744 125.787 30.5068 126.024C30.136 126.512 29.6941 126.813 29.1811 126.931C28.9272 126.99 28.6935 126.984 28.4853 126.92C28.5259 126.684 28.5411 126.453 28.5411 126.222C28.5411 125.744 28.338 125.557 27.9316 125.653C27.632 125.723 27.2155 125.948 26.6822 126.335C25.6562 127.086 24.488 127.623 23.1775 127.951C21.8671 128.278 20.8462 128.364 20.1148 128.198C19.5967 128.697 19.0278 129.03 18.3929 129.196ZM17.1079 125.127C17.5904 124.8 17.8545 124.048 17.9002 122.878C17.9561 121.702 17.9866 120.092 17.9866 118.046C17.9866 116.001 17.9866 114.637 17.9815 113.961C17.9764 113.285 17.9714 112.742 17.9612 112.329C17.9307 111.116 17.8241 110.407 17.6361 110.209C17.4482 110.005 17.2704 109.886 17.1079 109.849C17.1079 113.446 17.052 115.507 16.9352 116.039C16.7981 116.489 16.473 116.871 15.9549 117.193C16.5339 117.252 16.859 117.424 16.9352 117.713C17.052 118.18 17.1079 119.979 17.1079 123.109C17.1079 123.785 17.1079 124.456 17.1079 125.127Z" fill="#B99E76"/>
<path d="M43.8799 121.745C42.991 123.141 41.6603 124 39.8826 124.338C37.7188 124.751 36.0986 124.397 35.0167 123.248C34.5494 122.754 34.2294 122.169 34.0517 121.482C33.9552 121.069 33.7825 120.774 33.5437 120.591C33.2999 120.408 33.0003 120.264 32.6396 120.156C33.3406 119.662 33.8383 118.916 34.1431 117.912C34.4631 116.849 34.9964 116.023 35.7481 115.421C36.5557 114.788 37.4446 114.364 38.4198 114.149C39.395 113.934 40.1162 113.762 40.5835 113.634C41.0508 113.505 41.4673 113.36 41.8279 113.199C42.5034 112.909 43.0266 112.512 43.4075 111.996C43.4075 111.223 43.4075 110.445 43.4075 109.672C43.4075 108.646 43.2094 107.932 42.8133 107.53C42.4171 107.127 41.8177 106.998 41.0152 107.149C40.2127 107.299 39.6134 107.573 39.2324 107.959C38.8464 108.351 38.6534 108.808 38.6534 109.334C38.6534 110.139 39.0445 110.456 39.8216 110.284C39.6642 111.121 39.2578 111.599 38.5925 111.733C38.3994 111.771 38.2064 111.771 38.0236 111.739C38.0236 111.755 38.0236 111.771 38.0236 111.787C38.0236 112.055 38.1404 112.206 38.374 112.227C38.1302 112.667 37.7188 112.941 37.1449 113.043C36.5709 113.15 36.124 112.914 35.804 112.34C35.6567 112.41 35.4891 112.469 35.3011 112.506C35.1132 112.544 34.8999 112.522 34.6713 112.436C34.4428 112.351 34.2599 112.2 34.1228 111.991C34.6104 111.578 34.905 111.035 35.0116 110.364C35.1284 109.543 35.7278 108.614 36.8097 107.578C38.115 106.333 39.781 105.517 41.8127 105.141C45.1802 104.524 47.2372 105.291 47.9839 107.358C48.2277 108.051 48.3496 108.899 48.3496 109.903C48.3496 110.321 48.3496 110.74 48.3496 111.159C48.3496 111.663 48.4715 112.061 48.7102 112.34C48.9489 112.624 49.3603 112.823 49.9343 112.936C49.3197 113.333 48.9235 113.666 48.7457 113.929C48.4816 114.332 48.3496 114.766 48.3496 115.233C48.3496 116.785 48.3496 118.336 48.3496 119.888C48.634 120.618 49.0403 120.94 49.5686 120.859C49.9038 120.806 50.173 120.677 50.3914 120.468C50.5285 120.645 50.5946 120.876 50.5946 121.171C50.5946 121.466 50.4574 121.767 50.1781 122.078C49.8987 122.389 49.4822 122.588 48.9235 122.679C48.3648 122.771 47.8467 122.685 47.3693 122.432C46.9477 122.83 46.5769 123.06 46.2468 123.114C45.9166 123.168 45.6373 123.184 45.3986 123.157C45.1598 123.13 44.9364 123.066 44.7332 122.953C44.271 122.722 43.9865 122.32 43.8799 121.745ZM37.2058 122.754C37.3023 122.663 37.3531 122.561 37.3531 122.448C37.3531 122.293 37.2871 122.089 37.15 121.836C36.6624 120.983 36.4186 120.253 36.4186 119.641C36.4186 119.029 36.4389 118.589 36.4846 118.309C36.5303 118.03 36.5862 117.789 36.6624 117.585C36.7335 117.381 36.8198 117.193 36.9112 117.032C37.0027 116.871 37.0839 116.726 37.15 116.597C37.2769 116.334 37.3379 116.157 37.3379 116.071C37.3379 115.985 37.2922 115.915 37.2058 115.872C36.8046 116.146 36.5151 116.441 36.3271 116.747C35.997 117.289 35.7532 117.955 35.5957 118.744C35.5551 118.97 35.2148 119.303 34.5748 119.748C35.1996 119.92 35.5399 120.113 35.5957 120.328C35.931 121.488 36.4694 122.293 37.2058 122.754ZM39.4 118.836C39.4 119.27 39.4458 119.684 39.5321 120.081C39.6184 120.478 39.7505 120.816 39.9283 121.09C40.3194 121.665 40.8679 121.89 41.579 121.756C42.1174 121.659 42.5593 121.343 42.9098 120.816C43.2399 120.301 43.4075 119.689 43.4075 118.975C43.4075 117.289 43.4075 115.604 43.4075 113.918C42.7828 114.412 41.9803 114.82 41.0051 115.148C39.9334 115.529 39.4 116.758 39.4 118.836ZM44.7992 118.948C45.3681 118.61 45.6627 117.418 45.6931 115.368C45.6931 114.933 45.6931 114.439 45.6931 113.881C45.6931 113.322 45.6932 112.844 45.6881 112.447C45.683 112.05 45.6779 111.674 45.6678 111.309C45.6271 110.015 45.5154 109.253 45.3325 109.033C45.1446 108.813 44.9719 108.673 44.8043 108.62C44.7992 112.066 44.7992 115.507 44.7992 118.948Z" fill="#B99E76"/>
<path d="M56.2475 121.117C55.7954 121.509 55.2824 121.745 54.7034 121.826C54.1244 121.906 53.7079 121.826 53.4438 121.579C53.1847 121.332 53.0527 121.079 53.0527 120.822C53.0527 120.478 53.1085 120.226 53.2152 120.054C53.4285 120.199 53.7028 120.247 54.038 120.199C54.6679 120.113 55.0742 119.737 55.257 119.066C55.257 117.456 55.257 115.84 55.257 114.229C55.257 113.773 55.1656 113.456 54.9777 113.274C54.7136 112.989 54.2057 112.71 53.4641 112.431C54.1498 112.002 54.5866 111.68 54.7745 111.454C55.0996 111.068 55.2621 110.627 55.2621 110.133C55.2621 109.377 55.2621 108.625 55.2621 107.868C55.2621 106.988 54.9777 106.553 54.4088 106.558C54.2412 106.558 54.033 106.58 53.779 106.617C53.525 106.655 53.2863 106.773 53.073 106.982C52.9359 106.805 52.8647 106.612 52.8647 106.397C52.8647 106.188 52.9155 105.941 53.0171 105.662C53.1187 105.382 53.2762 105.109 53.4793 104.846C53.9974 104.212 54.5968 103.847 55.2824 103.756C55.9631 103.665 56.5319 103.702 56.984 103.869C57.5224 103.155 58.1014 102.763 58.7211 102.688C59.7318 102.564 60.2397 103.058 60.2397 104.175C60.2347 104.604 60.2296 105.034 60.2245 105.463C61.0473 103.981 62.2003 102.929 63.6733 102.328C64.1558 102.129 64.6536 102.006 65.1615 101.952C66.3195 101.834 67.2846 102.033 68.0515 102.553C68.8185 103.074 69.3721 103.858 69.7074 104.915C70.4438 103.251 71.6425 102.097 73.2983 101.474C73.8418 101.27 74.4513 101.141 75.137 101.093C75.8227 101.045 76.4678 101.141 77.0722 101.378C77.6766 101.614 78.1947 101.974 78.6162 102.457C79.4746 103.461 79.9013 104.899 79.9013 106.757C79.886 107.106 79.8708 107.449 79.8556 107.798C79.8556 108.292 79.9572 108.646 80.1654 108.85C80.4702 109.156 80.9679 109.457 81.6587 109.752C80.907 110.171 80.4447 110.488 80.267 110.702C79.9927 111.035 79.8505 111.433 79.8505 111.889C79.8505 113.499 79.8505 115.115 79.8505 116.726C80.0384 117.359 80.4448 117.654 81.0797 117.628C81.3184 117.617 81.5419 117.52 81.7603 117.332C81.8212 117.413 81.8872 117.488 81.9584 117.563C82.0295 117.638 82.0701 117.805 82.0701 118.062C82.0701 118.32 81.938 118.599 81.679 118.895C81.42 119.19 81.0035 119.351 80.4346 119.383C79.8657 119.41 79.3426 119.276 78.86 118.97C78.4182 119.324 77.9204 119.517 77.3718 119.555C76.8233 119.587 76.3459 119.464 75.9294 119.179C75.5433 119.517 75.1116 119.7 74.6342 119.732C74.1567 119.764 73.7758 119.662 73.4913 119.426C73.2069 119.19 73.0647 118.83 73.0647 118.342C73.0647 118.116 73.1409 117.928 73.2882 117.783C73.5167 117.955 73.7402 118.03 73.9688 118.014C74.4005 117.982 74.7104 117.708 74.8983 117.187C74.8983 114.106 74.8983 111.025 74.8983 107.943C74.8983 105.517 74.0551 104.357 72.3739 104.486C71.8914 104.524 71.419 104.856 70.9568 105.484C70.4946 106.102 70.195 106.832 70.0578 107.669C70.0426 110.971 70.0273 114.267 70.0121 117.569C70.2 118.057 70.5099 118.288 70.9416 118.25C71.1702 118.234 71.3936 118.122 71.6222 117.918C71.7695 118.041 71.8457 118.277 71.8457 118.637C71.8457 118.991 71.7035 119.313 71.419 119.592C71.1346 119.872 70.7486 120.033 70.2661 120.076C69.7835 120.119 69.3518 120 68.9658 119.727C68.5442 120.076 68.0617 120.274 67.5284 120.323C66.99 120.371 66.5176 120.263 66.1062 119.995C65.7202 120.344 65.2935 120.543 64.8161 120.591C64.3386 120.639 63.9577 120.553 63.6733 120.323C63.3888 120.097 63.2466 119.737 63.2466 119.254C63.2466 119.029 63.3228 118.836 63.4701 118.685C63.6936 118.846 63.9221 118.916 64.1507 118.889C64.5824 118.841 64.8923 118.556 65.0802 118.03C65.0802 114.949 65.0802 111.867 65.0802 108.786C65.0802 106.853 64.6332 105.748 63.7393 105.468C63.4549 105.377 63.14 105.345 62.7946 105.388C62.1343 105.463 61.5654 105.828 61.0829 106.483C60.6308 107.095 60.3464 107.83 60.2296 108.695C60.2194 111.991 60.2093 115.282 60.1991 118.578C60.387 119.061 60.6969 119.276 61.1286 119.227C61.3521 119.201 61.5806 119.082 61.8041 118.868C61.9819 119.002 62.0682 119.244 62.0682 119.587C62.0682 119.936 61.9159 120.253 61.6213 120.548C61.3216 120.843 60.9305 121.015 60.4429 121.074C59.9553 121.133 59.5286 121.037 59.1528 120.779C58.7617 121.128 58.2944 121.337 57.756 121.407C57.2075 121.487 56.7097 121.385 56.2475 121.117ZM56.6741 117.134C57.1363 116.763 57.3954 116.082 57.4563 115.094C57.497 114.342 57.5173 113.677 57.5173 113.086C57.5173 112.431 57.5173 111.771 57.5173 111.116C57.5173 109.586 57.4767 108.609 57.4005 108.185C57.2633 107.46 57.0246 106.998 56.6792 106.805C56.6792 107.143 56.6792 107.476 56.6792 107.814C56.6792 109.559 56.6437 110.59 56.5675 110.906C56.4964 111.223 56.3745 111.465 56.2119 111.642C56.0494 111.819 55.8107 111.986 55.5008 112.141C56.09 112.281 56.4253 112.49 56.5014 112.78C56.6183 113.263 56.6792 114.374 56.6792 116.119C56.6741 116.463 56.6741 116.801 56.6741 117.134ZM66.0453 105.721C66.3398 106.445 66.4871 107.906 66.4871 110.096C66.4871 112.066 66.4871 114.036 66.4871 116.006C66.9798 115.759 67.249 115.062 67.2998 113.897C67.3608 112.732 67.3862 111.706 67.3862 110.81C67.3862 109.913 67.3608 109.172 67.31 108.577C67.2592 107.981 67.183 107.487 67.0763 107.095C66.8833 106.392 66.5379 105.93 66.0453 105.721ZM75.8836 104.91C76.1782 105.646 76.3255 107.111 76.3255 109.301C76.3255 111.272 76.3255 113.242 76.3255 115.212C76.8182 114.986 77.0874 114.289 77.1382 113.129C77.1991 111.969 77.2245 110.939 77.2245 110.048C77.2245 109.151 77.1992 108.41 77.1484 107.814C77.0976 107.218 77.0214 106.719 76.9096 106.327C76.7217 105.603 76.3763 105.136 75.8836 104.91Z" fill="#B99E76"/>
<path d="M90.9072 117.649C89.8304 118.594 88.7383 119.082 87.6209 119.115C86.6254 119.141 86.0108 119.029 85.7873 118.766C86.0057 118.481 86.1226 118.057 86.1429 117.499C86.1632 116.94 86.1734 116.42 86.1734 115.931C86.1734 114.492 86.1734 113.059 86.1734 111.62C86.1734 111.164 86.0819 110.837 85.894 110.638C85.6299 110.327 85.1169 109.988 84.3703 109.634C85.061 109.28 85.4978 109.001 85.6858 108.797C86.0108 108.442 86.1734 108.029 86.1734 107.54C86.1734 104.615 86.1734 101.689 86.1734 98.7632C86.1734 97.5876 85.7162 97.0078 84.7969 97.04C84.4617 97.0507 84.1874 97.1528 83.969 97.3353C83.8319 97.142 83.7607 96.9434 83.7607 96.7287C83.7607 96.5193 83.8115 96.3099 83.9182 96.1113C84.0198 95.9127 84.1772 95.7248 84.3855 95.553C84.8579 95.1826 85.4521 94.9893 86.1632 94.9625C86.8743 94.941 87.433 94.9732 87.8343 95.0537C88.4285 94.3237 89.0329 93.9532 89.6526 93.9425C90.6684 93.921 91.1764 94.474 91.1764 95.5906C91.1764 97.8023 91.1764 100.014 91.1764 102.226C91.9382 101.421 92.9541 100.852 94.2239 100.54C94.6099 100.444 95.1077 100.395 95.7172 100.401C96.3267 100.401 96.9717 100.497 97.6422 100.69C98.3126 100.884 98.8967 101.222 99.3894 101.7C100.375 102.666 100.984 104.373 101.208 106.816C101.304 108.088 101.909 109.001 103.016 109.554C102.315 109.897 101.873 110.192 101.685 110.439C101.426 110.783 101.269 111.202 101.213 111.685C100.928 114.17 100.314 116.001 99.3792 117.177C98.3532 118.454 96.8651 119.088 94.9248 119.088C93.9293 119.088 92.9033 118.814 91.8468 118.256C91.4913 118.084 91.1814 117.88 90.9072 117.649ZM89.7491 99.3699C89.3428 99.5739 89.099 99.9496 89.0076 100.503C88.9009 101.19 88.845 102.317 88.845 103.885C88.845 104.679 88.845 105.479 88.845 106.274C88.845 106.44 88.845 106.606 88.845 106.767C88.8552 107.326 88.8653 108.083 88.8755 109.038C88.8856 109.994 88.8958 110.729 88.906 111.25C88.9263 112.367 88.9568 113.075 88.9923 113.37C89.0329 113.671 89.1244 113.939 89.2666 114.181C89.4088 114.423 89.5713 114.578 89.7491 114.643C89.7491 109.554 89.7491 104.464 89.7491 99.3699ZM91.1713 113.816C91.1713 114.653 91.4405 115.367 91.9839 115.963C92.4969 116.548 93.0811 116.838 93.7312 116.833C95.3768 116.822 96.2048 115.588 96.2048 113.107C96.2048 110.842 96.2048 108.582 96.2048 106.316C96.2048 104.373 95.773 103.219 94.9146 102.859C94.6404 102.736 94.3254 102.677 93.9801 102.677C92.7153 102.682 91.8621 103.332 91.4202 104.609C91.2526 105.076 91.1662 105.656 91.1662 106.349C91.1713 108.834 91.1713 111.325 91.1713 113.816ZM97.6269 114.6C98.1196 114.407 98.3939 113.735 98.4396 112.576C98.5005 111.416 98.5259 110.557 98.5259 109.994C98.5259 109.43 98.5209 108.958 98.5209 108.582C98.5158 108.206 98.5107 107.814 98.5006 107.412C98.4599 105.903 98.3482 105.023 98.1602 104.77C97.9723 104.518 97.7945 104.352 97.6269 104.271C97.6269 107.712 97.6269 111.159 97.6269 114.6Z" fill="#B99E76"/>
<path d="M107.712 119.56C107.001 118.846 106.645 117.987 106.645 116.973C106.645 115.464 107.498 114.251 109.205 113.36C108.093 112.49 107.275 111.164 106.762 109.376C106.594 108.823 106.427 108.442 106.259 108.244C106.01 107.927 105.589 107.6 104.984 107.267C105.477 107.047 105.853 106.751 106.117 106.392C106.376 106.027 106.604 105.554 106.797 104.958C106.99 104.368 107.26 103.804 107.61 103.267C107.961 102.736 108.413 102.274 108.966 101.882C110.18 101.05 111.739 100.685 113.654 100.803C114.264 100.841 114.899 100.948 115.559 101.131C115.696 100.014 116.174 99.0907 116.991 98.366C117.799 97.6305 118.744 97.3031 119.826 97.3943C121.095 97.5017 122.162 97.9419 123.031 98.7149C123.503 99.1337 123.975 99.3162 124.448 99.2679C124.488 100.1 124.183 100.599 123.533 100.776C123.427 102.161 122.848 102.806 121.806 102.709C121.395 102.671 121.141 102.618 121.055 102.548C121.202 102.424 121.278 102.258 121.278 102.049C121.278 101.839 121.192 101.646 121.029 101.474C120.821 101.861 120.359 102.022 119.643 101.963C119.247 101.931 118.937 101.71 118.713 101.297C119.089 101.2 119.384 101.039 119.597 100.803C119.815 100.567 119.922 100.342 119.922 100.127C119.922 99.5578 119.638 99.2518 119.064 99.2034C117.961 99.1176 117.316 99.9657 117.128 101.753C118.921 102.693 120.064 104.056 120.557 105.823C120.882 107.02 121.481 107.857 122.36 108.34C121.593 108.673 121.085 109.081 120.841 109.554C120.745 109.741 120.653 109.967 120.577 110.23C120.044 111.942 119.216 113.166 118.083 113.913C116.951 114.659 115.493 114.97 113.71 114.857C112.578 114.788 111.592 114.589 110.754 114.256C110.429 114.455 110.266 114.691 110.266 114.954C110.266 115.217 110.317 115.443 110.414 115.631C110.51 115.818 110.688 115.99 110.947 116.146C111.45 116.452 112.405 116.752 113.817 117.053C114.457 117.225 115.117 116.838 115.798 115.883C115.838 116.414 115.95 116.817 116.138 117.091C116.326 117.37 116.534 117.531 116.758 117.579C119.475 118.202 121.232 119.292 122.03 120.8C122.304 121.31 122.441 121.949 122.441 122.706C122.441 123.468 122.208 124.182 121.745 124.859C121.283 125.535 120.659 126.093 119.871 126.534C118.236 127.43 116.229 127.795 113.842 127.645C111.044 127.468 108.905 126.893 107.422 125.873C106.147 124.982 105.512 123.892 105.512 122.593C105.512 121.724 105.934 120.918 106.772 120.172C107.041 119.936 107.361 119.732 107.712 119.56ZM109.149 111.685C109.347 111.54 109.444 111.363 109.444 111.153C109.444 110.885 109.408 110.622 109.342 110.375C109.078 109.409 108.941 108.426 108.941 107.428C108.941 106.435 109.073 105.468 109.342 104.529C109.413 104.282 109.444 104.089 109.444 103.944C109.444 103.82 109.444 103.697 109.444 103.573C109.444 103.482 109.403 103.401 109.327 103.337C108.921 103.836 108.631 104.411 108.448 105.066C108.265 105.721 108.118 106.295 108.011 106.8C107.971 106.955 107.696 107.138 107.183 107.353C107.707 107.642 107.981 107.857 108.011 107.991C108.108 108.432 108.209 108.866 108.306 109.307C108.56 110.413 108.844 111.207 109.149 111.685ZM109.195 120.618C108.494 120.908 108.143 121.493 108.143 122.368C108.143 123.071 108.651 123.726 109.667 124.343C110.8 125.041 112.268 125.438 114.061 125.551C116.27 125.691 117.702 125.406 118.363 124.66C118.551 124.456 118.642 124.236 118.642 123.994C118.642 123.753 118.53 123.527 118.312 123.323C118.088 123.119 117.804 122.948 117.448 122.808C116.925 122.582 116.102 122.362 114.98 122.153C114.437 122.056 113.766 122.432 112.969 123.28C112.969 122.701 112.877 122.276 112.694 122.008C112.511 121.74 112.334 121.589 112.156 121.557C111.008 121.342 110.023 121.031 109.195 120.618ZM108.392 117.171C108.306 117.262 108.26 117.391 108.26 117.568C108.301 118.69 109.82 119.587 112.816 120.328C113.162 120.43 113.405 120.838 113.558 121.552C113.609 121.326 113.802 121.149 114.142 121.02C114.482 120.891 114.711 120.838 114.828 120.854C116.316 121.138 117.321 121.391 117.845 121.595C118.769 121.965 119.445 122.464 119.866 123.087C119.983 122.953 120.044 122.77 120.044 122.545C120.044 122.319 119.937 122.078 119.719 121.826C119.5 121.573 119.15 121.342 118.657 121.128C117.809 120.741 116.661 120.403 115.214 120.129C113.766 119.855 112.745 119.641 112.161 119.474C111.572 119.308 111.033 119.115 110.541 118.889C109.464 118.401 108.748 117.826 108.392 117.171ZM112.268 111.959C112.486 112.291 112.699 112.506 112.918 112.608C113.136 112.71 113.39 112.769 113.68 112.785C113.969 112.801 114.223 112.775 114.442 112.699C114.66 112.624 114.843 112.485 114.99 112.281C115.275 111.878 115.417 111.175 115.417 110.171C115.417 108.738 115.417 107.31 115.417 105.876C115.417 104.872 115.31 104.207 115.092 103.869C114.873 103.536 114.66 103.316 114.442 103.214C114.223 103.112 113.969 103.053 113.68 103.036C113.39 103.02 113.136 103.047 112.918 103.122C112.699 103.197 112.522 103.332 112.385 103.536C112.09 103.954 111.943 104.663 111.943 105.667C111.943 107.1 111.943 108.528 111.943 109.962C111.943 110.955 112.054 111.626 112.268 111.959ZM116.854 112.146C117.306 112.012 117.57 111.524 117.636 110.67C117.708 109.87 117.738 108.968 117.738 107.965C117.738 106.413 117.697 105.42 117.621 104.98C117.504 104.389 117.245 103.997 116.854 103.793C116.854 106.574 116.854 109.36 116.854 112.146Z" fill="#B99E76"/>
<path d="M126.772 116.276C126.412 115.326 126.193 114.526 126.117 113.866C126.036 113.205 125.97 112.781 125.919 112.588C125.863 112.395 125.772 112.212 125.645 112.035C125.391 111.67 124.924 111.273 124.243 110.854C125.096 110.537 125.645 109.947 125.878 109.083C125.95 108.841 126 108.599 126.041 108.352C126.295 106.527 127.148 105.067 128.591 103.983C130.033 102.898 131.719 102.48 133.644 102.732C135.646 102.995 137.368 103.87 138.805 105.341C140.207 106.78 141.035 108.449 141.289 110.339C141.375 111.004 141.507 111.498 141.685 111.826C142.015 112.427 142.482 112.921 143.076 113.307C142.411 113.538 141.979 113.769 141.786 114C141.522 114.322 141.355 114.725 141.289 115.208C140.974 117.597 140.171 119.325 138.881 120.399C137.586 121.473 135.864 121.859 133.705 121.575C131.389 121.274 129.566 120.351 128.24 118.788C127.615 118.064 127.128 117.226 126.772 116.276ZM128.768 116.48C128.906 116.383 128.977 116.26 128.977 116.115C128.977 115.89 128.931 115.594 128.845 115.229C128.443 113.56 128.24 112.411 128.24 111.772C128.24 111.139 128.261 110.645 128.301 110.29C128.342 109.936 128.388 109.587 128.448 109.227C128.575 108.54 128.708 107.934 128.845 107.413C128.931 107.069 128.977 106.839 128.977 106.715C128.977 106.468 128.906 106.28 128.768 106.151C128.357 106.624 128.042 107.279 127.824 108.122C127.605 108.964 127.433 109.711 127.29 110.36C127.24 110.634 126.95 110.87 126.422 111.074C126.955 111.391 127.245 111.681 127.29 111.944C127.656 113.732 127.956 114.875 128.189 115.374C128.428 115.879 128.621 116.249 128.768 116.48ZM133.675 104.922C132.009 104.707 131.171 105.899 131.171 108.481C131.171 110.774 131.171 113.06 131.171 115.353C131.171 117.833 131.999 119.175 133.66 119.39C135.336 119.61 136.174 118.488 136.174 116.008C136.174 113.715 136.174 111.428 136.174 109.136C136.174 106.554 135.341 105.142 133.675 104.922ZM137.586 117.618C138.074 117.495 138.343 116.856 138.393 115.707C138.454 114.558 138.48 113.699 138.48 113.136C138.48 112.572 138.475 112.1 138.475 111.724C138.47 111.348 138.465 110.956 138.454 110.548C138.414 109.034 138.302 108.138 138.114 107.864C137.926 107.59 137.754 107.397 137.586 107.29C137.586 110.736 137.586 114.177 137.586 117.618Z" fill="#B99E76"/>
<path d="M156.209 123.549C155.325 124.607 153.995 124.95 152.222 124.601C150.058 124.177 148.433 123.195 147.351 121.627C146.884 120.956 146.559 120.242 146.386 119.485C146.29 119.034 146.117 118.669 145.873 118.396C145.629 118.122 145.324 117.859 144.964 117.612C145.67 117.392 146.173 116.839 146.472 115.948C146.792 115.013 147.331 114.385 148.082 114.079C148.89 113.763 149.784 113.682 150.759 113.838C151.734 113.999 152.456 114.106 152.923 114.16C153.39 114.214 153.802 114.23 154.162 114.208C154.833 114.181 155.361 113.983 155.737 113.618C155.737 112.845 155.737 112.066 155.737 111.293C155.737 110.268 155.539 109.479 155.148 108.92C154.751 108.362 154.157 108.002 153.35 107.841C152.547 107.68 151.953 107.723 151.567 107.965C151.181 108.206 150.988 108.593 150.988 109.119C150.988 109.924 151.379 110.391 152.156 110.526C151.999 111.304 151.592 111.626 150.927 111.497C150.734 111.46 150.541 111.39 150.358 111.282C150.358 111.299 150.358 111.315 150.358 111.331C150.358 111.599 150.475 111.792 150.708 111.911C150.465 112.26 150.053 112.372 149.479 112.254C148.905 112.136 148.453 111.728 148.133 111.03C147.986 111.046 147.818 111.036 147.625 111.003C147.437 110.971 147.224 110.864 146.996 110.692C146.767 110.515 146.584 110.3 146.447 110.037C146.935 109.812 147.234 109.387 147.341 108.754C147.458 107.981 148.057 107.278 149.144 106.66C150.449 105.92 152.12 105.748 154.142 106.156C157.499 106.838 159.541 108.4 160.283 110.756C160.526 111.546 160.648 112.442 160.648 113.446C160.648 113.865 160.648 114.283 160.648 114.702C160.648 115.207 160.765 115.647 161.004 116.023C161.243 116.399 161.649 116.753 162.218 117.091C161.608 117.252 161.212 117.429 161.039 117.628C160.775 117.928 160.648 118.315 160.648 118.777C160.648 120.328 160.648 121.88 160.648 123.431C160.928 124.268 161.334 124.746 161.857 124.87C162.187 124.945 162.457 124.923 162.67 124.795C162.807 125.02 162.873 125.283 162.873 125.578C162.873 125.874 162.736 126.121 162.457 126.325C162.182 126.529 161.766 126.566 161.212 126.443C160.659 126.319 160.146 126.035 159.668 125.6C159.252 125.836 158.881 125.922 158.556 125.852C158.231 125.782 157.946 125.686 157.713 125.568C157.474 125.45 157.256 125.294 157.047 125.106C156.595 124.671 156.316 124.161 156.209 123.549ZM149.545 121.982C149.642 121.928 149.693 121.842 149.693 121.729C149.693 121.574 149.621 121.343 149.489 121.042C149.002 120.001 148.758 119.174 148.758 118.567C148.758 117.955 148.778 117.52 148.824 117.263C148.87 117 148.926 116.785 149.002 116.602C149.073 116.425 149.159 116.27 149.251 116.146C149.342 116.017 149.423 115.905 149.495 115.803C149.621 115.588 149.682 115.438 149.682 115.352C149.682 115.266 149.637 115.18 149.55 115.105C149.149 115.228 148.86 115.405 148.672 115.642C148.342 116.055 148.098 116.629 147.94 117.354C147.9 117.563 147.559 117.767 146.914 117.961C147.539 118.369 147.879 118.696 147.94 118.932C148.265 120.215 148.804 121.23 149.545 121.982ZM151.739 118.906C151.739 119.34 151.785 119.77 151.872 120.205C151.958 120.634 152.09 121.021 152.268 121.37C152.659 122.1 153.207 122.529 153.918 122.674C154.452 122.781 154.899 122.642 155.249 122.25C155.579 121.863 155.747 121.316 155.747 120.602C155.747 118.916 155.747 117.231 155.747 115.545C155.122 115.797 154.325 115.899 153.355 115.846C152.273 115.808 151.739 116.828 151.739 118.906ZM157.129 121.107C157.692 120.988 157.987 119.909 158.017 117.869C158.017 117.435 158.017 116.941 158.017 116.382C158.017 115.824 158.017 115.346 158.012 114.944C158.007 114.546 158.002 114.165 157.992 113.8C157.951 112.49 157.84 111.685 157.657 111.395C157.474 111.1 157.296 110.896 157.134 110.778C157.129 114.219 157.129 117.665 157.129 121.107Z" fill="#B99E76"/>
<path d="M174.915 127.307C175.097 127.157 175.24 126.937 175.346 126.652C175.453 126.368 175.504 126.051 175.504 125.702C175.504 125.359 175.483 125.031 175.448 124.73C175.514 124.596 175.697 124.526 175.996 124.521C176.296 124.516 176.489 124.532 176.586 124.559C176.951 124.661 177.246 124.892 177.464 125.251C177.683 125.611 177.794 126.051 177.794 126.572C177.794 127.093 177.652 127.565 177.368 127.994C177.083 128.418 176.708 128.762 176.235 129.02C175.189 129.6 173.965 129.702 172.568 129.326C169.906 128.612 168.139 127.087 167.27 124.709C166.95 123.834 166.793 122.798 166.793 121.595C166.793 120.967 166.793 120.334 166.793 119.706C166.793 119.223 166.295 118.584 165.3 117.805C166.295 117.435 166.793 116.742 166.793 115.706C166.793 115.094 166.793 114.488 166.793 113.876C166.793 112.7 166.341 111.997 165.442 111.777C165.112 111.696 164.843 111.718 164.629 111.841C164.492 111.61 164.426 111.39 164.426 111.181C164.426 110.971 164.462 110.746 164.533 110.51C164.604 110.274 164.736 110.075 164.919 109.914C165.386 109.49 166.102 109.479 167.082 109.887C167.082 109.721 167.082 109.554 167.082 109.393C167.082 108.309 167.336 107.418 167.849 106.72C168.301 106.092 168.708 105.823 169.058 105.909C169.409 106 169.683 106.199 169.876 106.51C170.039 105.737 170.257 105.206 170.526 104.911C170.795 104.621 171.181 104.54 171.684 104.674C171.684 106.832 171.684 108.985 171.684 111.138C173.249 111.557 174.818 111.986 176.377 112.426C176.454 112.614 176.494 112.899 176.494 113.291C176.494 113.677 176.357 113.951 176.078 114.101C175.798 114.257 175.463 114.278 175.067 114.166C173.939 113.854 172.812 113.543 171.684 113.242C171.684 116.742 171.684 120.243 171.684 123.737C171.684 125.536 172.065 126.69 172.827 127.205C173.051 127.35 173.289 127.452 173.543 127.522C173.797 127.592 174.046 127.608 174.28 127.576C174.523 127.554 174.732 127.458 174.915 127.307ZM168.185 123.684C168.637 123.49 168.896 122.911 168.952 121.939C168.992 121.246 169.013 120.704 169.018 120.312C169.023 119.92 169.028 119.604 169.033 119.362C169.038 119.121 169.038 118.933 169.038 118.798C169.038 118.589 169.038 118.385 169.038 118.176C169.038 117.875 169.038 117.489 169.033 117.016C169.028 116.544 169.023 116.034 169.018 115.475C169.013 114.923 169.002 114.391 168.982 113.876C168.952 112.646 168.911 111.895 168.85 111.61C168.733 110.982 168.51 110.51 168.185 110.198C168.185 111.809 168.185 113.425 168.185 115.035C168.185 116.474 168.164 117.226 168.119 117.301C168.073 117.37 168.037 117.462 168.012 117.569C167.926 117.859 167.595 118.031 167.027 118.095C167.606 118.455 167.936 118.804 168.012 119.131C168.129 119.657 168.185 120.833 168.185 122.664C168.185 123.013 168.185 123.345 168.185 123.684Z" fill="#B99E76"/>
<path d="M105.016 57.1332C103.756 63.0598 105.925 67.9987 104 76.4054C103.868 76.9906 104.604 77.3288 104.909 76.8188C106.118 74.8057 107.55 72.245 108.038 70.6828C108.825 68.1651 110.537 56.7413 110.943 53.9981C111.014 53.531 111.319 53.1714 111.69 53.166C111.695 53.166 111.695 53.166 111.7 53.166C111.705 53.1714 106.433 50.4496 105.016 57.1332ZM108.526 53.939C108.698 53.939 108.835 54.1162 108.835 54.3363C108.835 54.5564 108.698 54.7335 108.526 54.7335C108.353 54.7335 108.216 54.5564 108.216 54.3363C108.216 54.1162 108.358 53.939 108.526 53.939ZM106.072 56.4675C106.072 56.4675 109.328 58.2176 109.709 54.3363C109.714 54.3363 109.968 58.7652 106.072 56.4675Z" fill="white"/>
<path d="M105.18 55.5914C105.18 55.5914 107.171 46.6155 111.351 50.4754C111.346 50.47 107.308 48.7682 105.18 55.5914Z" fill="white"/>
<path d="M92.6279 73.3669C92.6279 73.3669 91.7746 74.4244 95.7821 76.8992C95.7821 76.8992 96.0665 77.683 96.1122 78.5688C96.1579 77.6883 96.4424 76.8992 96.4424 76.8992C100.45 74.4191 99.5965 73.3669 99.5965 73.3669C100.516 72.422 101.699 70.8867 100.81 69.507C99.9216 68.122 97.4937 72.9696 97.0315 72.7871C96.5693 72.6046 96.1122 72.6046 96.1122 72.6046C96.1122 72.6046 95.65 72.6046 95.1929 72.7871C94.7307 72.9696 92.3028 68.122 91.414 69.507C90.5251 70.8867 91.7085 72.4167 92.6279 73.3669ZM99.8251 71.6007C100.186 71.9121 99.2359 72.0731 96.9147 74.8592C96.9198 74.8592 99.4645 71.2893 99.8251 71.6007Z" fill="white"/>
<path d="M103.27 69.8613C103.57 72.7119 103.753 80.3564 96.1135 78.8801C88.4743 80.3618 88.6572 72.7119 88.9569 69.8613C87.8801 78.7942 92.045 79.7659 93.4012 79.8518C93.65 79.8679 93.8938 79.9377 94.1224 80.0558C94.9097 80.4799 95.6055 80.6248 96.1135 80.6248C96.6214 80.6248 97.3172 80.4799 98.1045 80.0558C98.328 79.9323 98.5718 79.8679 98.8207 79.8518C100.182 79.7659 104.347 78.7942 103.27 69.8613Z" fill="white"/>
<path d="M81.8147 52.5905C81.8147 52.5905 82.5715 52.5315 82.6782 52.8321C82.6782 52.8321 83.6483 58.8661 86.1828 54.8613C86.1828 54.8613 88.2297 54.4426 91.3585 61.8509C91.3534 61.8509 86.8787 49.3051 81.8147 52.5905ZM84.8419 53.0146C84.9739 53.0146 85.0755 53.1327 85.0755 53.2777C85.0755 53.4226 84.9689 53.5407 84.8419 53.5407C84.7098 53.5407 84.6083 53.4226 84.6083 53.2777C84.6032 53.1327 84.7098 53.0146 84.8419 53.0146ZM83.1759 53.4924C83.1302 53.3636 83.1099 53.2777 83.1099 53.2777C83.1302 53.3528 83.1505 53.4226 83.1759 53.4924C83.4096 54.1903 84.2527 56.2302 85.5885 54.2923C85.5885 54.2923 84.2933 57.0462 83.1759 53.4924Z" fill="white"/>
<path d="M83.1768 53.4934C83.1566 53.4233 83.1313 53.3533 83.1111 53.2778C83.1111 53.2778 83.1313 53.364 83.1768 53.4934Z" fill="white"/>
<path d="M83.179 53.4932C84.2964 57.047 85.5916 54.293 85.5916 54.293C84.2507 56.231 83.4126 54.191 83.179 53.4932Z" fill="white"/>
<path d="M80.7413 53.6274C80.7413 53.6274 80.4213 58.0992 82.3666 59.8439C84.312 61.594 84.7031 66.914 84.7031 66.914C84.7031 66.914 84.505 61.1592 83.4536 60.1392C82.4073 59.1192 80.8276 56.2311 80.7413 53.6274Z" fill="white"/>
<path d="M85.302 66.9136C85.302 66.9136 84.5807 75.5834 88.5882 75.8787C88.5882 75.8787 85.7642 73.4737 85.302 66.9136Z" fill="white"/>
<path d="M89.1845 77.7051C89.1794 77.6833 89.1794 77.667 89.1794 77.667C89.1845 77.6779 89.1845 77.6887 89.1845 77.7051Z" fill="white"/>
<path d="M96.1109 84.413C101.571 84.413 102.932 78.277 103.039 77.6973C101.627 86.4959 96.1109 85.5296 96.1109 85.5296C96.1109 85.5296 90.5949 86.4959 89.1829 77.6973C89.2895 78.277 90.6558 84.413 96.1109 84.413Z" fill="white"/>
<path d="M103.037 77.7042C103.037 77.6879 103.042 77.677 103.042 77.6661C103.042 77.6606 103.042 77.677 103.037 77.7042Z" fill="white"/>
<path d="M98.1993 37.4083C100.246 37.4888 101.552 36.7748 102.263 36.2058C102.578 35.9534 103.03 36.0877 103.197 36.4634C103.949 38.1545 105.64 38.0632 106.621 37.8377C107.002 37.7518 107.362 38.0256 107.408 38.4336C107.499 39.2389 107.774 40.5594 108.617 42.025C109.348 43.2919 111.939 44.838 111.939 44.838C111.939 44.838 109.445 43.3832 107.377 44.0703C106.524 44.3495 105.518 45.0205 104.431 46.8833C102.892 49.5299 101.877 55.07 101.267 59.6599C101.155 60.4866 100.018 60.4329 99.972 59.6008C99.7891 56.0148 99.6875 51.6074 99.9008 47.3611C100.129 42.8141 98.7682 40.0226 97.666 38.5302C97.3206 38.0632 97.6406 37.3868 98.1993 37.4083Z" fill="white"/>
<path d="M119.302 54.5654C123.599 55.1398 128.617 50.3942 124.706 49.7876C123.771 49.6427 122.598 51.2102 118.601 48.5583C113.491 45.1601 113.415 46.0513 113.415 46.0513C113.415 46.0513 113.257 45.8258 116.168 47.8282C119.297 49.9809 120.465 51.3337 121.877 51.4196C121.877 51.4196 119.291 56.8631 112.125 49.6803C112.125 49.6803 113.461 53.7816 119.302 54.5654Z" fill="white"/>
<path d="M107.521 36.7162C120.457 25.0884 125.918 36.5014 125.918 36.5014C120.981 20.171 109.354 28.8838 104.295 33.6401C103.269 34.601 103.483 36.3511 104.712 37.0007L104.839 37.0705C105.718 37.5322 106.769 37.3926 107.521 36.7162Z" fill="white"/>
<path d="M94.7131 85.2734C94.7131 85.2734 92.6053 88.4353 88.3235 89.9438C88.3235 89.9438 97.2324 86.3309 97.5321 85.123" fill="white"/>
<path d="M94.7131 85.2734C94.7131 85.2734 92.6053 88.4353 88.3235 89.9438C88.3235 89.9438 97.2324 86.3309 97.5321 85.123" stroke="white" stroke-width="0.2"/>
<path d="M96.1646 85.7248C96.1646 85.7248 95.0319 88.5754 91.9336 90.5187C91.9336 90.5187 98.3029 86.0898 98.3384 85.0967" fill="white"/>
<path d="M96.1646 85.7248C96.1646 85.7248 95.0319 88.5754 91.9336 90.5187C91.9336 90.5187 98.3029 86.0898 98.3384 85.0967" stroke="white" stroke-width="0.2"/>
<path d="M97.878 85.2412C97.878 85.2412 97.2329 88.2582 94.5105 90.7491C94.5105 90.7491 100.047 85.209 99.9198 84.2212" fill="white"/>
<path d="M97.878 85.2412C97.878 85.2412 97.2329 88.2582 94.5105 90.7491C94.5105 90.7491 100.047 85.209 99.9198 84.2212" stroke="white" stroke-width="0.2"/>
<path d="M79.2134 46.133C79.1829 46.0632 78.482 44.442 79.1473 43.3952C79.4775 42.8691 80.0819 42.5953 80.9352 42.5738C80.7016 41.9619 80.3156 40.6627 80.8844 39.9487C81.2908 39.4441 82.0679 39.3475 83.1955 39.6588C83.2463 39.1972 83.4291 38.3114 84.0996 37.9141C84.704 37.5598 85.5268 37.6994 86.5528 38.3329C86.7661 37.8766 87.3096 36.9317 88.2543 36.6741C88.9807 36.4754 89.773 36.7224 90.6162 37.4095C90.8397 36.717 91.4644 35.1709 92.5818 34.9508C93.4097 34.7898 94.3037 35.391 95.2332 36.7438L94.8878 37.0123C94.0649 35.8098 93.3132 35.2676 92.658 35.3964C91.7031 35.5843 91.0885 37.2324 90.9311 37.8551C90.9108 37.9302 90.86 37.9893 90.7889 38.0108C90.7178 38.0322 90.6416 38.0161 90.5857 37.9678C89.7629 37.2216 89.0162 36.9371 88.361 37.1143C87.3401 37.3934 86.8525 38.7247 86.8474 38.7409C86.8271 38.8053 86.7763 38.8536 86.7153 38.8751C86.6544 38.8965 86.5884 38.8912 86.5325 38.8536C85.5624 38.2148 84.7903 38.0269 84.3027 38.3114C83.612 38.714 83.6018 39.9434 83.6018 39.9541C83.6018 40.0239 83.5713 40.0937 83.5155 40.1366C83.4596 40.1796 83.3885 40.1903 83.3275 40.1742C82.2507 39.8306 81.5193 39.8575 81.2095 40.244C80.7371 40.8345 81.2247 42.2195 81.4533 42.708C81.4888 42.7778 81.4838 42.8637 81.4431 42.9335C81.4025 43.0033 81.3314 43.0355 81.2552 43.0355C80.3765 42.9926 79.7873 43.1966 79.5029 43.6475C78.9746 44.4796 79.5943 45.9237 79.6045 45.9398L79.2134 46.133Z" fill="white"/>
<path d="M95.4626 33.2435C94.7312 31.5739 93.2735 30.2211 91.5517 29.8239C89.9517 29.4588 88.0267 30.1567 87.7118 32.0463C87.8693 31.9765 88.0267 31.9121 88.1842 31.8423C86.7671 31.0586 84.8979 30.1782 83.4199 31.3216C82.0028 32.4168 81.9368 34.3977 82.0637 36.0779C82.2263 35.9813 82.3888 35.8847 82.5463 35.7827C81.4085 35.1492 79.9508 34.6231 79.0111 35.89C78.1528 37.055 77.8328 38.746 77.782 40.1901C77.9445 40.0934 78.107 39.9968 78.2645 39.8948C77.4772 39.2828 76.5731 38.8212 75.6132 38.6172C74.6075 38.4024 73.9574 38.7353 73.2869 39.519C72.0882 40.9202 70.9556 42.8098 71.5498 44.7639C71.6768 45.1772 72.2965 45.0001 72.1695 44.5814C71.6666 42.9333 72.6266 41.3389 73.6221 40.1364C73.8609 39.8465 74.1199 39.4976 74.45 39.3258C74.8615 39.1057 75.3643 39.2452 75.7909 39.3634C76.5782 39.5888 77.2893 39.9753 77.9445 40.4853C78.1528 40.6464 78.422 40.4263 78.427 40.1901C78.4677 39.0037 78.7216 37.8065 79.255 36.7544C79.5241 36.2175 79.9102 35.7666 80.5298 35.7719C81.1292 35.7719 81.7031 36.0833 82.2263 36.3732C82.4244 36.4859 82.7291 36.3517 82.7088 36.0779C82.6021 34.6607 82.5615 32.9214 83.7196 31.939C84.9589 30.8868 86.6604 31.7725 87.8591 32.4328C88.0267 32.5241 88.2959 32.4543 88.3315 32.2289C88.6311 30.4466 90.5358 30.1352 91.9174 30.6398C93.2583 31.1283 94.3198 32.2396 94.909 33.5871C95.0817 33.9843 95.6353 33.6407 95.4626 33.2435Z" fill="white"/>
<path d="M73.2281 55.773C71.5519 56.954 71.3132 59.3161 71.8008 61.2326C72.0954 62.3868 72.6236 63.4765 73.3246 64.416C74.0153 65.3393 74.9143 66.1982 76.1029 66.0157C75.9708 65.8761 75.8388 65.7366 75.7067 65.597C74.9651 67.9161 74.9804 71.0888 76.4991 73.0858C77.1136 73.891 78.1955 74.4225 79.1504 73.9769C79.9681 73.5958 80.344 72.5812 79.9732 71.7276C79.8412 71.427 79.4754 71.5719 79.384 71.8081C78.7948 73.3112 78.5917 75.276 79.384 76.7416C80.0392 77.9548 81.5325 78.5185 82.6296 77.6059C82.4519 77.5576 82.269 77.5039 82.0912 77.4556C82.3604 78.3682 82.7007 79.3613 83.5845 79.7854C83.94 79.9572 84.3312 80.0055 84.707 79.8821C85.1997 79.7156 85.54 79.2754 86.0124 79.0768C86.3933 78.9158 86.2257 78.2608 85.8397 78.4219C85.22 78.6849 84.6562 79.4741 83.9401 79.2056C83.1833 78.9265 82.9242 78.0085 82.7058 77.2784C82.6296 77.0154 82.3554 76.9724 82.1674 77.1281C81.0906 78.0246 79.9224 76.7255 79.6532 75.6679C79.3434 74.4547 79.5466 73.1395 79.9986 71.996C79.8005 72.0229 79.6075 72.0497 79.4094 72.0765C79.8462 73.0804 78.6374 73.6333 77.8958 73.3649C77.0578 73.0589 76.6006 72.1571 76.3264 71.3304C75.7219 69.532 75.7422 67.5833 76.3213 65.7849C76.4076 65.5111 76.1486 65.3339 75.9251 65.3662C74.8585 65.5326 73.9848 64.3086 73.4617 63.4872C72.9589 62.6927 72.583 61.8123 72.3646 60.8836C72.004 59.3268 72.1716 57.3352 73.5379 56.3689C73.8985 56.1166 73.5734 55.5261 73.2281 55.773Z" fill="white"/>
<path d="M96.003 40.705C95.5916 39.7924 94.7942 39.0623 93.8342 38.8905C93.0012 38.7402 92.1327 39.1536 91.9448 40.077C92.026 40.0447 92.1022 40.0072 92.1835 39.975C91.4318 39.5616 90.4565 39.0999 89.6794 39.7119C88.948 40.2863 88.9175 41.317 88.9836 42.1921C89.0648 42.1438 89.1461 42.0954 89.2274 42.0471C88.6534 41.7304 87.9322 41.4459 87.4243 42.0418C86.9265 42.6323 86.7691 43.5932 86.7386 44.3501C86.8199 44.3018 86.9011 44.2535 86.9824 44.2052C86.2815 43.6684 85.1996 43.1208 84.4834 43.8831C83.7825 44.6293 83.1679 45.6707 83.4625 46.7498C83.5184 46.9591 83.8333 46.8679 83.7723 46.6585C83.5184 45.7405 84.0364 44.8977 84.6002 44.2428C84.9405 43.8455 85.3367 43.7918 85.8193 43.9529C86.1799 44.0763 86.5049 44.2642 86.8097 44.5004C86.9164 44.581 87.0484 44.4682 87.0535 44.3555C87.0789 43.7596 87.1957 43.1691 87.4497 42.6323C87.8205 41.8539 88.435 42.0042 89.0598 42.3424C89.1613 42.3961 89.3137 42.3316 89.3036 42.1974C89.2477 41.4566 89.2223 40.5816 89.8064 40.0501C90.4616 39.4542 91.3657 39.9159 92.0209 40.2756C92.1073 40.3239 92.2343 40.2863 92.2597 40.1736C92.4679 39.1375 93.5802 39.0516 94.3523 39.4166C94.9719 39.7119 95.4392 40.2434 95.7287 40.8822C95.8151 41.0755 96.0894 40.9037 96.003 40.705Z" fill="white"/>
<path d="M78.5609 47.1368C75.8689 47.8507 73.2125 47.9313 70.4545 47.8507C68.4177 47.7917 65.4413 47.7219 64.0547 49.6437C62.7443 51.4582 64.2071 53.7612 66.0051 54.3249C68.24 55.0282 70.7643 54.0136 72.7554 52.9667C73.9744 52.3225 75.1375 51.5656 76.3057 50.8248C76.8543 50.4758 77.6365 49.7833 78.312 49.9175C78.9621 50.0464 79.3228 50.8248 79.5767 51.3884C79.7545 51.7803 80.3132 51.4368 80.1304 51.0449C79.7697 50.2504 79.2415 49.3592 78.3374 49.2358C77.352 49.1069 76.3667 49.9873 75.5794 50.492C73.6087 51.7481 71.5973 53.0419 69.332 53.6109C68.1739 53.9008 66.8635 54.0404 65.7512 53.5089C64.7963 53.0526 63.9887 51.9146 64.2376 50.7657C64.4865 49.633 65.6648 49.0962 66.6248 48.8385C67.8743 48.4949 69.1695 48.5003 70.4494 48.5379C73.2633 48.6184 75.9807 48.5271 78.7285 47.8024C79.1348 47.6897 78.9672 47.0294 78.5609 47.1368Z" fill="white"/>
</svg>
