<?xml version="1.0" encoding="UTF-8"?><svg xmlns="http://www.w3.org/2000/svg" viewBox="0 0 618.1 195.18"><defs><style>.d{fill:#fff;}</style></defs><g id="a"/><g id="b"><g id="c"><g><g><path class="d" d="M244.79,91.42c-.93-8.16-3.72-15.69-8.04-22.65-5.69-9.18-13.31-16.49-22.11-22.64-9.62-6.72-20.13-11.66-31.21-15.44-13.62-4.64-27.64-7.33-41.95-8.61-8.43-.75-16.88-.97-25.34-.72-7.67,.23-15.31,.85-22.91,1.93-10.99,1.56-21.77,4.02-32.27,7.66-10.11,3.51-19.74,8-28.67,13.95-8.1,5.4-15.29,11.77-21.07,19.66C4.62,73.6,.65,83.62,.07,94.87c-.51,9.95,1.68,19.31,6.35,28.1,4.25,7.99,10.04,14.71,16.9,20.55,8.69,7.41,18.49,12.99,28.98,17.4,14.96,6.29,30.61,9.9,46.7,11.72,7.84,.89,15.7,1.32,23.59,1.27,6.37,.05,12.73-.26,19.08-.82,7.72-.68,15.38-1.81,22.97-3.43,10.88-2.33,21.46-5.61,31.61-10.21,9.48-4.3,18.33-9.61,26.21-16.45,6.9-6,12.7-12.89,16.84-21.09,4.85-9.62,6.73-19.79,5.51-30.49Zm-8.52,27.82c-4.28,8.95-10.65,16.23-18.27,22.46-9.74,7.96-20.75,13.62-32.5,17.94-10.01,3.68-20.32,6.21-30.85,7.87-8.57,1.36-17.18,2.14-25.86,2.37-2.06,.05-4.12,.09-6.18,.09-8.67,.02-17.32-.49-25.92-1.58-14.33-1.82-28.3-5.11-41.7-10.58-10.25-4.18-19.84-9.49-28.38-16.59-7.1-5.9-13.07-12.75-17.25-21.03-4.2-8.34-6.03-17.16-5.28-26.5,.88-11.09,5.27-20.72,12.18-29.29,7.02-8.7,15.76-15.31,25.48-20.7,10.68-5.93,22.07-10.06,33.9-13.01,8.77-2.19,17.67-3.64,26.66-4.52,7.98-.78,15.99-1.09,24.01-.94,12.97,.24,25.82,1.57,38.5,4.35,14.05,3.08,27.53,7.73,40.06,14.91,8.85,5.07,16.85,11.22,23.41,19.09,5.98,7.17,10.25,15.19,12.06,24.41,2.13,10.85,.73,21.28-4.04,31.24Z"/><path class="d" d="M227.83,80.74c-1.74-1.88-3.49-3.32-5.39-5.03-3.63-3.27-4.97-4-9.5-5.7-.27-.1-3.56-1.48-4.21-1.56-2.99-.36-6.25-1-9.16-.18,.08-.16,8.19-13.86,8.19-13.86,.26-.44,.51-.72,1.04-.41l.25,.16,.43-.68-6.14-3.65-.4,.66,.19,.12c.43,.33,.31,.62,.08,.99,0,0-4.29,7.24-4.93,8.32l-2.5-12.79c-.09-.69,.16-.7,.68-.45l.39,.2,.39-.69-8-4.74-.4,.68s.07,.06,.26,.18c.64,.41,.18,1.05,.18,1.05l-8.83,14.86s-.37,.8-.99,.41l-.37-.17-.34,.73,6.36,3.75,.38-.72-.25-.14c-.52-.34-.46-.56-.13-1.18l5.74-9.66c.82,4.11,1.59,8.16,2.39,12.14,.2,1,.43,1.99,.61,2.99,.05,.27,.21,.82-.44,.55l-.36-.17-.42,.67c1.23,.75,2.95,1.73,4.23,2.49-.69,.57-1.82,1.49-2.41,2.04,0,0-.16-.12-.55-.44-3.88-3.12-8.08-5.72-12.52-7.96-9.73-4.91-20.04-8.04-30.72-10.05-.38-.07-.8-.14-1.22-.21,0,0-.28-.2-.48-.4-.27-.26-.89-.34-1.23-.24-.26,.08-.63,.24-.63,.24-.67-.12-4.19-.73-5.7-.74,2.2,.59,3.93,1.14,5.07,1.51l-.44,.81c-4.74-1.57-11-3.03-11.91-3.12-1.33-.13-4.65-.3-6.72-.27,.31,.13,.46,.2,.62,.27,5.33,2.26,11.31,5.11,16.44,7.79l-.29,.93c-4.95-2.62-10.7-5.36-15.96-7.61,7.05,4.66,11.47,8.03,15.97,12.15l-.36,.88c-5.83-5.22-12.36-10.07-19.11-14,.89,1.19,2.03,2.73,2.95,3.97l-1.1-.03c-.8-1.15-2.62-3.39-3.5-4.5h-1c-.56,.7-1.72,2.17-2.25,2.88l-.87-.34c.29-.44,1.22-1.59,1.53-2-.76,.38-1.54,.9-2.13,1.27-.31,.19-.55,.33-.55,.33-.76-.61-1.13-.63-2.02-.21-.3,.15-.58,.35-.89,.49-4.7,2.07-9.95,4.58-14.46,7.02h-2.01c6.35-3.5,12.71-6.47,19.48-9.34-1.17,0-6.09,.21-7.21,.43-13.45,2.73-25.95,7.81-37.58,15.07-1.14,.71-2.39,1.58-3.68,2.43,5.25-.76,12.93-1.66,18.31-2.12,0,0,.36-.24,1.21-.8,.66-.44,1.16-.75,2.14-1.4-.28,.48-.39,.57-.52,.89-.09,.24-.14,.42-.15,.67,0,0-.36,.2-.65,.45h.4c-.47,.38-.91,.83-1.25,.82-.88-.03-1.92,.91-2.38,1.26,0,0-.13,0-.52,.02-.51,.04-1.03,.42-1.13,.84-.07,.29-.08,.34-.08,.34-4.39,3.15-7.85,5.99-11.7,9.99,0,0-1.73,.58-1.74,.55,4.37-4.96,9.64-9.08,14.99-12.79-.47,.05-.88,.07-1.13,.1-5.35,.55-11.57,1.26-16.88,2.06l-.25,.07c-1.84,1.42-3.95,3.09-5.65,4.67,.03,.03,.05,.04,.06,.06,.14,.15,.29,.3,.44,.45,2.1,2.24,2.65,4.89,2.09,7.83-.12,.61-.41,1.19-1.11,1.27-.94,.1-1.85,.05-2.66-.62-1.23-1.01-3.07-2.3-4.32-3.29l-2.25,3.04c.23,1.45,.17,3.57,.14,4.92-.01,.53-.04,.73-.04,.73,1.82-.25,3.33-.31,5.13-.45,0,0,.14,.63,.11,.95,0,0-2.81,.22-4.08,.38-.84,.1-1.32,.2-1.32,.2-.19,1.22-.71,1.99-1,2.33-.12,.14-.28,.3-.28,.3,.04,1.87-.55,2.8-1.54,4.13-.65,.87-.89,1.84-1.56,2.93,0,0,.07,1.14,.24,1.91,1.01,4.74,3.46,9.02,6.52,12.85l.3,.36c2.91-1.53,6.96-2.89,9.89-3.83,0,0,.04,.26,.11,.46,.09,.29,.19,.49,.19,.49-3.66,1.12-4.56,1.42-7.22,2.54-1.04,.44-2.31,1.08-2.31,1.08,.64,.79,2.41,2.63,3.45,3.61,6.48,6.1,12.76,10.04,21.15,14.39,.31,.16,1.16,.58,1.16,.58,1.97-.87,5.24-1.77,9.35-2.42-4.78-2.81-8.52-5.4-12.13-8.2-.16-.13-.56-.49-.56-.49l.88-.63s.94,.76,1.11,.89c3.94,3.06,7.99,5.51,12.18,8.12,0,0,2.65-.43,6.42-.78-3.69-3.44-7.08-7.03-10.19-10.91,.59-.09,1.19-.24,1.19-.24,3.21,4.11,6.5,7.48,9.98,10.62,.3,.27,.41,.34,.41,.34,3.41-.27,5.25-.4,8.96-.59,0,0-.11-.14-.42-.72-2.51-4.64-4.35-9.12-6.16-15.13l.94-.49c2.17,7.41,4.18,11.45,6.71,16.23,0,0,.31-.01,.82-.04,1.65-.08,2.73-.06,4.16-.11,4.65-.15,9.3-.11,13.94,.13,1.17,.06,1.52,.02,1.52,.02,.84-1.5,1.71-3.32,2.28-4.43,.23,.39,.44,1.03,.32,1.59-.04,.18-.37,.68-.88,1.75,0,0-.28,.59-.56,1.15,.94,.04,1.37,.07,2.33,.15,0,0,.38,.58,1.14,1.08-2.34-.27-4.08-.25-4.08-.25-2.1,3.76-4.56,7.59-7.18,11.01-.32,.42-1.11,1.33-1.43,1.75,.48-.26,.67-.36,.87-.48,4.96-3.06,9.72-6.39,14.22-10.09,.21-.17,.54-.44,.54-.44,.38-.13,.93-.08,1.38,.25-4.69,3.83-7.85,6.23-13.45,9.77,1.03-.41,1.23-.52,1.43-.61,5.09-2.22,10.09-4.62,14.98-7.24,.27-.15,.53-.33,.87-.32,.85,.03,1.57-.32,2.26-.76,.31-.2,.78-.36,1.26-.11-6.95,3.94-14.26,7.31-21.53,10.47,2.18-.1,4.34-.11,5.94-.29,3.03-.33,8.14-1.91,11.48-2.91l.15,1.05s-.04,0-.48,.12c-1.04,.29-1.85,.54-3.86,1.05,2.8-.25,4.47-.51,4.47-.51,0,0,0,.05,.12,.51,.24,.94,.64,1.82,1.28,2.57,1.02,1.2,2.47,1.46,3.79,.62,.72-.46,1.41-.99,2.06-1.55,.6-.51,.98-.99,1.02-1.96,.02-.39,.29-.35,.31-.92,.03-.62,.25-.78,.34-.84,.29-.18,.61-.2,1.33-.35,2.91-.61,6.49-1.58,9.34-2.44,0,0,.12-.54-.43-1.13-.67-.72-1.44-1.05-2.3-1.49-.44-.22-.65-.28-.65-.28-3.63,1.77-5.3,2.44-7.45,3.31,0,0-.54-.21-1.63-.34,2.76-1.16,5.33-2.24,7.88-3.52-1.35-.38-2.43-.61-3.97-1.01,1-.57,1.76-.67,1.76-.67,.94,.44,.94,.58,1.66,.57,.45,0,1.27,.32,1.77,.61,0,0,.17-.13,.51-.31,1.61-.86,3.24-1.67,4.83-2.56,7.36-4.14,14.22-8.94,19.94-15.24,.4-.45,.5-.55,.5-.55-3.08-1.37-7.21-2.95-10.8-3.93,0,0,0-.21,.08-.47,.08-.24,.2-.42,.2-.42,3.05,.77,7.1,2.24,11.1,4.08,0,0,.06-.03,.29-.31,2.88-3.53,6.43-9.17,6.86-15.64,.42,.36,1,1.06,.92,1.46-.22,1.07-.4,2.64-.72,3.68-1.12,3.67-3.2,7.41-5.85,10.69-.45,.55-.51,.64-.51,.64,2.19,1.13,4.16,2.36,6.03,3.92,0,0-.13,.13-.25,.24-.21,.19-.41,.41-.41,.41-2.65-2.19-6.02-3.83-6.02-3.83-5.32,6.01-13.26,12.6-25.56,18.67,1.2,.57,1.95,1.02,2.67,1.84,.48,.55,.57,1.23,.57,1.23,0,0,1.27-.4,1.78-.58,.35-.12,.69-.23,1.04-.35,7.07-2.44,13.84-5.52,20.12-9.61,.37-.24,.71-.61,1.12-.7,.5-.12,.6,.59,.93,.78,.17,.1,.55,.09,.77,.61,.31,.72,.35,1.14,.94,1.76,.6,.63,.32,1.36,.07,1.89-.05,.1-.21,.69-.21,.85,.41-.21,.71-.47,1.01-.77,.22-.22,.24-.53,.28-.75,.04-.25,.22-.53,.22-.53,0,0-.25-.41-.53-.81s-.84-1.35-.96-1.8c-.21-.8-.29-.65-.94-1.05-.79-.5-.85-1.33-.21-2.03,.23-.25,.49-.48,.77-.66,.59-.4,1.05-.59,1.05-.59-.29-.97,1.4-2.73,2.2-3.44,.33-.29,.42-.4,.42-.4-.17-1.27-.19-2.86-.16-3.89,.03-1.18,.26-1.51,1.08-1.9,.6-.28,.84-.76,.87-1.44,.06-1.14,0-2.59,.28-3.8,.82,2.87,.35,3.24,1.38,3.74,.22,.11,.12,.65,.13,.89,.01,.34-.01,.61,.12,.94,.5,1.21,.47,2.32,.21,3.55-.12,.55-.18,.9-.18,.9,1.66-.2,1.94,.04,2.12,1.05,.14,.75,.08,1.57,.12,2.33,0,.16,.02,.46,.02,.46,.99,.09,1.17,.66,1.38,1.33,.53-.45,.75-.71,1.24-1.1,.36-.29,.5-.43,.9-.69,0,0,.03-.51,.15-.66,.16-.21,.41-.21,.46-.3,.46-.8,.72-1.34,1.04-2.33,0,0-.76-.41-1.98-.78s-2.58-2.25-1.31-3.72c.39-.45,.84-.86,1.24-1.36-.5-.17-1.05-.33-1.51-.51-1.77-.67-2.15-1.33-2.05-3.21,.04-.72-.15-1.17-.68-1.66-1.43-1.33-1.47-1.99-.42-3.68,.07-.11,.21-.23,.19-.33-.15-.88,.55-1.29,1.01-1.82,.35-.4,1.11-.41,1.47-.09,.88,.75,1.58,.97,1.5,2.57l-.02,.51s.83,.16,1.02,.22c1.88,.67,2.51,1.91,.88,3.49,0,0,.04,.16,.16,.42,.56,1.26,1.08,2.54,2.37,3.29,.38,.22,.67,.58,1,.87,1.76,1.52,2.77,2.6,3.48,4.89,.5,1.62,.55,2.58,.55,2.58,0,0,.75,.58,.96,.98s.04,1.82,.04,1.82l.82,.26s.02-.34,.02-.52c.04-1.49,.28-1.76-.97-2.81-.15-.13-.09-.43-.15-.83-.06-.35-.29-.75,0-1.06,1.18-1.29,2.46-2.53,4.24-2.97,1.53-.37,2.52-1.3,3.09-2.72,1.07-2.65,2.48-5.1,4.05-7.48,.5-.76,.73-1.6,.7-2.52-.09-2.45-.09-4.91-.26-7.35-.08-1.1-.1-2.35,.19-3,.13-.28,1.03-1.19,1.82-1.76,.84-.6,1.32-1.4,1.48-2.4,.45-2.75-.11-5.24-2.04-7.32Zm-33.21-6.98c2.45-2.06,5.17-3.69,8.09-5,1.23-.55,2.44-.36,3.67-.06l.44,.13s-.42,.92-.49,1.07l.95,1.13s2.84-.05,4.01,.21l-1.1,1.25c-.94,.38-3.37,.52-4.39,.53-.51,0-.9-.35-1.34-.62,0,0-1.05-.16-1.76-.19-2.27-.09-4.53,.34-6.52,1.26-.33,.15-.78,.37-1.04,.64-.38,.38-.14,.73-.14,.73,.23,.34,.58,.74,.58,.74,2.92-1.42,6.7-1,7.48-.43-.7,.71-3.89,.42-6.43,.96-.78,.17-1.47,.45-2.08,1-.78,.72-1.73,1.49-2.67,2.07,.28-3.02,1.13-4.07,2.73-5.42Zm-64.71-15.05c1.2,1.89,2.93,4.77,3.99,6.75,0,0,.07,0,.53,.01,2.89,.08,6.14,.2,9.27,.46l-.23,.66c-2.47-.13-4.87-.29-9.21-.4,.38,.77,.71,1.44,1.08,2.17l-1.19-.42c-.33-.79-.9-1.79-.9-1.79h-2.88l-.93-.74c1.1,0,2.33,.02,3.42,.02-1.38-2.57-2.55-4.43-3.59-6.05l.64-.67Zm-15.28-4.74c.07,.76-.34,1.17-1.61,1.12,.6-.42,1.17-.82,1.61-1.12Zm-7.8,5.65c-.16,.22-.47,.72-.54,1.08-.07,.33-.16,.6-.25,.69-.45,.44-.9,.81-1.36,1.18l-1.46,.03c1.19-.98,2.6-2.15,3.61-2.98Zm45.88,79.87c.28,0,.53,.13,.68,.23,.22,.14,.26,.29-.07,.56-.71,.56-.38,.82-.53,1.27-.14,.41-.53,.73-.47,1.15,.08,.57-.31,.87-1.43,1.82s-1.95,1.03-2.72,.65c-.31-.15-.58-.37-.79-.64-.71-.94-1.06-1.95-.99-3.38-.04-.68,.05-.99-.2-1.88s.13-1.01,.71-.76c.51,.21,.91,.44,1.4,.84,.58,.48,1.3,.71,1.91,.37,.2-.11,.88-.07,1.56-.1,.32-.01,.64-.11,.93-.11Zm23.55-34.47c.04,.52,.05,1.04,.09,1.56,.14,2.12-.26,1.93-.6,2.84-.26,.69,.28,.8-.88,2.06-.18,.19-.24,.43-.31,.7-.37,1.62-.97,3.12-2.07,4.41-.52,.61-.93,1.32-1.42,1.96-.37,.49-.77,.96-1.47,.79-.07-.02-.39-.08-.4-.05-.47,1.43-1.44,.9-1.56,1.95-.14,1.17-.47,1.25-.87,1.68-.6,.65-1.23,1.2-1.3,2.15,0,.14-.29,.39-.41,.48-.6,.47-.9,.58-1.24,1.18-.06,.11,.02,.54-.33,1.03-.59,.8-1.15,2-1.44,2.68-.13,.31-.06,1.04-.25,1.28-.33,.41-.58,.43-1.75,.36-.61-.03-1.17,.3-1.17,.3-.08-.29-.11-.39-.29-.44-.29-.07-1.63,0-2.23,.53-.87,.78-1.03,.75-1.74,.78-.54,.03-.92,.53-1.36,.8-.76,.47-1.14,.5-1.56-.28-.27-.51-.57-.59-.66-1.03-.07-.36-.41-.37-.65-.37-.46,0-.84,.23-1.22-.23-.23-.28-.62-.5-.96-.3-.28,.16,.03,.52-.37,.53-1.19,.04,.32,.2-2.03,1.01-.58,.2-1.17-.25-1.66-.58-.41-.28-.84-.53-1.22-.85-.64-.55-1.37-.7-2.18-.67-.17,0-.47,.3-.63,.19-.06-.05,.08-.41-.04-.47-.94-.51-1.43-1.15-1.85-1.1-.77,.1-.89-.16-.82-.73,.03-.27-.04-.59-.27-.71-.91-.49-.75-1.39-.67-2.13,.12-1.15-.16-1.8-1.3-2.25-1.19-.47-2.29-1.28-1.98-2.89,.08-.44-.28-.37-.46-.7-.09-.16,.04-1.39-1.45-.76-.49,.21-.31-.39-.23-.58,.23-.55,.55-1.06,.66-1.66,.11-.61,.07-1.14-.61-1.39-.65-.24-1.16,.09-1.51,.65-.46,.74-1.03,1.2-1.86,1.48-.36,.12-.6,.48-.82,.77-.26,.35-.59,.83-1,1.14-.07-.67,0-.99-.81-1.67-.5-.42-.82-.78-1.25-1.23-.26-.27,0-.68-.41-.79-.48-.13-.36-.66-.78-.84-.88-.37-.53-1.08-.68-1.29-.53-.74-2.65-1.77-4.16-1.91-1.01-.09-1.86-.49-2.82-1.12-1.3-.85-2.38-.96-3.82-.59-1.39,.35-2.03,.58-3.1,.74-1.54,.22-2.18,.61-3.19,1.14-1.75,.93-3.26,1.33-4.47,1.21-1.3-.13-1.46,.35-2.74,.67s-1.37,.74-1.9,.83c-.72,.13-1.21,.55-1.68,1.18s-.58,.06-1.41,1.37c-.49,.77-1.49,.76-2.29,.77-.76,0-1.83-.14-2.59-.11-.89,.04-1.53-.12-2.25,.09-.31,.09-.47,.43-.92,.76-.57,.41-1.09,.45-1.84,.73-.43,.16-.58,.56-1.19,.72-.75,.19-1.18,.59-1.53,.98-1.03,1.13-2.04,1.35-3.38,1.11-1.08-.2-2.05,.16-3.27-.07-.14-.03-.32,.1-.48-.07-.39-.41-.04-.43-.22-.56-.31-.21-.54,0-1.14-.53-.21-.18-.42-.26-.48-.44-.08-.24,.06-.18,.11-.33s-.02-.44,.11-.54c.35-.29,.41-.72,.27-1.27-.04-.17-.13-.31-.18-.48-.08-.31,.17-.16,.15-.39-.01-.16-.12-.26-.12-.44,0-.76-.21-.42-.22-.71,0-.19,.2-.09,.2-.31,0-.33-.15-.17-.16-.4-.03-.54,.04-1.33-.02-1.41-.1-.12-.45-.21-.74-1.65-.02-.08-.26-.14-.34-.17-.65-.24-1.23-.38-1.14-1.15,.02-.21-.69-.07-.83-1.88-.14-1.83-.62-2.61-1.36-2.99-.25-.13,.1-.53-.15-.75-1.43-1.28-.57-1.17-1.06-1.84-.74-1-.87-1.17-1.24-1.73-.48-.71-.93-2.03-1.68-2.36-.12-.05-.11-.77,0-.77,.48,.03,.73-.04,.7-.35-.05-.55,.16-.69,.16-1.05,0-.57-.38-.48-.46-.83-.07-.31,.13-.68-.06-.71-.41-.05-.26-.44-.5-.77-.26-.37-.26,.08-1.03-.75-.14-.15-.15-.29-.25-.42s-.34-.2-.38-.36,.12-.27,.13-.45c.03-.34-.39-.19,.05-1.11,.62-1.32,.04-1.73,.07-3.73,0-.21-.1-.59-.16-.78-.22-.67,.11-.86,.79-.96,1.01-.14,1.22-.15,1.44-1.02,.06-.25,.33-.18,.57-.33,.25-.16,.42-.48,.66-.57,.7-.27,.94-.56,1.94-1.08,.26-.13,.16-.55,.35-.77s.7-.17,.85-.4c.5-.79,1.46-.87,2.3-1.03,2.16-.41,2.25,.02,3.18-.64,.41-.29,1.01-.4,1.43-.68,.72-.49,1.11-.71,1.9-.65,1.25,.1,1.12-.44,1.9-.5,1.13-.08,1.35,.02,2.3-.52,.29-.16,.69-.24,1.01-.4,.35-.17,.48-.46,.77-.68,.3-.22,.78-.21,.68-.54-.15-.5,.43-.42,.46-.75,.06-.62,.37-.85,.58-1.32,.36-.81,.55-1.55,1.21-1.88,.22-.11,.06-.33,0-.5-.16-.49-.15-.99,.11-1.44,.2-.34,.53-.57,.72-.91,.1-.18-.15-.35-.08-.43,.06-.07,.47,.15,.42-.44-.02-.23,.45-.25,.68-.12,.23,.12,.37,.33,.56,.51,.35,.34,.76,.4,1.17,.24,.42-.17,.7-.7,.59-.97-.28-.7,.26-.92,.64-1.12,.65-.35,1.32-.76,1.34-1.4,0-.25,.37-.39,.42-.62,.04-.17-.1-.35-.1-.54,.01-.31,.41-.42,.69-.49,.74-.18,1.02-.69,1.06-1.46,.03-.55,.4-.79,.88-.81,.66-.03,.75-.22,1.08-.54,.97-.95,2.55-1.56,3.88-1.01,.95,.39,1.94,.91,2.29,1.42,.11,.16-.01,.4,.27,.56,.34,.2,.63,.41,.9,.41,1.12-.01,2.45,.01,3.55-.19,.47-.09,.86-.38,1.14-.77,.2-.28,.4-.66,.14-.94-.25-.26-.62-.61-.51-.75,.26-.34,.51-.53,.47-.83-.06-.36,.17-.28,.35-.36,.17-.08,.26,0,.4-.1,.13-.1,.18-.27,.44-.48,.49-.4,.58-.88,.54-1.3-.07-.81,.17-.82,1.79-1.65,.63-.32,1.37-.33,2.08-.27,.21,.02,.42-.01,.62-.03,1.31-.13,1.79-.66,1.85-1.78,.03-.48,.22-.46,.62-.47,.75-.02,.43,.34,.64,.37,.07,.01,.1-.24,.17-.24,.33,.02,.69,.05,.86,.23,.82,.89,1.69,.78,2.71,.83,.78,.04,1.19,0,1.82,.67,.55,.59,1.7,.82,2.51,.84,1.2,.02,2.4,0,3.6,0,.28,0,.6-.08,.73,.28,.11,.29-.04,.5-.28,.66-.17,.11-.22,.28-.24,.47-.04,.39-.25,.6-.65,.66-.62,.08-.89,.53-.97,1.08-.13,1.01-.41,1.91-.7,2.96-.31,1.13-.02,1.92,.95,2.57,.35,.23,.71,.45,.94,.81,.36,.54,.85,.91,1.42,1.2,1.36,.71,2.68,1.5,4.16,1.98,.27,.09,.55,.2,.77,.37,1.06,.82,2.24,1.42,3.43,2,.26,.13,.58,.13,.58,.53,0,1,1.42,1.23,2.58,.72,.15-.07-.21-.36,.03-.57,.13-.12,.33,.09,.51-.08,.46-.44,1.29-1.17,1.29-1.17-.02-.91,.34-.83,.55-1.29,.07-.15-.07-.27,.03-.39,.9-1.12,.8-1.4,1.07-2.51,.11-.47,.39-.48,.49-1.13,.18-1.2-.01-2.36,.22-3.94,.13-.89-.24-.77-.16-1.17,.01-.08,.14-.28,.24-.59,.13-.4,.15-.89,.16-1.13,0-.14,.26-.48,.34-.61,.17-.26,.68-.67,.68-.67-.51-.16-.23-.41-.45-.71-.06-.08,.02-.46,.1-.48,.32-.12,.52-.34,.65-.62,.08-.16,0-.42,.06-.61,.05-.16,.17-.17,.25-.31,.1-.19,.1-.53,.21-.71,.06-.11,.21-.37,.37-.32,.1,.03,.2,.22,.22,.32,.54,2.12,.72,1.39,1.29,2.09,.27,.32,.63,.87,.57,1.3-.02,.19,.32,.58,.49,1.12s.24,1.24,.25,1.73c0,.94,.15,1.75,.57,2.57,.32,.64,.76,1.06,1.62,.85,1.08-.26,2.48,.7,2.88,1.94,.35,1.09,.69,2.19,.68,3.36,0,.95,.4,1.77,.83,2.57,.45,.84,.82,1.33,.72,3.13-.04,.71,.27,.39,.29,.95s.19,1.43,.53,2.07c.19,.35,.45,.44,.77,.47,.43,.03,.78,.06,1.09,.29,.52,.38,.04,.28,.49,.67,.16,.14,.38,.12,.76,.43s-.04,.79,1.16,1.02c1.33,.26,2.31,.93,2.58,2.38,.03,.16,.16,.35,.29,.45,.74,.55,1.28,1.71,1.4,2.56,.23,1.68,.52,1.95,2.56,2.74,1.22,.47,.99,.57,1.05,1.25s.38,.69,.48,1.05c.12,.43,.08,1.07,.3,1.4,.13,.2,.45,.07,.59,.24,.21,.25-.11,.58,.54,1.01,.52,.35,.55,.83,.67,1.34,.16,.66,.76,1.04,1.23,1.48,1.39,1.3,1.86,2.9,1.34,4.69-.36,1.24-.12,2.42-.03,3.62Zm3.12-15.97c3.37,7.69,2.06,15.1-2.51,21.44,.31-.94,.47-2.66,.47-2.66,1.99-3.37,3.17-7.54,2.9-11.51-.17-2.45-.95-4.71-1.78-6.82-.16-.41-.29-.57-.29-.57-1.63-.13-4.45-.31-6.31-.42,0,0-.47-.55-.96-.88,.6,0,2.95,.08,3.47,.1,1.61,.08,3.29,.2,3.3,.2,0,0-.26-.54-.37-.74-1.68-3.01-3.76-5.56-6.14-8.02-3.7-3.82-8.05-7.3-12.45-10.36-.31-.21-.78-.53-.78-.53,0,0-.23-.72-.41-1.37,6.27,.44,13.06,1.32,17.93,2-.44-.34-.71-.57-1.03-.79-7.04-4.78-14.61-8.54-22.54-11.58-.56-.21-.86-.32-.86-.32-.45-.75-.99-1.18-1.27-1.43,1.17,.44,2.46,.85,3.62,1.31,8.47,3.34,16.93,7.83,24.32,13.19,0,0,2.25,.31,2.66,.38,4.54,.78,9.19,1.62,13.71,2.61-.34,.29-.73,.66-.73,.66,0,0-.36-.11-.63-.17-4.28-.94-11.94-2.27-13.61-2.47,1.52,1.16,2.86,2.34,4.18,3.52,2.3,2.06,4.41,4.29,6.3,6.74,.14,.18,.3,.37,.38,.58,.13,.34,.04,.48-.11,.68s-.33,.32-.33,.32c-3.56-4.75-6.59-7.58-11.23-11.23-.81-.64-1.26-.99-1.26-.99-4.85-.71-9.08-1.25-17.97-2.11,1.58,1.16,3.1,2.24,4.58,3.37,4.49,3.44,8.67,7.2,12.08,11.76,1.1,1.46,2.09,3,2.9,4.63,.18,.36,.21,.44,.21,.44,2.88,.18,6.09,.42,9.15,.75,0,0,.21,.52,.35,.98-3.04-.22-5.32-.46-8.95-.69Zm22.54,8.83c-1.48,.8-3.09,1.23-4.75,.92-2.39-.44-3.47-2.24-4.05-4.39-.46-1.7-1.37-3.15-2.45-4.48-.86-1.06-.96-1.29-1.49-2.53-.38-.88-.36-1.3-.28-1.66,.14-.63,.76-1.04,.76-1.04-.4-.81,.05-1.37,.48-1.87,.25-.3,.5-.58,.87-.75,.59-.27,1.23-.43,1.16-1.35-.04-.45,.64-.56,1.04-.68,.7-.22,1.57-.19,2.37-.27-.96-.68-.62-1.33,.18-1.9,1.12-.8,2.44-.86,3.74-.95,.7-.04,3.02,.03,3.02,.03l.08,.4c.11,.63,.23,1.26-.39,1.71-.19,.13-.41,.25-.64,.29-1.01,.18-1.77,.77-2.4,1.51-1.41,1.65-3.09,3.54-4.72,4.96-1.95,1.7-1.69,3.65-1.63,6.25,0,.36,.29,.61,.57,.81,1.07,.79,2.13,1.59,3.22,2.35,.78,.54,1.67,.7,2.61,.63,.96-.06,1.47-.74,1.88-1.48,.49-.87,.72-1.84,.92-2.81,.05-.25,.04-.51-.08-.76-.4-.81-2.33-2.28-2.63-2.4-.24-.1-2.41-.5-3.08-.36-.88,.19-1.23,.76-1.13,1.67,.14,1.26,.71,2.21,1.79,2.86,.3,.18,.59,.3,.83-.01,.24-.31-.13-.45-.27-.63-.45-.55-.93-1.07-1.16-1.75-.17-.53-.06-.8,.61-.96,.32-.07,1.19-.15,1.45,.04,1.7,1.24,2.28,1.96,1.93,3.49-.04,.18,0,.86-.01,1.04-.07,.72-1.49,1.21-2.2,.93-1.52-.59-2.78-1.1-4.51-2.49,0,0-.01-.35,0-.8,.03-1.29,.27-2.54,.81-3.72,.52-1.14,1.33-1.54,2.55-1.16l.65,.25c.41-1.01,1.18-2.72,1.62-3.72,.19-.44,.47-.81,.99-.7,.56,.12,1.11,.34,1.21,1.04,.11,.7,.22,1.39,.32,2.09,.19,1.26,.44,2.47,1.17,3.59,.86,1.31,1.38,2.81,1.47,4.4,.11,1.96-.7,3.44-2.44,4.37Zm23.42-3.81c-.8,1.4-.53,4.96-.58,7.5-.02,1.01,.04,2.01-.63,2.86l-.14,.17s.05,.47,.06,.67c.01,.83-.08,1.6-.99,1.92-.27,.09-.37,.13-.37,.13,0,0,.01,.34,0,.75-.01,2.6-1,3.31-3.54,2.26-.67-.28-1.31-.53-1.97-.83-.66-.3-1.33-.74-2.02-1.25,.1,1.56,.79,2.59,1.99,3.29,.36,.21,.71,.45,1.09,.62,.71,.31,.67,.62,.2,1.19-.89,1.06-1.76,1.43-3,.6-1.65-1.11-2.54-2.55-2.45-4.65,.13-3.26,.13-6.52-.3-9.76-.11-.84-.44-1.61-.82-2.35-1.38-2.71-2.85-5.35-5.56-7.01-.28-.17-.35-.2-.35-.2,.55-2.23,.76-4.94,.5-7.21-.04-.38-.05-.5-.05-.5,2.47,.64,4.45,1.66,5.75,3.51,.87,1.24,1.83,2.41,2.86,3.52,.68,.73,.53,1.64,.59,2.52,.02,.33-.18,.79,.38,.92,.57,.13,1.08,.21,1.49-.36,.15-.21,.25-.46,.36-.69,.42-.85,1.16-.73,2.03-.73,.8,0,1.17-.55,1.85,.09,.57,.53,.88,1.41,.88,1.41,0,0,.73-.36,1.23-.38,.95-.05,1.9,1.29,1.49,2.01Zm2.56-5.27l-1.76-.05c-1.31-.03-2.57-.35-3.81-.79-1.26-.45-1.5-.96-1.03-2.21,.29-.76,.44-1.48-.04-2.23-.36-.56-.78-.77-1.44-.62-1.37,.29-2.52,.61-3.91,.82-1.73,.26-3.62,.04-5.02-1.15-.45-.38-.8-.82-.83-1.45-.03-.63-.36-.85-.98-.78-.4,.04-.93,.03-1.33,.03,.23-.43,.39-.75,.5-.95,.22-.38-.08-.53-.08-.53-.36-.21-.84-.45-1.19-.02-.3,.39-.54,.83-.85,1.22-.56,.72-1.18,.76-1.71,.37-.59-.44-.37-.97-.1-1.47,.22-.41,.49-.79,.77-1.23-.39-.03-.94,.09-1.28,.22-.64,.26-.57-.17-.56-.68s.15-1.31,.37-1.92c0,0,1.04-1.2,2.65-1.58,.8-.18,1.53,.4,1.99,1.68,0,0,.73-.04,1.13-.08,1-.08,1.34,.03,2.09,.78,.67,.67,1.5,.64,2.32,.21,.41-.22,.81-.47,1.2-.73,.24-.16,.62-.29,.49-.7-.13-.38-.46-.62-.85-.59-1.8,.13-3.65-.24-3.65-.24,0-1.76,.56-2.13,1.32-1.92,1.01,.29,1.94,.41,3.01,.13,.66-.17,1.22,.18,1.75,.53,1.81,1.18,3.26,2.77,4.81,4.24,1.88,1.77,3.71,3.6,5.55,5.41,1.08,1.06,1.71,2.12,.47,6.27Z"/><path class="d" d="M31.78,116.87c.27-.32,.27-.83,.46-1.44,.18-.56,.19-1.27,.03-1.52-.16-.26-.32-.63-.67-.58-.37,.06-.35,.47-.39,.77-.15,1.27,.02,1.57-1.97,1.43,.19-.32,.6-.72,.75-1.05,.16-.36,.37-.96,.17-1.12,0,0-.91-.05-1.32,.18-.17,.1-.31,.28-.43,.44-.16,.2-.27,.49-.51,.41-.9-.33-1.82-1.53-1.86-1.77-.01-.12,.13-.26,.2-.36,.43-.67-.04-1.07-.45-1.47-.23-.22-.57-.16-.63,.14-.14,.74-.23,.65-.69,.4-1.09-.6-1.92-1.79-2.5-2.85-.24-.45-.18-.71,.14-1.01,.29-.27,.62-.47,.99-.61,.19-.07,.38-.1,.47-.35,.27-.72,.81-1.27,1.32-1.83,.79-.88,1.12-1.9,.95-3.03-.21-1.37,.18-2.48,1.01-3.56,1.43-1.88,.75-3.42-1.59-3.75-.41-.06-.84-.06-1.25,0-.47,.07-.92,.3-1.08,.79-.16,.48,.2,.79,.53,1.04,.37,.28,.54,.62,.48,1.08-.21,1.53-.11,3.07-.12,4.61,0,1.25-.56,2.2-1.71,2.76-1.09,.53-2.33,1.01-3.53,1.18-1.49,.2-2.26-.47-3.4-1.67-.77-1.07-1.32-1.23-1.3-1.88,.01-.48-.77-3.34-.21-4.61,.22-.5,.57-.67,.57-.81,.03-1.05,.11-1.51,.33-1.95,.3-.64-.05-1.6,.78-1.17,0,0-.05-.25-.08-.36-.06-.24-.07-.46,.02-.69,.31-.77,.64-.85,.89-1.76,0,0,.02-.18,.41-.16,.23,0,.04-.19,.12-.51,.08-.29,.51-.29,.41-.87-.09-.52,.05-1.06,.3-1.49,1-1.73,.76-3.13,.97-4.99l.3,.02c-.26-3.3,1.4-4.64,2.84-5.6,2.61-1.74,5.7-2.71,8.94-2.68,1.11,.01,1.69-.2,2.4-.76,.45-.35,.96-.56,1.53-.29,1.28,.6,2.22,1.54,2.72,2.88,.18,.48,.12,.9-.4,1.2-.68,.39-1.22,.98-1.94,1.3-.44,.2-.5,.58-.42,.99,.25,1.28,.56,2.54,1.11,3.73,.17,.36,.39,.73,.66,.97,.48,.43,1.2,.65,1.27,.53,0,0-.52,1.18-.68,1.89-.85,3.78-1.04,6.08-1.35,9.14-.23,2.32-.2,2.12-2.84,4.63-.15,.14-.43,.18-.65,.23-.83,.2-1.24,.64-1.3,1.44-.07,.83,.27,1.39,1.1,1.67,.49,.17,1.01,.27,1.52,.33,4.34,.57,8.51-.03,12.55-1.74,1.56-.66,2.76-1.62,3.55-3.12,.78-1.5,1.5-3.03,2.51-4.41,.5-.68,.66-1.52,.64-2.38,0-.24-.06-.66-.06-.66,.75-.26,1.14-1.31,1.29-2.09,.48-2.44,.52-4.86,.03-7.26l.2-.28c-.53-.97-1.04-2.64-1.14-3.25-.2-1.19,.29-1.57,1.46-1.23,1.26,.36,2.3,.91,3.33,1.66,1.5,1.09,3.01,2.27,4.74,3.57,.18,.14,1.31,.27,1.61,.08,.28-.18,.35-.63,.41-1.16,.38-3.45-1-6.29-4.05-7.95-2.35-1.27-4.92-1.98-7.38-2.98-2.13-.87-4.34-1.46-6.64-1.7-1.22-.12-2.44,.04-3.66-.22-2-.43-3.91-.58-5.85,.62-1.8,1.11-3.86,1.81-5.82,2.66-1.18,.51-2.13,.83-3.43,.84-3.62,.04-7.05,2.13-9.03,4.83-1.03,1.41-1.42,3.21-1.49,5.03-.06,1.57-.07,2.22-1.1,4.56s-2.03,4.83-2.84,7.39c-.6,1.89-.87,3.83-.56,5.79,.44,2.83,2.13,4.73,4.68,5.95,1.44,.68,2.86,1.39,3.9,2.67,1.45,1.79,3.18,3.32,4.81,4.92,1.06,1.04,2.17,2.04,3.58,2.62,.98,.4,1.85,.25,2.38-.37Zm4.93-35.29c-.62-.54-.65-1.01-.1-1.6,.21-.22,.46-.43,.73-.58,2.19-1.21,4.48-2.08,7.03-2.03,.57,.01,1.13,0,1.89,0-.71,.78-1.4,1.25-2.1,1.69-1.56,.96-3.06,1.97-4.36,3.27-.24,.24-.52,.44-.8,.63-1.01,.67-1.83,.54-1.86-.78,0-.33-.24-.43-.43-.59Zm14.01,12.09c-.05,.62-.35,1.14-.73,1.61-.76,.94-1.69,1.7-2.54,2.55-.3,.29-.59,.59-.85,.92-.13,.16-.43,.31-.23,.57,.18,.24,.49,.22,.72,.12,.4-.17,.77-.39,1.15-.59-.71,1.35-1.72,2.25-3.1,2.86-1.7,.76-3.38,1.49-5.21,1.87-1.26,.26-2.5,.33-3.79-.03-.7-.2-1.44-.3-2.12-.61-.51-.23-.64-.59-.29-1.06,.31-.42,.59-.86,.71-1.38,.05-.22,.19-.29,.37-.35,1.72-.62,2.29-1.98,2.42-3.66,.16-2.05,.29-4.1,.54-6.14,.16-1.26,.65-2.45,1.46-3.46,.28-.35,.34-.64,.24-1.05-.2-.9-.27-1.78,.7-2.34,.06-.03,.11-.11,.13-.18,.38-1.43,1.56-2.06,2.73-2.62,1.55-.74,3.15-1.36,4.74-2.02,.64-.27,1.04,.08,1.33,.61,.45,.83,.58,1.74,.57,2.65-.03,2.52,.21,5,.74,7.46,.13,.61,.13,1.25,.07,1.87-.08,.89-.39,1.22-1.28,1.25-.43,.02-.71,.16-1.01,.46-1.97,1.95-4.38,3.26-6.8,4.55-1.1,.59-2.25,1.13-3.09,2.1-.18,.2-.49,.45-.31,.73,.15,.23,.48,.09,.74,.05,.74-.11,1.44-.12,2.09-.41,.14-.06,.01-.3,.15-.36,1.6-.71,2.18-1.18,3.07-1.87,1.23-.96,2.36-2.05,3.55-3.07,.74-.63,1.58-1.09,2.46-1.51,.56-.27,.69-.02,.65,.47Zm4.18-20.11c2.8,.44,5.03,1.92,6.92,3.93,.84,.89,.99,2.09,1.07,3.3-.05,.33,.14,.78-.25,.98-.38,.19-.7-.13-.97-.35-2.11-1.78-4.41-3.34-6.32-5.35-.47-.49-.94-.99-1.17-1.64-.22-.64,.04-.97,.71-.86Zm-3.3-.83c.72,.12,1.81,.13,2.56,.48-.98,.56-1,.66-.53,1.63,.15,.3,.31,.61,.42,.92,.11,.33,.13,.69-.24,.89-.33,.18-.66,.14-.95-.1-.51-.42-.73-1.01-.86-1.63-.14-.66-.13-1.22-.26-1.88l-.13-.31Zm.09,10.97c.25,.41,.41,.78,.33,1.23,0,0-.04,.41-.18,.69-.2,.4-.26,.51-.4,.54-.06,.01,.07-1.25-.28-2.34-.11-.33-.13-.62-.04-.64,.1-.02,.47,.33,.58,.51Zm-.37-.76c-.8-1.23-.84-2.6-.75-4.01,.89,1.22,.89,2.6,.75,4.01Zm-12.34-12.65c.44-.24,.95-.24,1.38,.12,.58,.49,.85,1.18,1.18,1.82,.38,.74,.82,1.42,1.56,2,.14-.75-.18-1.26-.44-1.78-.25-.51-.55-1-.67-1.58-.05-.24-.09-.49,.12-.65,.2-.15,.44-.07,.67,.03,.85,.38,1.46,.97,1.74,1.89,.15,.51,.32,1.03,.92,1.36,.11-.71-.18-1.3-.16-1.91,.02-.88,.36-1.13,1.18-.82,.78,.3,1.41,.78,1.78,1.54,.28,.59,.53,1.18,.81,1.77,.09,.18,.05,.55,.4,.42,.29-.11,.43-.37,.29-.7-.15-.36-.33-.71-.48-1.07-.17-.4-.43-.78-.31-1.33,.49,.15,.79,.45,.99,.82,.54,1.01,.97,2.08,1.29,3.17,.08,.26,.14,.83-.67,.53-.18-.07-.44,.25-.8,.28-1.37,.13-2.11-.42-3.62-.68-.56-.1-1.1-.11-1.64,.24-.7,.45-1.53,.17-2.3,.19-.46,.01-.63-.5-.89-.8-.78-.91-1.52-1.85-2.11-2.91-.15-.27-.3-.55-.39-.85-.13-.39-.31-.87,.16-1.12Zm-3.62,2.21c.22-.69,.99-.51,1.56-.6,.41-.07,.66,.12,.93,.42,.61,.67,1.3,1.28,1.95,1.92,.26,.26,.54,.5,.76,.79,.71,.91,.53,1.43-.51,1.9-.76,.34-1.02,.41-1.3,.46,0,0-.11-.55-.39-1.07-.53-1-1.18-1.9-2.08-2.61-.41-.32-1.13-.57-.92-1.21Z"/><path class="d" d="M15.2,103.82h0v0Z"/><path class="d" d="M35.24,54.18c.34,0,1.39,1.19,2.14,1.88,3.87,3.57,7.72,7.18,11.56,10.78,.36,.34,1.02,.66,.29,1.29-.04,.04-.11,.09-.11,.09l.4,.62s.11-.06,.28-.15c2.26-1.25,4.52-2.5,6.77-3.75,.16-.09,.3-.17,.3-.17l-.39-.65s-.08,.04-.16,.07c-.77,.32-.88-.25-.98-.72-.49-2.27-.92-4.56-1.4-6.82-.38-1.81-.92-4.03-1.31-5.84,0,0,8.39,8.56,9.18,9.42,.25,.27,.43,.57,.03,.85-.09,.06-.27,.19-.27,.19l.44,.68s.26-.16,.38-.23c.98-.54,1.96-1.08,2.94-1.62,1.12-.62,2.23-1.24,3.35-1.86,.17-.09,.38-.19,.38-.19l-.33-.68-.13,.05c-.81,.29-.77-.32-.87-.79-.11-.51-2.32-12.18-3.31-17.51-.08-.42-.28-1.01,.08-1.26,.04-.03,.07-.06,.07-.06l-.36-.63s-.18,.11-.31,.18c-1.71,.95-3.42,1.89-5.13,2.84-.16,.09-.37,.21-.37,.21l.36,.67s.16-.07,.23-.09c.71-.21,.78,.28,.87,.76l2.16,11.02c-2.68-2.74-5.37-5.62-7.95-8.26-.23-.23-.34-.46-.06-.73,.27-.26,.06-.47-.09-.68-.17-.24-.33-.03-.46,.04-2.47,1.36-4.93,2.72-7.39,4.08-.11,.06-.38,.21-.38,.21l.42,.65s.1-.04,.16-.06c.74-.3,.78,.29,.88,.72,.48,2.08,.95,4.16,1.41,6.25,.33,1.53,.67,3.18,1.03,4.89-.92-.87-1.73-1.71-2.5-2.45-1.91-1.81-3.83-3.62-5.73-5.44-.23-.22-.71-.62-.51-.86l.47-.4-.37-.66s-.19,.1-.35,.19c-1.85,1.02-5.9,3.28-5.9,3.28l.37,.68s.06-.03,.17-.03Z"/><path class="d" d="M68.52,37.39c.54-.11,.72,.19,.84,.66,1.53,5.55,3.07,11.09,4.63,16.63,.14,.5,.07,.83-.43,.97l-.36,.12,.22,.77,18.02-5.04s.62-.26,.85,.3l.16,.36,.72-.22-1.89-6.81-.75,.25s.05,.2,.09,.5c.06,.4-.02,.67-.5,.8-3.62,.99-11.34,3.16-11.34,3.16l-.84-3.19,6.44-1.77c.51-.15,.93-.17,1.24,.3l.12,.24,.72-.25-1.67-6.04-.71,.25v.2c-.02,.61-.45,.79-.95,.92-1.43,.39-6.42,1.78-6.42,1.78l-.73-2.83,11.11-3.06c.52-.15,.86-.13,1.04,.42l.11,.35,.75-.15-1.88-6.83-.72,.25s.03,.07,.1,.39c.12,.58-.21,.77-.71,.9l-17.91,4.99,.25,.73s.26-.05,.39-.08Z"/><path class="d" d="M138.25,29.43c.54,.11,.58,.46,.51,.94-.82,5.69-1.62,11.39-2.41,17.09-.07,.52-.27,.79-.78,.72l-.38-.03-.11,.8,18.53,2.59s.67,.01,.66,.61v.39l.76,.09,1-7-.79-.07s-.04,.2-.12,.5c-.11,.39-.28,.61-.78,.54-3.71-.54-11.66-1.64-11.66-1.64l.5-3.26,6.61,.96c.52,.07,.92,.22,1.02,.78l.02,.27,.76,.06,.89-6.21-.75-.06-.07,.19c-.27,.55-.73,.54-1.25,.46-1.47-.21-6.6-.94-6.6-.94l.46-2.88,11.41,1.64c.53,.07,.84,.22,.78,.8l-.04,.37,.74,.16,1.01-7.01-.76-.06s0,.08-.07,.4c-.12,.58-.51,.62-1.01,.54l-18.41-2.59-.06,.77s.26,.06,.39,.09Z"/><path class="d" d="M48.36,132.63c.28,.2,.22,.41,.06,.67-1.86,3.07-3.82,6.33-5.67,9.41-.17,.28-.35,.39-.63,.22l-.21-.11-.18,.31,10.19,6.13s.38,.17,.23,.51l-.09,.23,.23,.13,2.24-3.61-.27-.13s-.07,.11-.19,.26c-.16,.2-.31,.28-.58,.12-2-1.22-6.6-4-6.6-4l1.13-1.91,3.86,2.33c.28,.17,.48,.35,.39,.69l-.06,.16,.26,.16,1.91-3.21-.25-.17-.1,.1c-.29,.25-.55,.13-.83-.04-.79-.48-3.81-2.28-3.81-2.28l1.03-1.76,6.52,3.94c.29,.17,.43,.33,.25,.65l-.11,.2,.27,.16,2.16-3.58-.24-.15s-.04,.06-.16,.23c-.21,.3-.44,.23-.71,.06l-10.12-6.11-.15,.23s.13,.1,.2,.14Z"/><path class="d" d="M90.3,149.49c.34,.08,.36,.3,.31,.59-.58,3.54-1.17,7.3-1.73,10.85-.05,.32-.18,.49-.5,.44l-.24-.02-.05,.35,11.74,1.86s.42,.01,.4,.39v.25l.26,.03,.72-4.19-.3-.02s-.03,.13-.08,.31c-.07,.24-.18,.38-.49,.33-2.31-.38-7.61-1.23-7.61-1.23l.34-2.2,4.46,.71c.33,.05,.57,.15,.62,.5v.17l.3,.05,.57-3.69-.3-.06-.05,.13c-.17,.34-.46,.33-.78,.27-.91-.15-4.39-.68-4.39-.68l.3-2.02,7.53,1.2c.33,.05,.52,.15,.48,.51l-.03,.23,.31,.05,.66-4.13-.28-.05s-.02,.07-.06,.27c-.08,.36-.32,.38-.63,.33l-11.67-1.87-.05,.27s.16,.04,.24,.06Z"/><path class="d" d="M176.56,143.24c.32-.12,.46,.05,.58,.33,1.48,3.27,3.06,6.73,4.56,9.99,.14,.3,.12,.51-.17,.64l-.21,.11,.16,.32,10.81-4.94s.36-.22,.55,.1l.14,.2,.23-.12-1.71-3.89-.26,.15s.05,.12,.11,.3c.07,.24,.06,.42-.23,.54-2.13,.96-7.03,3.18-7.03,3.18l-.94-2.02,4.11-1.87c.3-.14,.56-.2,.8,.07l.1,.14,.27-.13-1.57-3.39-.28,.11,.03,.14c.05,.38-.21,.53-.5,.66-.84,.38-4.03,1.86-4.03,1.86l-.87-1.85,6.94-3.16c.3-.14,.52-.17,.68,.16l.1,.21,.28-.13-1.74-3.8-.26,.11s.03,.07,.1,.26c.13,.34-.06,.5-.35,.62l-10.75,4.9,.11,.25s.16-.06,.23-.09Z"/><path class="d" d="M96.66,40.99c2.35,.52,4.72,.4,7.1,.37,1.28-.02,2.56-.09,3.83,.12,1.22,.21,1.55,1.12,.75,2.09-.3,.37-.68,.67-1.12,.84-3.54,1.31-7.08,1.31-10.61-.07-.62-.24-1.11-.61-.99-1.39l.05-.18-.69-.31-2.04,7.38,.73,.14,.07-.14c.37-.57,.88-.46,1.39-.33,3.58,.89,7.18,.9,10.79,.27,2.18-.38,4.27-1.02,6.02-2.45,2.05-1.68,2.79-3.84,2.21-6.43-.56-2.53-2.39-3.65-4.75-4.16-1.88-.4-3.78-.36-6.31-.29-.63,0-1.88,0-3.13,0-.47,0-.94-.08-1.38-.25-.87-.34-1-1.06-.31-1.7,.35-.32,.77-.55,1.22-.68,3.11-.9,6.23-.88,9.35-.1,.45,.11,.91,.28,.95,.88v.27l.72,.21,2.07-5.93-.72-.17-.12,.21c-.38,.57-.94,.54-1.54,.45-3.15-.52-6.32-.8-9.51-.38-2.07,.27-4.03,.87-5.72,2.14-1.32,.99-2.24,2.27-2.48,3.93-.43,2.98,1.05,4.98,4.17,5.67Z"/><path class="d" d="M207.05,132.52c1.34-.67,2.41-1.65,3.55-2.6,.61-.51,1.29-1.09,1.99-1.48,.67-.38,1.26,.03,1.26,.82,0,.3-.13,.86-.28,1.11-1.2,2.03-3.06,3.43-5.31,4.15-.4,.13-.78,.14-1.03-.28l-.15-.24-.33,.2,1.84,4.3,.28-.11-.02-.09c-.13-.56,.07-.56,.72-.9,2.04-1.06,3.79-2.38,5.3-4.11,.91-1.04,1.73-2.14,2.01-3.52,.33-1.62-.02-2.92-1.32-3.95-1.27-1-2.61-.81-3.95-.13-1.07,.55-2.05,1.33-3.25,2.36-.3,.25-.86,.7-1.47,1.19-.23,.19-.55,.4-.83,.49-.56,.18-1.08-.06-1.05-.73,.02-.3,.15-.68,.32-.92,1.15-1.66,2.95-3.06,4.77-3.92,.26-.12,.55-.23,.81,.05l.11,.13,.34-.14-1.17-3.53-.37,.18,.02,.15c.04,.43-.24,.64-.57,.82-1.73,.99-3.53,2.19-4.91,3.65-.9,.95-1.61,2.01-1.93,3.29-.25,1-.19,1.98,.35,2.88,.97,1.61,2.47,1.76,4.25,.87Z"/><path class="d" d="M56.89,116.09l-.19,.1c-2.62,1.42-5.34,2.93-7.66,5.6,0,0,0,.02,.36,.33,1.64,1.41,3.34,2.75,5.12,3.98,7.44,5.17,15.62,8.8,24.21,11.6,.39,.13,.55,.17,.55,.17,.01-.69,.53-1.91,3.23-3.14-8.44-4.31-18.11-10.03-25.62-18.64Z"/><path class="d" d="M114.4,34.17l.02-.38c.03-.57,.37-.71,.9-.71l5.95,.12-.12,13.79c0,.45-.02,.88-.6,.9-.37,.01-.49,.01-.49,.01v.8l8.05,.11v-.82h-.35c-.61-.05-.67-.43-.67-.93,.02-2.19,.06-13.85,.06-13.85l6.07,.08c.98,0,.89,1.06,.89,1.06h.72l.1-7.16h-.78s0,.13-.04,.43c-.06,.57-.41,.69-.94,.67,0,0-17.64-.19-17.69-.19-.58,0-.97-.11-1.01-.75v-.36h-.79l-.05,7.18h.78Z"/><path class="d" d="M164.17,150.7l-.07-.23c-.1-.35,.09-.54,.41-.65l3.81-1.16,2.68,8.47c.09,.27,.12,.51-.22,.64-.22,.08-.29,.11-.29,.11l.11,.34,4.71-1.45-.13-.35-.21,.06c-.37,.1-.46-.08-.56-.38-.42-1.31-2.71-8.49-2.71-8.49l3.89-1.24c.58-.19,.74,.45,.74,.45l.28-.08-1.32-4.06-.23,.09s.02,.09,.06,.27c.07,.35-.11,.49-.42,.58,0,0-10.98,3.45-11,3.45-.34,.12-.6,.13-.75-.25l-.08-.24-.27,.09,1.34,4.1,.25-.07Z"/><path class="d" d="M70.06,147.28l.08-.23c.11-.34,.38-.4,.7-.31l3.79,1.2-2.58,8.5c-.08,.27-.19,.49-.55,.4-.22-.06-.3-.08-.3-.08l-.1,.34,4.71,1.47,.09-.36-.21-.07c-.36-.13-.34-.33-.25-.63,.39-1.32,2.57-8.53,2.57-8.53l3.91,1.18c.59,.17,.35,.79,.35,.79l.27,.09,1.21-4.1-.24-.06s-.03,.08-.1,.26c-.14,.33-.37,.34-.68,.24,0,0-11-3.36-11.03-3.37-.35-.1-.57-.23-.48-.63l.07-.24-.27-.08-1.22,4.14,.25,.08Z"/><path class="d" d="M98.47,53.71c1.42-.47,4.02-1.21,5.66-1.64-18.58,2.42-37.07,7.78-51.24,18.24,.81,.32,2.54,1.03,2.54,1.03,2.89-.59,6.51-1.23,9.42-1.67,1.05-.16,2.49-.39,2.49-.39,9.46-6.88,20.18-11.98,31.12-15.57Z"/><path class="d" d="M49.31,101.18c-.55,.88-1.3,1.58-2.46,2.09-1.86,.8-3.24,1.26-4.47,1.62-1.46,.42-2.71,.66-4.58,.74l.52,1.44c1.89,5.04,5.12,9.15,8.85,12.93,.35,.35,.66,.71,1.16,1.15,0,0,1.87-2.62,7.99-5.79,0,0-.16-.18-.4-.47-3.07-3.67-5.68-8.4-6.63-13.71Z"/><path class="d" d="M123.05,144.16c3.54-4.22,6.44-8.49,8.93-12.86,.08-.14,.21-.35,.27-.44-6.36-.26-12.93-.28-19.37,0,.11,.16,.13,.2,.18,.28,2.55,4.47,5.71,9.05,8.99,13.02h1Z"/><path class="d" d="M46.23,132.14c.18-.19,.36-.39,.67-.22,.12,.07,.25,.19,.25,.19l.2-.24c-1.23-1.17-3.47-3.3-4.71-4.46l-.26,.22c.18,.23,.57,.65-.03,.87-1.64,.62-3.4,1.27-5.17,1.95,.63-1.76,1.23-3.46,1.79-5.05,.12-.35,.36-.61,.72-.34,.08,.06,.17,.14,.17,.14l.22-.24-4.58-4.34-.22,.23s.09,.09,.17,.18c.32,.35-.2,.83-.2,.83l-7.23,7.69c-.28,.29-.48,.59-1.13,.06l-.19,.24,3.16,2.97,.19-.22c-.59-.59-.11-.94,.21-1.26,.53-.54,1.26-1.31,1.78-1.86,1.26-1.33,2.53-2.66,3.79-3.99l.12,.08c-1.09,3.12-3.24,9.46-3.24,9.46l9.64-3.85s-4.1,4.36-5.84,6.19c-.45,.47-.63,.72-1.21,.19l-.18,.21,3.53,3.37,.21-.22s-.21-.2-.27-.37c-.09-.25,.03-.45,.18-.61,2.47-2.61,7.47-7.83,7.47-7.83Z"/><path class="d" d="M84.93,134.78c.28,.15,.51,.27,.69,.36,6.45,3.18,16.77,6.69,21.41,7.62,2.12,.43,3.82,.97,4.57,1.02,1.27,.09,3.37,.29,6.06,.24-.21-.09-.35-.16-.49-.22-7.01-2.97-14.3-6.14-22.7-11.2,0,0-5.13,.75-9.52,2.18Z"/><path class="d" d="M144.39,151.24c-2.38-.6-4.72-.37-6.93,.74-2.5,1.25-3.73,3.59-3.43,6.38,.29,2.66,2.02,4.66,4.68,5.35,2.45,.63,4.83,.36,7.06-.82,2.15-1.14,3.32-2.95,3.32-5.44,0-3.12-1.73-5.46-4.7-6.21Zm.92,7.32c-.65,1.93-3.17,2.97-5.35,2.23-1.85-.64-2.8-2.56-2.18-4.39,.5-1.47,2.05-2.44,3.9-2.45,2.68-.02,4.44,2.22,3.63,4.62Z"/><path class="d" d="M118.33,152.24l-5.63-.37-.04,.34c.83,.03,.63,.4,.26,.77-.56,.55-2.13,2.2-2.13,2.2l-1.93-2.68c-.19-.3-.23-.57,.51-.51l.02-.34-5.64-.31-.02,.34s.3,0,.54,.28l4.12,5.93-5.11,5.34c-.4,.41-.76,.38-.76,.38l-.02,.32,5.58,.43,.03-.29c-.57-.08-.82-.27-.29-.83,.65-.68,2.55-2.53,2.55-2.53l1.78,2.8c.77,1.03-.16,.85-.16,.85v.27l5.66,.33,.02-.24s-.43-.11-.84-.72l-4.12-5.98,4.62-4.97s.43-.53,.96-.5l.03-.32Z"/><path class="d" d="M128.94,152.14l-9.16,.04v.36s.77-.05,.78,.55l.15,10.83c0,.39,.15,.77-.65,.77v.31l4.98-.04v-.3s-.3-.03-.48-.13c-.21-.11-.27-.31-.27-.85l-.04-3.58h4.78c1.47-.09,2.76-.61,3.58-1.92,.38-.62,.5-1.37,.52-2.04,.07-2.07-1.44-4-4.18-4Zm-.54,5.46l-4.23,.05v-2.79l3.92-.05c1.2,0,1.72,.64,1.72,1.3,0,.77-.31,1.41-1.41,1.5Z"/><path class="d" d="M62.35,140.46c.53,.29,.47,.4,.15,.73-2.67,2.75-8.07,8.39-8.07,8.39,0,0-.3,.39-.86,.24l-.13,.28,3.86,1.68,.15-.27s-.48-.24-.31-.47l1.66-1.68,5.25,2.3-.07,2.21c0,.25-.22,.23-.63,.16l-.11,.27,4.4,1.85,.09-.25s-.39-.16-.36-.83l.19-11.5c0-.62,.13-.84,.62-.64l.14-.26-5.85-2.46-.13,.26Zm1.89,9.22s-3.08-1.37-4.17-1.84c1.4-1.47,4.2-4.4,4.2-4.4l-.02,6.24Z"/><path class="d" d="M103.41,131.48c5.38,4.59,10.92,8.6,16.83,12.09-2.83-3.5-6.4-8.84-8.44-12.68,0,0-6.16,.36-8.39,.59Z"/><path class="d" d="M83.67,135.31c-4.02,1.7-3.36,2.85-3.36,2.85,5.54,1.7,11.93,3.37,24.32,5.02-8.39-2.24-15.98-5.42-20.5-7.69-.18-.09-.46-.18-.46-.18Z"/><path class="d" d="M102.03,131.62c-1.83,.23-4.21,.49-6.04,.71,0,0,.1,.06,.22,.13,6.43,3.67,10.9,5.87,20.54,10.19-.33-.25-1.02-.69-1.08-.74-4.77-3.1-9.1-6.31-13.4-10.04-.18-.16-.24-.25-.24-.25Z"/><path class="d" d="M37.92,115.28c.3-.3,.66-.4,.77-.74,.14-.44-.04-.52,.08-.97,.08-.32,.18-1.21-.15-1.36-.3-.14-.61-.13-.87,.11-.21,.19-.37,.4-.59,.59-.7,.61-1.44,.52-2.08-.05-.6-.55-.24-1.13,.07-1.66,.3-.51,.71-.97,.91-1.55,.05-.14,.13-.31,0-.44-.13-.13-.3-.05-.44,.01-.62,.26-1.18,.53-1.79,.82-1.15,.55-2-.03-2.29-1.16-.11-.43-.12-.88-.2-1.31-.13-.68-.55-1.21-1.21-1.26-.68-.05-1.15,.45-1.34,1.11-.19,.66-.24,1.37,.49,1.71,.68,.31,.88,.81,.94,1.47,.04,.55,.09,1.1,.37,1.59,.22,.38,1.1,.86,1.08,.51-.06-.84,.8-.15,1.27,.37,1.05,1.15,1.41,2.29,2.44,2.61,.58,.18,1.06,.91,1.55,1.31,.45,.38,.89,.82,1.69,.65-.28-.39-.52-.7-.73-1.02-.3-.48-.35-.95,.03-1.34Z"/><path class="d" d="M26.62,88.53c.37,1.03,1.09,1.12,1.99,.99,.14-.02,.3,.07,.45,.12,1.34,.5,2.37,.19,3.18-.99,.31-.45,.55-.95,.86-1.4,.48-.7,.36-1.05-.48-1.31-.54-.17-1.09-.08-1.63-.07-.15,0-.33,.06-.46,0-.55-.23-1.53-.14-1.86,.3-.57,.76-1.31,.86-2.16,.74-.36-.05-.72-.12-1.09-.13-.88-.03-1.21,.26-1.43,1.11-.24,.9-.12,1.81-.16,2.72-.02,.44-.01,.91-.42,1.21-.66,.49-.68,1.13-.02,1.64,.45,.35,1,.43,1.55,.48,.8,.07,1.03-.24,.82-1.03-.22-.78-.46-1.55-.5-2.39,.02-.67,.24-1.3,.54-1.92,.24-.49,.68-.46,.82-.08Z"/><path class="d" d="M18.3,103.76c.98-.83,1.74-1.86,2.37-2.98,.09-.16,.14-.48,.26-.52,.18-.06,.35,.05,.35,.05,.05-.17,0-.66-.07-.91-.18-.65-.56-.85-1.18-1.16-.31-.15-.61-.08-.68-.17-.08-.1,.47-.23,.19-.39-.98-.57-1.45-.57-1.68-.57-.52,0-.87,.98-.94,1.63-.06,.55,.36,1.35-.71,1.41-.07,0-.16,.15-.18,.24-.15,.67-.54,1.23-.79,1.86-.21,.52-.25,1.05-.02,1.58,1.23,.95,1.88,.94,3.09-.08Zm-.63-2.94c.13-.4,.28-.91,.75-.97,.29-.04,.28,.37,.28,.67-.02,.36-.1,.77-.6,.81-.31,.03-.53-.22-.43-.5Z"/><path class="d" d="M15.22,103.83h0Z"/><polygon class="d" points="15.22 103.84 15.2 103.82 15.2 103.82 15.22 103.84"/><path class="d" d="M28.92,85.03c1.15-.05,2.29-.15,3.43-.22,.89-.05,1.74,.03,2.21,.96,.2,.4,.54,.3,.81,.18,.66-.29-.12-1.93-1.14-2.16-.23-.05-.44-.33-.57-.53-.4-.61-.85-.81-1.54-.74-1.48,.18-1.64,.45-2.16,.62s-.68-.09-1.17,.21c-.34,.21-1.18,1.02-1.04,1.28,.24,.45,.74,.42,1.16,.41Z"/><path class="d" d="M61.61,74.04s.11-.09,.26-.22c1.34-1.15,2.75-2.29,4.43-3.6-2.93,.42-6.46,1.05-9.49,1.64,1.82,.59,3.33,1.28,4.81,2.18Z"/><path class="d" d="M53.45,78.7s.54,2.37,1.04,3.33c.22-.3,1.66-2.19,1.66-2.19-.68-.51-1.6-.9-2.7-1.14Z"/><path class="d" d="M40.18,118.69c.01,.53,.38,1.01,.95,.98,.47-.02,1-.13,1.06-.67,.04-.35-.63-.52-1.17-.55-.17,0-.85-.15-.84,.24Z"/><path class="d" d="M158.15,50.7c-.16,.5-.36,.79-.93,.66l-.32-.08-.24,.73,7.63,2.44,.28-.75-.4-.15c-.39-.16-.55-.4-.4-.85l1.84-5.85,3.33,1.1,2.18,6.87c.14,.46,.12,.88-.54,.78l-.27-.06-.24,.77,7.64,2.45,.29-.75-.21-.09c-.42-.18-.54-.61-.66-1.01-.63-2.04-2.17-7.06-2.17-7.06,0,0,.21,.02,.91-.03,4.82-.34,6.34-3.64,6.55-6.99-.04-1.39-.46-2.59-1.42-3.58-.97-1-2.15-1.69-3.43-2.12-4.75-1.57-9.87-3.21-14.63-4.74l-.27,.75,.33,.13c.61,.21,.54,.61,.38,1.13-1.75,5.43-3.48,10.86-5.19,16.29Zm8.82-8l1.19-3.75s4.27,1.36,6.18,1.98c.29,.1,.58,.24,.84,.4,.86,.52,1.18,1.25,.94,2.11-.26,.93-.83,1.4-1.88,1.39-.5,.02-1.03-.15-1.5-.31-1.68-.54-5.77-1.83-5.77-1.83Z"/><path class="d" d="M151.86,161.58c.07,.32,.05,.66-.31,.76l-.2,.05,.08,.33,4.86-1.01-.08-.34-.36,.05c-.26,.03-.42-.05-.48-.35l-.82-3.9,2.43-.49,3.45,3.18c.22,.21,.31,.52-.08,.67l-.16,.05,.1,.31,4.76-1.01-.14-.35-.14,.02c-.29,.03-.48-.17-.67-.35-.96-.92-3.54-3.31-3.54-3.31,0,0,.4-.07,.67-.25,2.69-1.74,2.38-3.85,1.48-5.74-.44-.75-1.04-1.27-1.86-1.52-.83-.25-1.72-.16-2.55,0-3.07,.58-6.37,1.25-9.43,1.86l.05,.39,.28-.05c.4-.07,.48,.18,.55,.51,.7,3.49,1.4,6.98,2.12,10.47Zm2.15-6.9l-.5-2.67,4.18-.8c.38-.08,.8-.04,.99,0,.56,.11,.87,.41,.98,.9,.11,.52-.14,1.05-.39,1.23-.26,.2-.56,.37-1.16,.53l-4.12,.8Z"/><path class="d" d="M195.76,146.69c.18,.27,.29,.6,0,.82l-.16,.12,.2,.27,4.14-2.74-.2-.28-.32,.18c-.23,.13-.41,.11-.57-.14l-2.21-3.31,2.08-1.36,4.39,1.67c.28,.11,.48,.36,.18,.65l-.14,.1,.21,.25,4.04-2.7-.26-.27-.13,.07c-.26,.13-.51,.02-.75-.07-1.24-.5-4.51-1.76-4.51-1.76,0,0,.34-.22,.53-.48,1.85-2.61,.78-4.45-.76-5.87-.69-.53-1.44-.8-2.29-.72-.87,.08-1.65,.49-2.37,.95-2.63,1.68-5.45,3.52-8.06,5.23l.19,.34,.24-.15c.35-.21,.51,0,.7,.27,1.94,2.98,3.9,5.96,5.86,8.94Zm-.57-7.2l-1.45-2.29,3.59-2.3c.32-.21,.73-.34,.92-.37,.56-.1,.96,.06,1.25,.47,.3,.44,.26,1.02,.1,1.29-.17,.28-.38,.55-.87,.93l-3.53,2.28Z"/><path class="d" d="M152.42,95.81c-.02-1.27-1.02-2.26-2.29-2.27-1.29-.01-2.33,1.04-2.32,2.32,.01,1.27,1.02,2.26,2.29,2.26,1.33,0,2.33-1,2.32-2.31Z"/><path class="d" d="M118.58,105.13s0,.01-.12,.3c-.12,.29-.53,.77-1.16,.77s-1.45-.32-1.45-1.44c0-.84,.03-1.18,.48-1.64,.38-.4,1.11-.46,1.68-.2,.18,.08,.46,.31,.57,.68l1.15-.24c-.03-.24-.2-.54-.38-.74-.59-.66-1.39-.77-2.22-.72-1.64,.1-2.58,1.09-2.55,2.65,.03,1.48,1.04,2.44,2.55,2.49,.88,0,1.64-.13,2.2-.78,.19-.22,.34-.49,.44-.78l-1.19-.35Z"/><path class="d" d="M210.5,86.84c-.17-.03-.36-.01-.54,.03-.63,.16-1.25,.37-1.88,.51-.75,.17-.65,.52-.83,1.35-.12,.54,.38,.69,.76,.83,.99,.38,2.13,.5,2.92,1.27,.15,.14,.66,.26,.66,.26,.05-.49,.47-2.07,.54-2.37,.01-.28-1.12-.87-1.12-.87,.07-.73-.38-.99-.51-1.01Z"/><path class="d" d="M216.73,99.5c-.21-.23-.39-.3-.5-.6-.05-.15-.25-.78-.25-.78,.25-.19,1.08-.18,1.08-.18l.02-.69c-1.12,.44-2.72,1.17-3.74,2.13l.85,.96s.14-.35,.36-.55c.13-.12,.25-.17,.39-.24,.43-.18,.77-.09,1.12,.24,.08,.08,.25,.29,.25,.29,0,0-.91-.07-1.12,1.07l1.02,.12s.38-.23,.71-.58c.41-.42,.18-.82-.19-1.2Z"/><path class="d" d="M216.87,101.96l.57-.26c1.33-.59,1.82-1,2.53,.54,0,.02,.04,.03,.06,.05,.5,.27,.92-.05,1.29-.27,.23-.14,.15-.54-.09-.69-1.96-1.28-3.07-1.3-4.36,.64Z"/><path class="d" d="M218.61,103.35c-.17,.02-.69,.08-.54,.32,.55,.86,.02,1.17,.84,1.88,.37,.32,.81,.45,1.22,.3,.37-.13,.26-.97,.26-1.22,.07-.48-1.56-1.3-1.78-1.28Z"/><path class="d" d="M52.03,85.85s-.51,.23-.62,.87,.14,2.3,.22,2.31,.64-.47,.69-.87-.11-.86-.23-1.22-.06-1.09-.06-1.09Z"/><polygon class="d" points="171.78 102.82 171.78 101.96 167.37 101.96 167.37 101.99 167.37 102.82 167.37 103.93 167.37 104.79 167.37 106.11 167.37 106.97 168.57 106.97 171.78 106.97 171.78 106.11 168.57 106.11 168.57 104.79 171.62 104.79 171.62 103.93 168.57 103.93 168.57 102.82 171.78 102.82"/><polygon class="d" points="148.24 102.82 148.24 101.96 143.83 101.96 143.83 101.99 143.83 102.82 143.83 103.93 143.83 104.79 143.83 106.11 143.83 106.97 145.03 106.97 148.24 106.97 148.24 106.11 145.03 106.11 145.03 104.79 148.09 104.79 148.09 103.93 145.03 103.93 145.03 102.82 148.24 102.82"/><polygon class="d" points="163.54 106.11 163.54 101.99 162.34 101.99 162.34 106.11 162.34 106.97 163.54 106.97 166.48 106.97 166.48 106.11 163.54 106.11"/><rect class="d" x="154.9" y="101.99" width="1.21" height="4.98"/><polygon class="d" points="153.15 101.96 152.77 102.82 151.57 105.57 150.38 102.82 150 101.96 148.77 101.96 149.15 102.82 150.58 106.11 150.95 106.97 150.96 106.99 150.97 106.97 152.18 106.97 152.19 106.99 152.2 106.97 152.57 106.11 154 102.82 154.38 101.96 153.15 101.96"/><path class="d" d="M131.7,106.11l-.37-.81-.14-.31-.98-2.14-.4-.86h-1.32l-.4,.86-.98,2.14-.2,.43-.32,.69-.4,.86h1.24l.4-.86,.12-.26h2.39l.12,.26,.4,.86h1.24l-.4-.86Zm-3.35-1.12l.8-1.74,.8,1.74h-1.6Z"/><polygon class="d" points="158.47 106.11 158.47 101.99 157.26 101.99 157.26 106.11 157.26 106.97 158.47 106.97 161.41 106.97 161.41 106.11 158.47 106.11"/><polygon class="d" points="140.1 106.11 140.1 101.99 138.89 101.99 138.89 106.11 138.89 106.97 140.1 106.97 143.04 106.97 143.04 106.11 140.1 106.11"/><polygon class="d" points="124.36 101.99 124.36 103.96 121.97 103.96 121.97 101.99 120.77 101.99 120.77 106.97 121.97 106.97 121.97 104.82 124.36 104.82 124.36 106.97 125.57 106.97 125.57 101.99 124.36 101.99"/><path class="d" d="M136.12,104.77c1.4,0,1.53-1.15,1.53-1.43s-.05-.58-.42-.92c-.5-.45-1.36-.44-1.36-.44h-3.1v4.98h1.21v-2.02h1c.84,.71,1.7,2.02,1.7,2.02h1.46c-1.07-1.79-2-2.19-2-2.19Zm-.47-.69h-1.69v-1.23h1.4c.12,0,.51,0,.7,.08,.23,.1,.34,.31,.34,.54s-.13,.44-.33,.53c-.18,.08-.43,.09-.43,.09Z"/></g><path class="d" d="M334.93,97.6l.08,.07c.01-.07,.04-.13,.06-.19l-.14,.12Z"/><path class="d" d="M311.61,97.59l-.09-.08c-.02,.07-.04,.14-.05,.21l.15-.13Z"/><path class="d" d="M219.31,148.03c.45,.1,.9,.18,1.35,.26-.33-.18-.69-.29-1.09-.29-.09,0-.17,.02-.26,.03Z"/><path class="d" d="M203.84,161.3c-.55-.23-1.09-.46-1.63-.7,.41,.43,.99,.7,1.63,.7Z"/><path class="d" d="M439.27,34.97c-1.27,0-2.3,1.03-2.3,2.3,0,1.13,.81,2.06,1.87,2.26l2.69-1.9c.02-.12,.04-.24,.04-.36,0-1.27-1.03-2.3-2.3-2.3Z"/><path class="d" d="M439.27,161.3c1.27,0,2.3-1.03,2.3-2.3,0-.07-.01-.14-.02-.21-1.51,.21-3.03,.41-4.54,.64,.2,1.07,1.13,1.88,2.26,1.88Z"/><path class="d" d="M432.26,30.71c-.84-.21-1.67-.41-2.52-.58,.42,.46,1.02,.75,1.69,.75,.3,0,.58-.06,.83-.16Z"/><path class="d" d="M431.42,39.57c1.27,0,2.3-1.03,2.3-2.3s-1.03-2.3-2.3-2.3-2.3,1.03-2.3,2.3,1.03,2.3,2.3,2.3Z"/><path class="d" d="M429.12,45.96c0,.17,.02,.34,.06,.51,.29-.28,.59-.54,.92-.78l2.45-1.73c-.33-.19-.71-.3-1.12-.3-1.27,0-2.3,1.03-2.3,2.3Z"/><path class="d" d="M431.42,161.3c.93,0,1.72-.55,2.09-1.34-1.26,.2-2.52,.39-3.78,.59,.42,.46,1.02,.75,1.69,.75Z"/><path class="d" d="M423.57,30.88c.97,0,1.8-.6,2.14-1.45-1.45-.21-2.92-.37-4.4-.49,.17,1.1,1.12,1.94,2.27,1.94Z"/><path class="d" d="M423.57,39.57c1.27,0,2.3-1.03,2.3-2.3s-1.03-2.3-2.3-2.3-2.3,1.03-2.3,2.3,1.03,2.3,2.3,2.3Z"/><path class="d" d="M425.88,45.96c0-1.27-1.03-2.3-2.3-2.3s-2.3,1.03-2.3,2.3c0,.13,.02,.25,.04,.37,1.46,.16,2.9,.38,4.32,.66,.16-.31,.25-.66,.25-1.03Z"/><path class="d" d="M421.83,166.21c1.05-.09,2.09-.21,3.12-.35-.38-.29-.86-.47-1.38-.47-.7,0-1.32,.32-1.75,.82Z"/><path class="d" d="M415.73,30.88c1.21,0,2.2-.94,2.29-2.13-.78-.03-1.56-.06-2.34-.06-.72,0-1.47,.03-2.23,.08,.1,1.18,1.08,2.11,2.28,2.11Z"/><path class="d" d="M415.73,39.57c1.27,0,2.3-1.03,2.3-2.3s-1.03-2.3-2.3-2.3-2.3,1.03-2.3,2.3,1.03,2.3,2.3,2.3Z"/><path class="d" d="M418.02,46.08s.01-.07,.01-.11c0-1.27-1.03-2.3-2.3-2.3s-2.3,1.03-2.3,2.3c0,.06,.01,.11,.02,.17,.77-.07,1.51-.12,2.23-.12,.79,0,1.57,.02,2.35,.06Z"/><path class="d" d="M415.73,165.39c-.81,0-1.52,.42-1.93,1.05,.64,.04,1.26,.05,1.87,.05,.67,0,1.33-.03,1.99-.05-.41-.64-1.12-1.06-1.93-1.06Z"/><path class="d" d="M407.88,30.88c1.08,0,1.98-.75,2.23-1.76-1.33,.2-2.69,.46-4.1,.79,.42,.58,1.1,.97,1.87,.97Z"/><path class="d" d="M407.88,39.57c1.27,0,2.3-1.03,2.3-2.3s-1.03-2.3-2.3-2.3-2.3,1.03-2.3,2.3,1.03,2.3,2.3,2.3Z"/><path class="d" d="M410.18,45.96c0-1.27-1.03-2.3-2.3-2.3s-2.3,1.03-2.3,2.3c0,.67,.29,1.27,.75,1.69,1.29-.4,2.54-.74,3.74-.99,.07-.22,.12-.45,.12-.7Z"/><path class="d" d="M407.16,165.52c.74,.16,1.47,.3,2.19,.42-.4-.33-.91-.54-1.47-.54-.25,0-.49,.05-.72,.13Z"/><path class="d" d="M400.03,39.57c1.27,0,2.3-1.03,2.3-2.3s-1.03-2.3-2.3-2.3-2.3,1.03-2.3,2.3,1.03,2.3,2.3,2.3Z"/><path class="d" d="M400.03,48.27c1.27,0,2.3-1.03,2.3-2.3s-1.03-2.3-2.3-2.3-2.3,1.03-2.3,2.3,1.03,2.3,2.3,2.3Z"/><path class="d" d="M392.19,39.57c1.27,0,2.3-1.03,2.3-2.3s-1.03-2.3-2.3-2.3-2.3,1.03-2.3,2.3,1.03,2.3,2.3,2.3Z"/><path class="d" d="M392.19,48.27c1.27,0,2.3-1.03,2.3-2.3s-1.03-2.3-2.3-2.3-2.3,1.03-2.3,2.3,1.03,2.3,2.3,2.3Z"/><path class="d" d="M392.19,52.36c-1.27,0-2.3,1.03-2.3,2.3,0,.16,.02,.31,.05,.46,1.31-.75,2.6-1.45,3.86-2.11-.41-.4-.98-.65-1.6-.65Z"/><path class="d" d="M386.64,37.35c-1.17,.59-2.34,1.2-3.54,1.85,.36,.23,.78,.37,1.24,.37,1.24,0,2.25-.99,2.29-2.22Z"/><path class="d" d="M384.34,48.27c1.27,0,2.3-1.03,2.3-2.3s-1.03-2.3-2.3-2.3-2.3,1.03-2.3,2.3,1.03,2.3,2.3,2.3Z"/><circle class="d" cx="384.34" cy="54.66" r="2.3"/><path class="d" d="M382.55,151.73l-.48-1.75c-.01,.1-.03,.21-.03,.32,0,.54,.2,1.03,.51,1.43Z"/><path class="d" d="M376.5,48.27c1.27,0,2.3-1.03,2.3-2.3s-1.03-2.3-2.3-2.3-2.3,1.03-2.3,2.3,1.03,2.3,2.3,2.3Z"/><circle class="d" cx="376.5" cy="54.66" r="2.3"/><path class="d" d="M376.5,61.05c-1.27,0-2.3,1.03-2.3,2.3,0,.59,.23,1.12,.59,1.53,1.27-.9,2.51-1.76,3.74-2.59-.39-.73-1.14-1.24-2.03-1.24Z"/><path class="d" d="M375.49,130.85c-.76,.37-1.29,1.15-1.29,2.06,0,1.27,1.03,2.3,2.3,2.3,.53,0,1.01-.19,1.4-.49l-.74-2.72c-.56-.38-1.1-.75-1.67-1.15Z"/><path class="d" d="M376.5,139.31c-1.27,0-2.3,1.03-2.3,2.3s1.03,2.3,2.3,2.3,2.3-1.03,2.3-2.3-1.03-2.3-2.3-2.3Z"/><path class="d" d="M378.8,150.3c0-1.27-1.03-2.3-2.3-2.3s-2.3,1.03-2.3,2.3c0,.18,.03,.35,.06,.52,.94,.58,1.87,1.15,2.79,1.71,1-.25,1.75-1.15,1.75-2.23Z"/><path class="d" d="M370.88,46.52c-.86,.56-1.72,1.13-2.59,1.71,.12,.02,.24,.04,.36,.04,1.08,0,1.98-.75,2.23-1.75Z"/><circle class="d" cx="368.65" cy="54.66" r="2.3"/><circle class="d" cx="368.65" cy="63.35" r="2.3"/><path class="d" d="M366.68,70.88c.46-.35,.91-.69,1.36-1.04-.58,.16-1.06,.53-1.36,1.04Z"/><path class="d" d="M366.35,124.22c0,1.27,1.03,2.3,2.3,2.3,.24,0,.47-.05,.69-.12-.99-.74-1.98-1.49-2.98-2.26,0,.03,0,.05,0,.07Z"/><path class="d" d="M368.65,130.61c-1.27,0-2.3,1.03-2.3,2.3s1.03,2.3,2.3,2.3,2.3-1.03,2.3-2.3-1.03-2.3-2.3-2.3Z"/><path class="d" d="M368.65,139.31c-1.27,0-2.3,1.03-2.3,2.3s1.03,2.3,2.3,2.3,2.3-1.03,2.3-2.3-1.03-2.3-2.3-2.3Z"/><path class="d" d="M360.8,56.96c1.27,0,2.3-1.03,2.3-2.3,0-.86-.48-1.61-1.18-2-1.12,.8-2.24,1.62-3.37,2.47,.22,1.05,1.14,1.84,2.25,1.84Z"/><path class="d" d="M360.8,65.66c1.27,0,2.3-1.03,2.3-2.3s-1.03-2.3-2.3-2.3-2.3,1.03-2.3,2.3,1.03,2.3,2.3,2.3Z"/><path class="d" d="M360.8,74.35c1.27,0,2.3-1.03,2.3-2.3s-1.03-2.3-2.3-2.3-2.3,1.03-2.3,2.3,1.03,2.3,2.3,2.3Z"/><path class="d" d="M360.8,121.92c-1.27,0-2.3,1.03-2.3,2.3s1.03,2.3,2.3,2.3,2.3-1.03,2.3-2.3-1.03-2.3-2.3-2.3Z"/><path class="d" d="M360.8,130.61c-1.27,0-2.3,1.03-2.3,2.3s1.03,2.3,2.3,2.3,2.3-1.03,2.3-2.3-1.03-2.3-2.3-2.3Z"/><path class="d" d="M360.8,139.31c-.79,0-1.49,.4-1.91,1.01,1.25,.92,2.48,1.82,3.71,2.7,.31-.39,.49-.88,.49-1.41,0-1.27-1.03-2.3-2.3-2.3Z"/><path class="d" d="M352.96,65.66c1.27,0,2.3-1.03,2.3-2.3s-1.03-2.3-2.3-2.3-2.3,1.03-2.3,2.3,1.03,2.3,2.3,2.3Z"/><path class="d" d="M352.96,74.35c1.27,0,2.3-1.03,2.3-2.3s-1.03-2.3-2.3-2.3-2.3,1.03-2.3,2.3,1.03,2.3,2.3,2.3Z"/><path class="d" d="M352.96,78.44c-1.27,0-2.3,1.03-2.3,2.3,0,.92,.54,1.7,1.31,2.07,1.07-.92,2.14-1.81,3.19-2.7-.27-.97-1.15-1.68-2.21-1.68Z"/><path class="d" d="M350.65,115.52c0,1.27,1.03,2.3,2.3,2.3s2.3-1.03,2.3-2.3c0-.11-.02-.21-.03-.32-.78-.65-1.56-1.31-2.34-1.98-1.24,.04-2.23,1.05-2.23,2.29Z"/><path class="d" d="M352.96,121.92c-1.27,0-2.3,1.03-2.3,2.3s1.03,2.3,2.3,2.3,2.3-1.03,2.3-2.3-1.03-2.3-2.3-2.3Z"/><path class="d" d="M355.26,132.91c0-1.27-1.03-2.3-2.3-2.3s-2.3,1.03-2.3,2.3c0,.59,.23,1.13,.6,1.54,.19,.15,.39,.31,.58,.46,.33,.19,.71,.3,1.12,.3,1.27,0,2.3-1.03,2.3-2.3Z"/><path class="d" d="M347.34,63.89c-.71,.58-1.42,1.17-2.13,1.76,1.04-.05,1.9-.78,2.13-1.76Z"/><path class="d" d="M345.11,74.35c1.27,0,2.3-1.03,2.3-2.3s-1.03-2.3-2.3-2.3-2.3,1.03-2.3,2.3,1.03,2.3,2.3,2.3Z"/><path class="d" d="M345.11,83.05c1.27,0,2.3-1.03,2.3-2.3s-1.03-2.3-2.3-2.3-2.3,1.03-2.3,2.3,1.03,2.3,2.3,2.3Z"/><path class="d" d="M345.11,87.14c-1.27,0-2.3,1.03-2.3,2.3,0,.39,.11,.75,.28,1.07l3.37-2.93c-.38-.28-.84-.44-1.35-.44Z"/><path class="d" d="M342.81,106.83c0,1.27,1.03,2.3,2.3,2.3,.78,0,1.47-.39,1.89-.99l-3.44-3c-.46,.42-.75,1.02-.75,1.69Z"/><path class="d" d="M345.11,113.22c-1.27,0-2.3,1.03-2.3,2.3s1.03,2.3,2.3,2.3,2.3-1.03,2.3-2.3-1.03-2.3-2.3-2.3Z"/><path class="d" d="M345.11,121.92c-1.27,0-2.3,1.03-2.3,2.3s1.03,2.3,2.3,2.3,2.3-1.03,2.3-2.3-1.03-2.3-2.3-2.3Z"/><path class="d" d="M339.56,72.05c0-.47-.14-.9-.38-1.27-1.13,.99-2.27,1.99-3.41,3.01,.4,.35,.92,.56,1.49,.56,1.27,0,2.3-1.03,2.3-2.3Z"/><path class="d" d="M337.26,83.05c1.27,0,2.3-1.03,2.3-2.3s-1.03-2.3-2.3-2.3-2.3,1.03-2.3,2.3,1.03,2.3,2.3,2.3Z"/><path class="d" d="M337.26,91.74c1.27,0,2.3-1.03,2.3-2.3s-1.03-2.3-2.3-2.3-2.3,1.03-2.3,2.3,1.03,2.3,2.3,2.3Z"/><path class="d" d="M335.07,97.47l1.85-1.61c-.89,.13-1.6,.77-1.85,1.61Z"/><path class="d" d="M334.96,98.13c0,1.27,1.03,2.3,2.3,2.3,.27,0,.52-.05,.76-.14l-3.01-2.63c-.03,.15-.05,.31-.05,.46Z"/><path class="d" d="M337.26,104.53c-1.27,0-2.3,1.03-2.3,2.3s1.03,2.3,2.3,2.3,2.3-1.03,2.3-2.3-1.03-2.3-2.3-2.3Z"/><path class="d" d="M337.26,113.22c-1.27,0-2.3,1.03-2.3,2.3s1.03,2.3,2.3,2.3,2.3-1.03,2.3-2.3-1.03-2.3-2.3-2.3Z"/><path class="d" d="M337.26,121.92c-.27,0-.52,.05-.76,.14,1.01,.89,2.01,1.77,3.01,2.64,.03-.15,.05-.31,.05-.48,0-1.27-1.03-2.3-2.3-2.3Z"/><path class="d" d="M329.42,83.05c1.27,0,2.3-1.03,2.3-2.3,0-.93-.56-1.74-1.36-2.1l-3.12,2.81c.3,.92,1.16,1.59,2.18,1.59Z"/><path class="d" d="M329.42,87.14c-1.27,0-2.3,1.03-2.3,2.3s1.03,2.3,2.3,2.3,2.3-1.03,2.3-2.3-1.03-2.3-2.3-2.3Z"/><path class="d" d="M329.42,95.83c-1.27,0-2.3,1.03-2.3,2.3s1.03,2.3,2.3,2.3,2.3-1.03,2.3-2.3-1.03-2.3-2.3-2.3Z"/><path class="d" d="M329.42,104.53c-1.27,0-2.3,1.03-2.3,2.3s1.03,2.3,2.3,2.3,2.3-1.03,2.3-2.3-1.03-2.3-2.3-2.3Z"/><path class="d" d="M329.42,113.22c-.72,0-1.36,.34-1.78,.86l3.41,3.07c.42-.42,.68-.99,.68-1.63,0-1.27-1.03-2.3-2.3-2.3Z"/><path class="d" d="M320.87,82.93l-1.4-1.25c.26,.59,.78,1.05,1.4,1.25Z"/><circle class="d" cx="321.57" cy="89.44" r="2.3"/><path class="d" d="M321.57,95.83c-1.27,0-2.3,1.03-2.3,2.3s1.03,2.3,2.3,2.3,2.3-1.03,2.3-2.3-1.03-2.3-2.3-2.3Z"/><path class="d" d="M321.57,104.53c-1.27,0-2.3,1.03-2.3,2.3s1.03,2.3,2.3,2.3,2.3-1.03,2.3-2.3-1.03-2.3-2.3-2.3Z"/><path class="d" d="M313.72,78.44c-1.27,0-2.3,1.03-2.3,2.3s1.03,2.3,2.3,2.3,2.3-1.03,2.3-2.3-1.03-2.3-2.3-2.3Z"/><circle class="d" cx="313.72" cy="89.44" r="2.3"/><path class="d" d="M311.46,97.72c-.02,.13-.04,.27-.04,.41,0,1.27,1.03,2.3,2.3,2.3s2.3-1.03,2.3-2.3-1.03-2.3-2.3-2.3c-1.06,0-1.94,.71-2.21,1.68l.09,.08-.15,.13Z"/><path class="d" d="M313.72,104.53c-1.27,0-2.3,1.03-2.3,2.3s1.03,2.3,2.3,2.3,2.3-1.03,2.3-2.3-1.03-2.3-2.3-2.3Z"/><circle class="d" cx="313.72" cy="115.52" r="2.3"/><path class="d" d="M303.57,72.05c0,1.27,1.03,2.3,2.3,2.3s2.3-1.03,2.3-2.3c0-.14-.02-.27-.04-.41-.73-.63-1.46-1.27-2.19-1.89-.02,0-.04,0-.07,0-1.27,0-2.3,1.03-2.3,2.3Z"/><path class="d" d="M305.88,78.44c-1.27,0-2.3,1.03-2.3,2.3s1.03,2.3,2.3,2.3,2.3-1.03,2.3-2.3-1.03-2.3-2.3-2.3Z"/><circle class="d" cx="305.88" cy="89.44" r="2.3"/><path class="d" d="M305.88,104.53c-1.27,0-2.3,1.03-2.3,2.3s1.03,2.3,2.3,2.3,2.3-1.03,2.3-2.3-1.03-2.3-2.3-2.3Z"/><circle class="d" cx="305.88" cy="115.52" r="2.3"/><path class="d" d="M305.88,121.92c-1.27,0-2.3,1.03-2.3,2.3,0,.93,.55,1.72,1.34,2.08,1.05-.89,2.11-1.79,3.17-2.71-.27-.96-1.15-1.67-2.2-1.67Z"/><path class="d" d="M298.03,65.66c.77,0,1.44-.38,1.86-.96-1.2-.98-2.39-1.93-3.57-2.87-.36,.41-.59,.94-.59,1.53,0,1.27,1.03,2.3,2.3,2.3Z"/><path class="d" d="M298.03,69.75c-1.27,0-2.3,1.03-2.3,2.3s1.03,2.3,2.3,2.3,2.3-1.03,2.3-2.3-1.03-2.3-2.3-2.3Z"/><path class="d" d="M298.03,78.44c-1.27,0-2.3,1.03-2.3,2.3s1.03,2.3,2.3,2.3,2.3-1.03,2.3-2.3-1.03-2.3-2.3-2.3Z"/><path class="d" d="M300.26,107.37l-2.02,1.74c.99-.09,1.79-.8,2.02-1.74Z"/><path class="d" d="M298.03,113.22c-1.27,0-2.3,1.03-2.3,2.3s1.03,2.3,2.3,2.3,2.3-1.03,2.3-2.3-1.03-2.3-2.3-2.3Z"/><path class="d" d="M298.03,121.92c-1.27,0-2.3,1.03-2.3,2.3s1.03,2.3,2.3,2.3,2.3-1.03,2.3-2.3-1.03-2.3-2.3-2.3Z"/><path class="d" d="M295.73,132.91c0,.28,.06,.54,.15,.79,1.13-.89,2.26-1.8,3.4-2.72-.36-.23-.79-.37-1.25-.37-1.27,0-2.3,1.03-2.3,2.3Z"/><path class="d" d="M290,56.94c-.65-.49-1.31-.99-1.96-1.47,.31,.81,1.06,1.39,1.96,1.47Z"/><path class="d" d="M290.18,61.05c-1.27,0-2.3,1.03-2.3,2.3s1.03,2.3,2.3,2.3,2.3-1.03,2.3-2.3-1.03-2.3-2.3-2.3Z"/><path class="d" d="M290.18,69.75c-1.27,0-2.3,1.03-2.3,2.3s1.03,2.3,2.3,2.3,2.3-1.03,2.3-2.3-1.03-2.3-2.3-2.3Z"/><path class="d" d="M292.49,80.74c0-1.27-1.03-2.3-2.3-2.3-.29,0-.56,.06-.82,.16,1.02,.83,2.05,1.69,3.08,2.55,.02-.13,.04-.26,.04-.4Z"/><path class="d" d="M290.18,117.83c1.27,0,2.3-1.03,2.3-2.3,0-.45-.13-.87-.36-1.22-1.18,.98-2.35,1.95-3.52,2.89,.41,.39,.96,.63,1.57,.63Z"/><path class="d" d="M290.18,121.92c-1.27,0-2.3,1.03-2.3,2.3s1.03,2.3,2.3,2.3,2.3-1.03,2.3-2.3-1.03-2.3-2.3-2.3Z"/><path class="d" d="M290.18,130.61c-1.27,0-2.3,1.03-2.3,2.3s1.03,2.3,2.3,2.3,2.3-1.03,2.3-2.3-1.03-2.3-2.3-2.3Z"/><path class="d" d="M282.34,52.36c-1.27,0-2.3,1.03-2.3,2.3s1.03,2.3,2.3,2.3,2.3-1.03,2.3-2.3-1.03-2.3-2.3-2.3Z"/><path class="d" d="M282.34,61.05c-1.27,0-2.3,1.03-2.3,2.3s1.03,2.3,2.3,2.3,2.3-1.03,2.3-2.3-1.03-2.3-2.3-2.3Z"/><path class="d" d="M284.64,72.05c0-1.27-1.03-2.3-2.3-2.3-1.02,0-1.87,.67-2.18,1.59,1.13,.86,2.28,1.74,3.43,2.65,.63-.41,1.05-1.12,1.05-1.93Z"/><path class="d" d="M280.03,124.22c0,1.27,1.03,2.3,2.3,2.3s2.3-1.03,2.3-2.3c0-1.17-.87-2.12-2-2.27-.86,.67-1.72,1.33-2.57,1.98-.01,.1-.03,.19-.03,.3Z"/><path class="d" d="M282.34,130.61c-1.27,0-2.3,1.03-2.3,2.3s1.03,2.3,2.3,2.3,2.3-1.03,2.3-2.3-1.03-2.3-2.3-2.3Z"/><path class="d" d="M282.34,139.31c-1.27,0-2.3,1.03-2.3,2.3s.97,2.22,2.18,2.29c.77-.54,1.55-1.09,2.32-1.65,.06-.21,.1-.42,.1-.64,0-1.27-1.03-2.3-2.3-2.3Z"/><path class="d" d="M274.49,48.27c.76,0,1.44-.38,1.86-.95-1.3-.85-2.58-1.67-3.86-2.46-.18,.33-.3,.71-.3,1.11,0,1.27,1.03,2.3,2.3,2.3Z"/><path class="d" d="M274.49,52.36c-1.27,0-2.3,1.03-2.3,2.3s1.03,2.3,2.3,2.3,2.3-1.03,2.3-2.3-1.03-2.3-2.3-2.3Z"/><path class="d" d="M274.49,61.05c-1.27,0-2.3,1.03-2.3,2.3s1.03,2.3,2.3,2.3,2.3-1.03,2.3-2.3-1.03-2.3-2.3-2.3Z"/><path class="d" d="M274.49,130.61c-1.27,0-2.3,1.03-2.3,2.3s1.03,2.3,2.3,2.3,2.3-1.03,2.3-2.3-1.03-2.3-2.3-2.3Z"/><path class="d" d="M274.49,139.31c-1.27,0-2.3,1.03-2.3,2.3s1.03,2.3,2.3,2.3,2.3-1.03,2.3-2.3-1.03-2.3-2.3-2.3Z"/><path class="d" d="M272.19,150.3c0,.07,.01,.14,.02,.2,1.14-.71,2.28-1.43,3.44-2.18-.34-.2-.73-.32-1.15-.32-1.27,0-2.3,1.03-2.3,2.3Z"/><path class="d" d="M266.64,43.66c-1.27,0-2.3,1.03-2.3,2.3s1.03,2.3,2.3,2.3,2.3-1.03,2.3-2.3-1.03-2.3-2.3-2.3Z"/><path class="d" d="M266.64,52.36c-1.27,0-2.3,1.03-2.3,2.3s1.03,2.3,2.3,2.3,2.3-1.03,2.3-2.3-1.03-2.3-2.3-2.3Z"/><path class="d" d="M266.64,61.05c-.27,0-.52,.05-.75,.14,1,.66,2.02,1.33,3.04,2.03-.07-1.21-1.06-2.17-2.29-2.17Z"/><path class="d" d="M266.64,135.22c1.27,0,2.3-1.03,2.3-2.3,0-.3-.06-.59-.17-.85-1.27,.86-2.52,1.69-3.75,2.49,.42,.41,.98,.66,1.61,.66Z"/><path class="d" d="M266.64,139.31c-1.27,0-2.3,1.03-2.3,2.3s1.03,2.3,2.3,2.3,2.3-1.03,2.3-2.3-1.03-2.3-2.3-2.3Z"/><path class="d" d="M266.64,148c-1.27,0-2.3,1.03-2.3,2.3s1.03,2.3,2.3,2.3,2.3-1.03,2.3-2.3-1.03-2.3-2.3-2.3Z"/><path class="d" d="M258.8,39.57c.94,0,1.75-.57,2.1-1.37-1.39-.72-2.76-1.4-4.11-2.04-.18,.33-.3,.71-.3,1.11,0,1.27,1.03,2.3,2.3,2.3Z"/><path class="d" d="M258.8,43.66c-1.27,0-2.3,1.03-2.3,2.3s1.03,2.3,2.3,2.3,2.3-1.03,2.3-2.3-1.03-2.3-2.3-2.3Z"/><path class="d" d="M261.1,54.66c0-1.27-1.03-2.3-2.3-2.3s-2.3,1.03-2.3,2.3c0,.3,.06,.59,.17,.86,.8,.46,1.61,.93,2.43,1.42,1.13-.15,2-1.1,2-2.27Z"/><path class="d" d="M258.8,139.31c-1.27,0-2.3,1.03-2.3,2.3s1.03,2.3,2.3,2.3,2.3-1.03,2.3-2.3-1.03-2.3-2.3-2.3Z"/><circle class="d" cx="258.8" cy="150.3" r="2.3"/><path class="d" d="M256.49,159c0,.06,.01,.11,.02,.16,1.25-.59,2.52-1.22,3.81-1.88-.41-.36-.94-.59-1.52-.59-1.27,0-2.3,1.03-2.3,2.3Z"/><path class="d" d="M250.95,34.97c-1.27,0-2.3,1.03-2.3,2.3s1.03,2.3,2.3,2.3,2.3-1.03,2.3-2.3-1.03-2.3-2.3-2.3Z"/><path class="d" d="M250.95,43.66c-1.27,0-2.3,1.03-2.3,2.3s1.03,2.3,2.3,2.3,2.3-1.03,2.3-2.3-1.03-2.3-2.3-2.3Z"/><path class="d" d="M250.95,52.36c-.05,0-.1,.01-.15,.01,.69,.35,1.39,.71,2.1,1.08-.41-.65-1.13-1.09-1.95-1.09Z"/><path class="d" d="M250.95,143.91c1.27,0,2.3-1.03,2.3-2.3,0-.02,0-.04,0-.06-1.26,.67-2.49,1.3-3.69,1.88,.39,.3,.87,.48,1.4,.48Z"/><circle class="d" cx="250.95" cy="150.3" r="2.3"/><path class="d" d="M250.95,156.7c-1.27,0-2.3,1.03-2.3,2.3s1.03,2.3,2.3,2.3,2.3-1.03,2.3-2.3-1.03-2.3-2.3-2.3Z"/><path class="d" d="M243.28,30.86c-.52-.15-1.04-.31-1.55-.45,.38,.29,.86,.46,1.37,.46,.06,0,.12-.01,.18-.02Z"/><path class="d" d="M243.1,34.97c-1.27,0-2.3,1.03-2.3,2.3s1.03,2.3,2.3,2.3,2.3-1.03,2.3-2.3-1.03-2.3-2.3-2.3Z"/><path class="d" d="M243.1,43.66c-1.27,0-2.3,1.03-2.3,2.3s1.03,2.3,2.3,2.3,2.3-1.03,2.3-2.3-1.03-2.3-2.3-2.3Z"/><circle class="d" cx="243.1" cy="150.3" r="2.3"/><path class="d" d="M243.1,156.7c-1.27,0-2.3,1.03-2.3,2.3s1.03,2.3,2.3,2.3,2.3-1.03,2.3-2.3-1.03-2.3-2.3-2.3Z"/><path class="d" d="M235.26,30.88c.97,0,1.8-.6,2.14-1.46-1.52-.28-2.99-.48-4.41-.6,.12,1.15,1.09,2.06,2.28,2.06Z"/><path class="d" d="M235.26,34.97c-1.27,0-2.3,1.03-2.3,2.3s1.03,2.3,2.3,2.3,2.3-1.03,2.3-2.3-1.03-2.3-2.3-2.3Z"/><path class="d" d="M237.56,45.96c0-1.27-1.03-2.3-2.3-2.3s-2.3,1.03-2.3,2.3c0,.08,.02,.16,.02,.25,1.35,.17,2.79,.44,4.3,.83,.17-.32,.28-.69,.28-1.08Z"/><path class="d" d="M232.95,150.3c0,1.27,1.03,2.3,2.3,2.3s2.3-1.03,2.3-2.3c0-.84-.45-1.56-1.12-1.97-1.04,.24-2.04,.43-3,.57-.3,.39-.48,.87-.48,1.4Z"/><path class="d" d="M235.26,156.7c-1.27,0-2.3,1.03-2.3,2.3s1.03,2.3,2.3,2.3,2.3-1.03,2.3-2.3-1.03-2.3-2.3-2.3Z"/><path class="d" d="M233.41,166.33c1.06-.1,2.15-.25,3.26-.44-.39-.31-.88-.5-1.41-.5-.76,0-1.43,.37-1.85,.94Z"/><path class="d" d="M227.41,30.88c1.23,0,2.23-.97,2.29-2.18-1.53,0-3.05,.08-4.56,.19,.15,1.13,1.1,2,2.27,2Z"/><path class="d" d="M227.41,34.97c-1.27,0-2.3,1.03-2.3,2.3s1.03,2.3,2.3,2.3,2.3-1.03,2.3-2.3-1.03-2.3-2.3-2.3Z"/><path class="d" d="M229.71,45.96c0-1.27-1.03-2.3-2.3-2.3s-2.3,1.03-2.3,2.3c0,.1,.02,.2,.03,.29,1.51-.14,3.03-.22,4.57-.23,0-.02,0-.04,0-.06Z"/><path class="d" d="M225.11,150.3c0,1.27,1.03,2.3,2.3,2.3s2.3-1.03,2.3-2.3c0-.42-.12-.81-.32-1.15-1.29-.02-2.57-.08-3.84-.19-.28,.38-.44,.84-.44,1.35Z"/><path class="d" d="M227.41,156.7c-1.27,0-2.3,1.03-2.3,2.3s1.03,2.3,2.3,2.3,2.3-1.03,2.3-2.3-1.03-2.3-2.3-2.3Z"/><path class="d" d="M227.41,165.39c-.76,0-1.43,.37-1.85,.94,1.26,.08,2.52,.13,3.8,.15-.41-.65-1.12-1.09-1.95-1.09Z"/><path class="d" d="M219.56,30.88c1.05,0,1.93-.71,2.2-1.67-1.39,.17-2.77,.38-4.13,.63,.41,.63,1.12,1.05,1.93,1.05Z"/><path class="d" d="M219.56,34.97c-1.27,0-2.3,1.03-2.3,2.3s1.03,2.3,2.3,2.3,2.3-1.03,2.3-2.3-1.03-2.3-2.3-2.3Z"/><path class="d" d="M221.87,45.96c0-1.27-1.03-2.3-2.3-2.3s-2.3,1.03-2.3,2.3c0,.59,.23,1.12,.59,1.53,1.28-.31,2.57-.58,3.88-.79,.08-.23,.13-.48,.13-.74Z"/><path class="d" d="M217.26,150.3c0,1.27,1.03,2.3,2.3,2.3s2.3-1.03,2.3-2.3c0-.87-.49-1.62-1.21-2.01-.45-.08-.9-.17-1.35-.26-1.15,.13-2.05,1.09-2.05,2.28Z"/><path class="d" d="M219.56,156.7c-1.27,0-2.3,1.03-2.3,2.3s1.03,2.3,2.3,2.3,2.3-1.03,2.3-2.3-1.03-2.3-2.3-2.3Z"/><path class="d" d="M218.74,165.55c.74,.12,1.48,.23,2.23,.33-.39-.3-.87-.49-1.4-.49-.29,0-.57,.06-.83,.16Z"/><path class="d" d="M211.72,34.97c-1.27,0-2.3,1.03-2.3,2.3s1.03,2.3,2.3,2.3,2.3-1.03,2.3-2.3-1.03-2.3-2.3-2.3Z"/><path class="d" d="M211.72,43.66c-.21,0-.42,.04-.61,.09,.97,.62,1.93,1.27,2.89,1.93-.14-1.14-1.1-2.02-2.27-2.02Z"/><path class="d" d="M211.72,152.61c1.27,0,2.3-1.03,2.3-2.3,0-.25-.05-.49-.12-.71-1.22,.84-2.45,1.65-3.7,2.43,.41,.36,.94,.59,1.52,.59Z"/><path class="d" d="M211.72,156.7c-1.27,0-2.3,1.03-2.3,2.3s1.03,2.3,2.3,2.3,2.3-1.03,2.3-2.3-1.03-2.3-2.3-2.3Z"/><path class="d" d="M206.17,37.27c0-1.27-1.03-2.3-2.3-2.3s-2.3,1.03-2.3,2.3c0,.45,.14,.87,.36,1.23,.68,.35,1.36,.7,2.04,1.06,1.23-.05,2.21-1.05,2.21-2.29Z"/><path class="d" d="M203.87,39.57s.06,0,.1,0c-.67-.36-1.36-.71-2.04-1.06,.41,.64,1.12,1.07,1.94,1.07Z"/><path class="d" d="M206.17,159c0-1.27-1.03-2.3-2.3-2.3s-2.3,1.03-2.3,2.3c0,.62,.25,1.18,.65,1.6,.54,.24,1.08,.48,1.63,.7,0,0,.02,0,.03,0,1.27,0,2.3-1.03,2.3-2.3Z"/><path class="d" d="M198.2,36.53s-.08,.04-.12,.06c.05,.02,.1,.05,.15,.07-.01-.04-.02-.09-.04-.13Z"/><path class="d" d="M198.08,158.58c.07,.04,.14,.08,.21,.12,0-.07-.03-.13-.04-.2-.06,.03-.11,.05-.17,.08Z"/><g><rect class="d" x="483.74" y="165.69" width="1.08" height=".28"/><polygon class="d" points="487.2 165.63 488.34 165.63 488.34 165.32 487.2 165.32 487.2 164.39 488.4 164.39 488.4 164.07 486.82 164.07 486.82 167.01 488.47 167.01 488.47 166.69 487.2 166.69 487.2 165.63"/><path class="d" d="M490.15,165.35c-.41-.16-.58-.29-.58-.57,0-.2,.15-.44,.55-.44,.27,0,.46,.09,.56,.14l.1-.31c-.13-.07-.35-.14-.65-.14-.57,0-.95,.34-.95,.8,0,.41,.3,.66,.78,.83,.4,.15,.55,.31,.55,.58,0,.3-.23,.5-.62,.5-.26,0-.51-.09-.68-.19l-.1,.32c.16,.1,.47,.19,.75,.19,.69,0,1.03-.39,1.03-.85s-.25-.67-.75-.86Z"/><polygon class="d" points="493.57 164.07 491.39 164.07 491.39 164.4 492.29 164.4 492.29 167.01 492.67 167.01 492.67 164.4 493.57 164.4 493.57 164.07"/><path class="d" d="M496.19,166.62c.27-.27,.42-.66,.42-1.14s-.15-.82-.41-1.06c-.26-.24-.65-.37-1.19-.37-.3,0-.58,.03-.81,.06v2.89c.19,.02,.42,.03,.69,.03,.57,0,1.03-.15,1.3-.42Zm-1.61-2.22c.1-.02,.25-.04,.44-.04,.8,0,1.2,.44,1.19,1.13,0,.79-.44,1.25-1.25,1.25-.15,0-.29,0-.38-.02v-2.32Z"/><path class="d" d="M500.32,166.69h-1.27l.23-.22c.6-.58,.98-1,.98-1.52,0-.41-.26-.82-.87-.82-.33,0-.61,.12-.8,.29l.12,.27c.13-.11,.34-.24,.6-.24,.42,0,.56,.27,.56,.55,0,.43-.33,.79-1.06,1.48l-.3,.29v.24h1.81v-.32Z"/><path class="d" d="M501.95,167.06c.63,0,.99-.53,.99-1.5,0-.9-.34-1.44-.94-1.44s-.99,.52-.99,1.47c0,.94,.38,1.46,.94,1.46Zm.03-2.64c.4,0,.58,.46,.58,1.16s-.19,1.18-.58,1.18c-.35,0-.58-.42-.58-1.16s.24-1.18,.58-1.18Z"/><polygon class="d" points="504.42 164.53 504.43 164.53 504.43 167.01 504.8 167.01 504.8 164.18 504.48 164.18 503.86 164.51 503.93 164.8 504.42 164.53"/><polygon class="d" points="507.58 164.5 506.35 167.01 506.75 167.01 507.99 164.43 507.99 164.18 506.2 164.18 506.2 164.5 507.58 164.5 507.58 164.5"/><rect class="d" x="509.86" y="165.69" width="1.08" height=".28"/><path class="d" d="M617.64,127.74c-.52-.9-1.42-1.58-2.48-1.86-15.62-4.15-31.42-7.44-47.33-9.91V51.96c0-2.49-1.21-4.83-3.25-6.27L501.76,1.4c-2.64-1.86-6.2-1.86-8.84,0l-62.82,44.3c-2.03,1.44-3.25,3.78-3.25,6.27v64c-15.91,2.47-31.71,5.76-47.33,9.91-1.06,.28-1.97,.96-2.48,1.86-.46,.8-.58,1.7-.35,2.55l9.88,36.12c.51,1.86,2.48,2.97,4.38,2.47,17.15-4.56,34.54-7.99,52.05-10.3l49.92,35.2c1.32,.93,2.87,1.4,4.42,1.4,1.55,0,3.1-.47,4.42-1.4l49.92-35.2c17.51,2.31,34.9,5.74,52.05,10.3,.31,.08,.62,.12,.93,.12,1.57,0,3.02-1.03,3.45-2.59l9.88-36.12c.23-.85,.11-1.75-.35-2.55ZM427.94,51.96c0-2.14,1.04-4.15,2.79-5.38L493.54,2.29c1.13-.8,2.46-1.2,3.79-1.2s2.66,.4,3.79,1.2l62.82,44.3c1.75,1.23,2.79,3.24,2.79,5.38v63.83c-1.83-.28-3.65-.55-5.48-.8V56.37c0-2.49-1.21-4.83-3.25-6.27l-56.25-39.66c-2.64-1.86-6.2-1.86-8.84,0l-56.25,39.66c-2.03,1.44-3.25,3.78-3.25,6.27v58.62c-1.83,.26-3.65,.52-5.48,.8V51.96Zm132.23,4.41v58.47c-41.67-5.75-83.99-5.75-125.66,0V56.37c0-2.14,1.04-4.15,2.79-5.38l56.25-39.66c1.13-.8,2.46-1.2,3.79-1.2,1.33,0,2.66,.4,3.79,1.2l56.25,39.66c1.75,1.23,2.79,3.24,2.79,5.38Zm-59.04,136.52c-2.27,1.6-5.31,1.6-7.58,0l-48.95-34.52c3.31-.42,6.63-.8,9.94-1.14l38.38,27.06c1.32,.93,2.87,1.4,4.42,1.4s3.1-.47,4.42-1.4l38.38-27.06c3.32,.34,6.63,.72,9.94,1.14l-48.95,34.52Zm-44.94-35.84c27.36-2.72,54.94-2.72,82.3,0l-37.36,26.34c-2.27,1.6-5.31,1.6-7.58,0l-37.36-26.34Zm160.75-27.05l-9.88,36.12c-.35,1.29-1.72,2.05-3.05,1.7-16.81-4.47-33.86-7.85-51.03-10.16-.53-.07-1.06-.15-1.58-.22-3.3-.43-6.61-.81-9.91-1.17-.55-.06-1.1-.12-1.65-.17-28.25-2.9-56.75-2.9-85.01,0-.55,.06-1.1,.12-1.65,.17-3.31,.35-6.61,.73-9.91,1.17-.53,.07-1.06,.15-1.58,.22-17.17,2.31-34.21,5.69-51.02,10.16-1.32,.35-2.69-.41-3.05-1.7l-9.88-36.12c-.16-.56-.07-1.18,.24-1.72,.37-.65,1.04-1.15,1.82-1.35,15.53-4.13,31.24-7.4,47.05-9.86,.36-.06,.73-.11,1.09-.17,1.83-.28,3.65-.55,5.48-.81,.36-.05,.73-.1,1.09-.15,41.67-5.76,83.99-5.76,125.66,0,.36,.05,.73,.1,1.09,.15,1.83,.26,3.65,.53,5.48,.81,.36,.06,.73,.11,1.09,.17,15.81,2.46,31.52,5.74,47.05,9.86,.78,.21,1.44,.7,1.82,1.35,.31,.54,.4,1.15,.24,1.72Z"/><path class="d" d="M510.07,68.9c-1.6,7.13,1.16,13.07-1.29,23.18-.17,.7,.77,1.11,1.16,.5,1.54-2.42,3.36-5.5,3.98-7.38,1-3.03,3.18-16.77,3.69-20.07,.09-.56,.48-.99,.95-1,0,0,0,0,.01,0,0,0-6.7-3.27-8.51,4.76Zm4.47-3.84c.22,0,.4,.21,.4,.48s-.18,.48-.4,.48-.4-.21-.4-.48,.18-.48,.4-.48Zm-3.12,3.04s4.14,2.1,4.63-2.56c0,0,.33,5.32-4.63,2.56Z"/><path class="d" d="M518.11,60.89c-5.31-4.64-7.84,6.16-7.84,6.16,2.71-8.21,7.84-6.16,7.84-6.16Z"/><path class="d" d="M492.78,83.78c-1.13,1.67,.38,3.51,1.55,4.65,0,0-1.09,1.27,4.01,4.25,0,0,.36,.94,.42,2.01,.06-1.06,.42-2.01,.42-2.01,5.1-2.98,4.01-4.25,4.01-4.25,1.17-1.14,2.67-2.98,1.55-4.65-1.13-1.67-4.22,4.16-4.8,3.94s-1.17-.22-1.17-.22c0,0-.58,0-1.17,.22-.58,.22-3.68-5.61-4.8-3.94Zm10.69,2.52c.46,.37-.75,.57-3.7,3.92,0,0,3.24-4.29,3.7-3.92Z"/><path class="d" d="M498.75,95.06c-9.09,1.67-9.47-6.28-9.17-10.12-1.03,10.05,4.04,11.19,5.72,11.29,.32,.02,.63,.1,.91,.25,1,.51,1.88,.69,2.53,.69s1.53-.17,2.53-.69c.29-.15,.6-.23,.91-.25,1.68-.1,6.76-1.24,5.72-11.29,.3,3.84-.08,11.79-9.17,10.12Z"/><path class="d" d="M486.12,66.17s2.6-.5,6.58,8.41c0,0-5.69-15.09-12.13-11.14,0,0,.96-.07,1.1,.29,0,0,1.23,7.26,4.45,2.44Zm-1.7-1.59c-.17,0-.3-.14-.3-.31s.13-.31,.3-.31,.3,.14,.3,.31-.13,.31-.3,.31Z"/><path class="d" d="M484.25,80.67s-.25-6.92-1.59-8.15c-1.34-1.23-3.35-4.7-3.45-7.83,0,0-.4,5.38,2.07,7.48,2.47,2.1,2.97,8.5,2.97,8.5Z"/><path class="d" d="M485,80.67s-.92,10.43,4.18,10.78c0,0-3.59-2.89-4.18-10.78Z"/><path class="d" d="M498.75,101.72c-6.94,0-8.67-7.38-8.81-8.07,1.19,6.99,4.65,8.86,6.86,9.32-.55,.7-2.62,3.08-6.23,4.73,2.06-.83,5.48-2.26,7.74-3.47-.59,.98-1.74,2.58-3.65,4.01,1.65-1.13,4.54-3.15,6-4.52-.41,1.07-1.26,2.85-2.89,4.59,1.88-1.84,5.58-5.58,5.78-6.67,1.65-1.28,3.26-3.64,4-7.98-.13,.69-1.87,8.07-8.8,8.07Z"/><path class="d" d="M514.64,50.74c-1.07-1.76-1.42-3.35-1.54-4.32-.06-.49-.52-.82-1-.71-1.25,.27-3.4,.38-4.35-1.65-.21-.45-.79-.61-1.19-.31-.9,.68-2.56,1.54-5.16,1.45-.71-.03-1.12,.78-.68,1.34,1.4,1.8,3.13,5.16,2.84,10.62-.27,5.11-.14,10.4,.09,14.72,.05,1,1.5,1.07,1.64,.07,.78-5.52,2.07-12.19,4.02-15.37,1.38-2.24,2.66-3.04,3.74-3.38,2.63-.82,5.8,.93,5.8,.93,0,0-3.3-1.86-4.22-3.39Z"/><path class="d" d="M535.1,60.07c-1.19-.17-2.68,1.71-7.76-1.48-6.21-3.9-6.57-3.1-6.59-3.02,.03-.01,.37,.11,3.5,2.15,3.98,2.59,5.46,4.21,7.26,4.32,0,0-3.29,6.54-12.39-2.09,0,0,1.7,4.94,9.13,5.88,5.46,.69,11.84-5.02,6.87-5.75Z"/><path class="d" d="M509.68,44.69l.16,.08c1.12,.56,2.45,.39,3.41-.42,16.44-13.99,23.39-.26,23.39-.26-6.27-19.64-21.06-9.16-27.49-3.44-1.3,1.16-1.03,3.26,.53,4.04Z"/><path class="d" d="M490.58,107.69c-.55,.25-1.12,.48-1.74,.69,0,0,.69-.27,1.74-.69Z"/><path class="d" d="M494.67,108.23c-.38,.29-.79,.57-1.24,.83,0,0,.5-.33,1.24-.83Z"/><path class="d" d="M497.78,108.3c-.33,.35-.68,.7-1.07,1.04,0,0,.43-.41,1.07-1.04Z"/><path class="d" d="M479.86,51.95c.1,0,.19-.04,.24-.12,.05-.08,.06-.18,.02-.27-.29-.58-.91-2.25-.31-2.96,.39-.47,1.32-.49,2.69-.08,.08,.02,.17,0,.24-.04,.07-.05,.11-.13,.11-.22,0-.01,.01-1.49,.89-1.97,.62-.34,1.6-.12,2.83,.65,.07,.04,.16,.05,.23,.03,.08-.03,.14-.09,.17-.16,0-.02,.62-1.62,1.92-1.95,.83-.21,1.78,.13,2.83,1.03,.07,.06,.17,.08,.26,.05,.09-.03,.16-.1,.18-.19,.2-.75,.98-2.73,2.2-2.96,.83-.15,1.78,.5,2.83,1.94l.44-.32c-1.18-1.63-2.32-2.35-3.37-2.16-1.42,.26-2.21,2.12-2.5,2.96-1.07-.82-2.08-1.12-3-.89-1.21,.31-1.9,1.45-2.17,1.99-1.31-.76-2.36-.93-3.12-.5-.85,.47-1.09,1.54-1.15,2.1-1.44-.38-2.43-.26-2.94,.35-.73,.86-.23,2.42,.06,3.16-1.09,.02-1.85,.35-2.27,.98-.84,1.26,.05,3.21,.08,3.29l.49-.23s-.8-1.76-.13-2.76c.36-.54,1.11-.79,2.23-.74Z"/><path class="d" d="M468.32,53.81c-.64-1.98,.58-3.9,1.85-5.34,.31-.35,.63-.77,1.05-.98,.53-.26,1.17-.1,1.7,.05,1,.27,1.91,.74,2.74,1.35,.26,.2,.61-.07,.62-.35,.05-1.42,.38-2.87,1.05-4.13,.34-.65,.83-1.19,1.62-1.18,.76,0,1.49,.38,2.15,.72,.25,.13,.64-.03,.62-.35-.14-1.7-.19-3.8,1.28-4.98,1.57-1.26,3.74-.2,5.26,.6,.21,.11,.55,.03,.6-.24,.38-2.15,2.8-2.52,4.56-1.91,1.71,.59,3.05,1.92,3.8,3.54,.22,.48,.93,.06,.71-.41-.93-2.01-2.78-3.64-4.97-4.11-1.88-.41-4.09,.3-4.74,2.2-1.73-.87-3.88-1.66-5.6-.4-1.61,1.18-1.84,3.19-1.76,5.05-1.32-.58-2.82-.86-3.83,.44-.94,1.21-1.37,2.89-1.51,4.44-.86-.54-1.81-.96-2.81-1.16-1.28-.26-2.11,.14-2.96,1.08-1.52,1.69-2.97,3.96-2.21,6.31,.16,.5,.95,.29,.79-.22Z"/><path class="d" d="M485.7,94.5c-.79,.31-1.5,1.27-2.41,.95-.97-.34-1.29-1.44-1.57-2.32-.1-.32-.44-.37-.68-.18-1.37,1.08-2.85-.48-3.2-1.76-.21-.78-.22-1.59-.11-2.38,.65-.58,.89-1.52,.51-2.35-.17-.36-.63-.19-.75,.1-.22,.54-.39,1.13-.51,1.74-.42,.21-.95,.27-1.37,.13-1.06-.37-1.64-1.45-2-2.45-.77-2.16-.74-4.51,0-6.67,.11-.33-.22-.54-.5-.5-1.35,.2-2.47-1.27-3.13-2.26-.64-.96-1.12-2.02-1.39-3.13-.46-1.87-.24-4.27,1.49-5.43,.44-.29,.03-1-.41-.71-2.13,1.42-2.44,4.26-1.81,6.57,.38,1.39,1.05,2.7,1.94,3.83,.75,.94,1.69,1.83,2.88,1.93-.78,2.73-.67,6.23,1.15,8.49,.71,.88,1.91,1.48,3.03,1.18-.08,1.13,.09,2.26,.64,3.22,.73,1.28,2.29,1.96,3.61,1.35,.33,.94,.78,1.87,1.74,2.3,.45,.2,.95,.27,1.43,.11,.63-.2,1.06-.73,1.66-.97,.48-.19,.27-.98-.22-.79Z"/><path class="d" d="M495.85,46.97c-.98-.16-1.99,.25-2.32,1.19-.92-.46-2.05-.88-2.96-.21-.83,.62-.95,1.68-.91,2.65-.66-.3-1.41-.46-1.96,.15-.56,.62-.77,1.57-.84,2.42-.88-.57-2.08-1.03-2.9-.2-.89,.9-1.67,2.15-1.3,3.45,.07,.25,.47,.14,.39-.11-.32-1.1,.34-2.12,1.05-2.91,.43-.48,.94-.54,1.55-.35,.46,.15,.87,.38,1.26,.66,.13,.1,.3-.04,.31-.18,.03-.72,.18-1.43,.5-2.07,.47-.94,1.25-.76,2.04-.35,.13,.07,.32-.01,.31-.18-.07-.89-.1-1.94,.64-2.58,.83-.72,1.98-.16,2.81,.27,.11,.06,.27,.01,.3-.12,.27-1.25,1.68-1.35,2.66-.91,.79,.35,1.38,.99,1.75,1.76,.11,.24,.47,.03,.35-.21-.53-1.1-1.53-1.98-2.76-2.18Z"/><path class="d" d="M473.58,61.32c.7-.42,1.69-1.25,2.55-1.09,.83,.15,1.28,1.09,1.61,1.77,.23,.47,.93,.06,.71-.41-.46-.95-1.13-2.03-2.28-2.17-1.25-.16-2.5,.9-3.51,1.51-2.51,1.51-5.06,3.07-7.94,3.75-1.47,.35-3.14,.52-4.55-.12-1.21-.55-2.24-1.91-1.92-3.3,.32-1.36,1.81-2.01,3.03-2.32,1.59-.41,3.24-.41,4.86-.36,3.58,.1,7.03-.01,10.52-.89,.51-.13,.29-.92-.22-.79-3.42,.86-6.8,.96-10.31,.86-2.59-.07-6.37-.15-8.14,2.16-1.67,2.18,.19,4.95,2.48,5.63,2.84,.84,6.05-.37,8.58-1.63,1.55-.77,3.03-1.68,4.51-2.58Z"/><path class="d" d="M415.24,144.36c.12-.54,.18-1.09,.16-1.64,.03-.62-.21-1.23-.65-1.67-.19-.2-.43-.34-.7-.41-.63-.17-1.3,.05-1.72,.55,.26,.27,.39,.88,.39,1.83-.03,1.11-.22,2.22-.57,3.27-.86,2.78-2.8,4.5-5.81,5.21-1.17,.31-2.41-.19-3.04-1.23v-8.15c.01-.59,.2-1.16,.55-1.64,.5-.58,1.07-1.09,1.71-1.52-.69-.11-1.33-.41-1.86-.86-.3-.35-.44-.81-.39-1.27v-7.85c.21-.53,.57-.99,1.02-1.34,.41-.32,.87-.56,1.38-.69,.36-.12,.75-.1,1.09,.06,.13-.21,.2-.45,.2-.7,0-.48-.32-.91-.79-1.03-.29-.11-.6-.16-.91-.17-.46,0-.92,.07-1.36,.19-.7,.22-1.34,.59-1.88,1.09-.68-.25-1.43-.28-2.13-.08-.79,.21-1.52,.61-2.13,1.16-.64-.25-1.35-.28-2.01-.09-.72,.19-1.38,.55-1.94,1.04-.22,.2-.4,.44-.55,.7-.13,.22-.21,.48-.21,.74-.01,.22,.06,.43,.2,.59,.28-.29,.64-.5,1.03-.59,1.09-.29,1.84-.01,2.25,.83v7.87c-.01,.65-.23,1.28-.62,1.81-.47,.57-1.02,1.06-1.64,1.46,.7,.11,1.35,.41,1.89,.86,.27,.33,.4,.75,.35,1.17v9.12c-.36,1.01-1.21,1.77-2.25,2.02-.34,.11-.7,.1-1.03-.04-.13,.21-.2,.45-.2,.7,0,.48,.32,.89,.79,1,.29,.1,.59,.14,.9,.14,.44-.02,.88-.09,1.31-.21,.65-.21,1.25-.57,1.74-1.05,.69,.24,1.45,.25,2.15,.04,.81-.22,1.55-.64,2.15-1.23,1.3,.18,2.63,.08,3.89-.29,1.6-.36,3.11-1.03,4.46-1.95,.48-.36,1.01-.64,1.59-.82,.52-.11,.77,.11,.77,.69,0,.28-.02,.56-.07,.83,.29,.07,.6,.07,.89,0,.67-.15,1.27-.54,1.68-1.09,.21-.28,.37-.59,.49-.92,.12-.36,.18-.75,.17-1.13-.03-.49-.25-.95-.61-1.29,.48-.65,.74-1.44,.73-2.24,.07-.72-.26-1.41-.85-1.82Zm-15.8-7.08v4.91c-.01,2.47-.05,4.4-.11,5.81-.06,1.41-.4,2.31-1.01,2.7l.04-2.42c0-3.77-.07-5.93-.22-6.49-.1-.35-.51-.56-1.25-.63,.58-.29,1.02-.79,1.25-1.39,.15-.64,.22-3.12,.22-7.44,.26,.08,.49,.23,.67,.44,.24,.24,.38,1.09,.41,2.55v1.96Z"/><path class="d" d="M439.56,145.52c-.67,.1-1.18-.29-1.54-1.16v-5.6c0-.56,.17-1.11,.5-1.57,.43-.49,.94-.89,1.51-1.2-.58-.07-1.13-.32-1.56-.72-.33-.4-.49-.91-.45-1.42v-1.51c.03-1.04-.13-2.08-.47-3.06-.94-2.49-3.56-3.41-7.84-2.67-2.36,.35-4.56,1.37-6.36,2.94-1.38,1.24-2.14,2.36-2.29,3.35-.12,.77-.52,1.47-1.13,1.96,.17,.25,.41,.44,.69,.55,.25,.1,.53,.13,.8,.08,.22-.04,.43-.11,.64-.2,.31,.64,1.01,.99,1.71,.85,.64-.07,1.22-.43,1.56-.98-.02,0-.04,0-.06,0-.26-.04-.43-.28-.39-.54v-.05c.24,.04,.49,.04,.73,0,.85-.16,1.49-.88,1.56-1.74-.99,.21-1.48-.17-1.48-1.15,0-.63,.26-1.22,.73-1.64,.65-.54,1.43-.88,2.27-.98,1.02-.18,1.78-.03,2.29,.46s.75,1.35,.75,2.58v2.8c-.53,.65-1.22,1.15-2.01,1.45-.51,.22-1.04,.4-1.58,.55-.57,.16-1.49,.36-2.73,.62-1.23,.26-2.39,.78-3.4,1.53-.98,.76-1.69,1.81-2.04,3-.31,1.09-.98,2.05-1.91,2.7,.41,.11,.8,.28,1.15,.52,.34,.27,.57,.66,.65,1.09,.21,.8,.63,1.54,1.22,2.12,1.38,1.39,3.43,1.81,6.19,1.32,2.06-.28,3.9-1.41,5.08-3.12,.11,.6,.49,1.11,1.04,1.39,.26,.13,.55,.22,.85,.24,.36,.03,.73,.01,1.09-.05,.54-.14,1.04-.42,1.42-.82,.61,.31,1.31,.41,1.98,.29,.6-.05,1.16-.31,1.59-.72,.32-.28,.51-.67,.55-1.09,.02-.3-.08-.6-.26-.85-.29,.26-.66,.42-1.05,.47Zm-15.69,2.35c-1.03-.69-1.75-1.74-2.02-2.95-.07-.26-.51-.49-1.3-.7,.82-.53,1.25-.93,1.3-1.21,.16-.85,.48-1.66,.93-2.4,.29-.42,.66-.78,1.09-1.05,.1,.03,.17,.13,.17,.23-.04,.23-.12,.44-.24,.64l-.31,.55c-.13,.21-.23,.43-.32,.67-.1,.28-.18,.58-.22,.87-.07,.53-.09,1.06-.08,1.6,.07,.95,.39,1.86,.93,2.64,.15,.22,.24,.47,.26,.73,0,.15-.08,.28-.19,.37Zm7.89-4.55c.02,.79-.2,1.56-.63,2.22-.38,.6-.99,1.01-1.69,1.14-.8,.2-1.64-.12-2.1-.8-.24-.37-.41-.78-.5-1.22-.12-.49-.17-1-.17-1.5,0-2.5,.68-3.98,2.05-4.43,1.09-.32,2.12-.82,3.05-1.48v6.08Zm2.91-6.13v1.79c-.03,2.47-.41,3.9-1.14,4.31v-12.42c.27,.1,.51,.28,.68,.5,.24,.26,.38,1.17,.43,2.73,.03,.44,.03,.89,.03,1.37v1.72Z"/><path class="d" d="M480.46,141.36c-.24,.21-.54,.34-.86,.35-.72,.09-1.4-.38-1.56-1.09v-5.82c0-.53,.19-1.04,.55-1.42,.53-.47,1.12-.85,1.77-1.15-.69-.25-1.33-.62-1.9-1.09-.3-.35-.44-.81-.39-1.27,.02-.41,.05-.83,.05-1.25,0-2.24-.55-3.97-1.64-5.18-.54-.58-1.22-1.02-1.96-1.29-.79-.29-1.63-.4-2.46-.34-.8,.04-1.58,.19-2.34,.46-2.03,.68-3.69,2.18-4.57,4.14-.34-1.17-1.09-2.17-2.1-2.84-1.11-.65-2.41-.91-3.68-.73-.65,.06-1.29,.22-1.89,.45-1.85,.71-3.39,2.05-4.37,3.77v-1.55c0-1.34-.64-1.94-1.93-1.79-.89,.17-1.67,.68-2.18,1.42-.71-.22-1.45-.26-2.18-.14-.9,.13-1.72,.6-2.29,1.31-.25,.29-.44,.63-.58,.98-.12,.28-.19,.58-.2,.89,0,.26,.09,.5,.26,.7,.25-.24,.56-.39,.9-.44,.27-.04,.53-.06,.8-.07,.73-.01,1.09,.52,1.09,1.57v2.73c0,.59-.22,1.16-.62,1.59-.5,.46-1.05,.85-1.64,1.17,.7,.2,1.36,.55,1.93,1.01,.27,.32,.4,.74,.35,1.15v5.82c-.17,.74-.79,1.29-1.55,1.36-.36,.07-.73,0-1.05-.17-.16,.28-.23,.6-.21,.92,.02,.36,.21,.69,.5,.91,.46,.33,1.05,.44,1.6,.3,.72-.09,1.4-.38,1.96-.85,.58,.32,1.25,.45,1.9,.36,.65-.07,1.27-.33,1.78-.75,.49,.31,1.07,.43,1.64,.35,.55-.04,1.08-.26,1.5-.63,.35-.28,.56-.71,.57-1.16,.04-.33-.09-.65-.34-.87-.24,.23-.54,.38-.86,.43-.53,.06-1.03-.27-1.18-.78,.03-3.96,.04-7.92,.04-11.89,.12-.97,.5-1.89,1.09-2.66,.51-.73,1.3-1.21,2.18-1.32,.4-.05,.81-.01,1.2,.1,1.14,.33,1.71,1.66,1.71,3.99v11.1c-.15,.55-.62,.96-1.18,1.03-.31,.02-.61-.07-.86-.25-.18,.18-.29,.43-.28,.68-.04,.49,.16,.97,.55,1.29,.43,.29,.95,.4,1.46,.32,.61-.06,1.18-.31,1.64-.72,.54,.33,1.18,.47,1.81,.39,.67-.05,1.3-.3,1.83-.71,.48,.32,1.06,.47,1.64,.42,.54-.02,1.06-.22,1.46-.58,.34-.29,.54-.71,.55-1.15,.04-.31-.06-.63-.28-.86-.24,.22-.54,.37-.87,.4-.54,.06-1.05-.29-1.18-.82,.01-3.97,.03-7.94,.05-11.91,.15-.96,.55-1.86,1.15-2.62,.41-.64,1.08-1.07,1.83-1.18,2.12-.16,3.21,1.24,3.21,4.16v11.1c-.15,.55-.62,.94-1.18,.99-.31,.02-.62-.08-.86-.28-.19,.17-.29,.42-.28,.68-.04,.5,.16,.98,.55,1.3,.42,.3,.94,.43,1.45,.37,.6-.04,1.18-.27,1.64-.67,.55,.35,1.19,.5,1.83,.45,.65-.04,1.28-.28,1.81-.67,.6,.36,1.3,.54,2,.5,.58,.02,1.15-.19,1.58-.59,.29-.26,.47-.61,.5-1,.03-.21-.02-.42-.14-.6-.09-.08-.18-.18-.26-.28Zm-30.77-5.12c0,.71-.02,1.51-.07,2.42-.08,1.19-.41,2.01-.99,2.45v-1.19c.05-1.34-.02-2.69-.22-4.02-.1-.35-.52-.61-1.27-.77,.34-.14,.64-.35,.91-.6,.23-.25,.38-.55,.45-.88,.14-1.24,.19-2.48,.14-3.72v-1.21c.44,.21,.74,.76,.92,1.64,.13,1.17,.18,2.35,.15,3.53v2.37Zm12.43,.96c-.07,1.4-.41,2.24-1.03,2.54v-7.09c0-2.63-.17-4.38-.54-5.26,.66,.31,1.14,.92,1.29,1.63,.16,.58,.26,1.18,.3,1.78,.09,.71,.09,1.61,.09,2.68,0,1.08-.04,2.31-.11,3.71Zm12.51-.93c-.07,1.4-.41,2.23-1.04,2.5v-7.09c0-2.63-.18-4.39-.54-5.28,.66,.33,1.14,.95,1.3,1.68,.16,.59,.26,1.19,.3,1.79,.09,.72,.09,1.62,.09,2.69s-.03,2.31-.11,3.71Z"/><path class="d" d="M505.24,128.69c-.29-2.94-1.06-5-2.31-6.16-.63-.58-1.39-1-2.22-1.22-.8-.22-1.62-.34-2.44-.34-.64-.01-1.28,.04-1.9,.17-1.46,.3-2.8,1-3.87,2.03v-7.98c0-1.34-.65-2.01-1.94-1.98-.79,.01-1.57,.46-2.31,1.33-.7-.11-1.42-.15-2.13-.11-.81,0-1.6,.24-2.26,.71-.24,.18-.44,.41-.59,.67-.13,.23-.2,.49-.2,.75,0,.26,.1,.52,.26,.73,.3-.23,.67-.36,1.05-.35,1.17-.04,1.75,.65,1.75,2.07v10.56c0,.57-.21,1.11-.62,1.51-.51,.41-1.07,.75-1.68,1,.72,.28,1.37,.69,1.94,1.21,.27,.33,.4,.76,.35,1.18v5.18c0,.58-.03,1.21-.03,1.89,.01,.54-.15,1.08-.45,1.52,.29,.32,1.06,.45,2.33,.42,1.55-.09,3.03-.71,4.18-1.76,.37,.28,.76,.52,1.18,.71,1.21,.64,2.55,.98,3.91,1,2.47,0,4.36-.76,5.66-2.3,1.19-1.41,1.97-3.61,2.34-6.6,.06-.54,.27-1.06,.6-1.5,.49-.46,1.07-.82,1.7-1.06-1.33-.56-2.22-1.83-2.3-3.27Zm-14.59,9.38c-.26-.11-.47-.3-.61-.55-.19-.29-.31-.63-.35-.97-.05-.36-.09-1.21-.11-2.55-.04-.62-.04-1.51-.04-2.66-.02-1.15-.03-2.06-.03-2.73v-3.47c-.03-1.36,.03-2.72,.2-4.07,.07-.58,.44-1.09,.97-1.35l-.02,18.34Zm8.22-1.82c0,2.99-1.05,4.48-3.14,4.48-.86,0-1.67-.39-2.22-1.04-.68-.68-1.05-1.62-1.04-2.58l-.02-9c-.02-.71,.09-1.42,.32-2.1,.42-1.44,1.78-2.4,3.27-2.32,.41-.01,.81,.06,1.18,.22,1.09,.44,1.64,1.82,1.64,4.16v8.19Zm2.94-3.74c0,.68-.05,1.71-.11,3.11-.06,1.39-.41,2.2-1.03,2.43v-12.42c.28,.15,.51,.35,.69,.6,.23,.3,.38,1.36,.43,3.18,.03,.49,.03,.96,.03,1.41v1.7Z"/><path class="d" d="M532.99,118.91c-1.15-.95-2.58-1.51-4.08-1.59-1.31-.13-2.62,.29-3.6,1.17-1.02,.83-1.67,2.02-1.82,3.33-.8-.21-1.61-.34-2.43-.39-2.43-.14-4.41,.3-5.96,1.3-.67,.44-1.26,1.01-1.72,1.66-.44,.63-.79,1.31-1.04,2.03-.2,.62-.49,1.2-.86,1.72-.38,.47-.88,.83-1.44,1.05,.62,.28,1.17,.68,1.64,1.17,.29,.41,.51,.87,.64,1.36,.48,1.89,1.57,3.58,3.1,4.79-2.18,1.09-3.27,2.55-3.27,4.37-.01,1.18,.48,2.31,1.35,3.11-.42,.2-.81,.44-1.16,.74-1.05,.89-1.6,1.87-1.6,2.91,0,1.57,.79,2.85,2.42,3.95,1.9,1.23,4.62,1.92,8.19,2.13,3.01,.18,5.56-.25,7.64-1.34,.94-.48,1.76-1.17,2.38-2.02,.57-.75,.88-1.66,.88-2.59,.02-.8-.17-1.59-.55-2.29-1.01-1.81-3.25-3.12-6.7-3.87-.33-.08-.61-.29-.79-.58-.27-.44-.42-.94-.43-1.45-.86,1.15-1.7,1.62-2.52,1.41-1.26-.19-2.49-.56-3.65-1.09-.28-.14-.51-.35-.68-.62-.13-.25-.19-.53-.19-.81,0-.32,.21-.59,.62-.83,1.21,.43,2.48,.67,3.76,.73,2.29,.13,4.12-.24,5.56-1.14,1.44-.89,2.49-2.37,3.17-4.43,.09-.28,.2-.55,.34-.81,.47-.69,1.15-1.2,1.94-1.46-1.16-.64-1.99-1.74-2.29-3.03-.63-2.14-2.08-3.78-4.37-4.91,.24-2.14,1.06-3.17,2.46-3.06,.05,0,.1,0,.15,0,.56,.04,.98,.53,.94,1.09-.02,.32-.17,.61-.41,.82-.31,.3-.7,.51-1.12,.59,.23,.45,.68,.76,1.18,.8,.91,.07,1.5-.12,1.76-.58,.2,.17,.31,.42,.32,.69,.01,.23-.09,.46-.28,.6,.3,.13,.63,.19,.96,.19,1.31,.11,2.04-.65,2.18-2.32,.82-.21,1.21-.81,1.16-1.81-.67,.03-1.32-.21-1.8-.67Zm-17.64,15.64c-.5-.89-.86-1.86-1.06-2.87l-.38-1.58c-.04-.16-.39-.42-1.05-.77,.65-.26,1-.49,1.05-.67,.13-.6,.31-1.3,.55-2.08,.22-.76,.6-1.47,1.12-2.07,.09,.07,.15,.17,.15,.28v.45c-.01,.24-.06,.48-.13,.7-.34,1.13-.51,2.3-.51,3.48,0,1.2,.17,2.4,.51,3.55,.09,.31,.13,.62,.13,.94,0,.26-.15,.5-.38,.64Zm11.7,15.59c-.83,.92-2.65,1.26-5.46,1.09-1.95-.04-3.86-.54-5.58-1.45-1.29-.74-1.94-1.54-1.94-2.38-.08-.92,.46-1.78,1.33-2.1,1.2,.53,2.47,.9,3.77,1.1,.29,.09,.54,.28,.69,.55,.26,.47,.38,1,.34,1.53,1.02-1.03,1.87-1.48,2.56-1.36,1.07,.16,2.12,.42,3.14,.79,.4,.14,.77,.35,1.09,.62,.26,.19,.41,.48,.43,.8,0,.31-.14,.6-.36,.81Zm-9.94-6.91c.67,.28,1.36,.51,2.06,.7,.74,.2,2.04,.46,3.88,.79,1.5,.24,2.96,.64,4.37,1.2,.51,.18,.97,.47,1.35,.84,.24,.23,.39,.53,.41,.86,.02,.24-.06,.48-.22,.65-.66-.84-1.56-1.47-2.57-1.8-1.25-.39-2.53-.69-3.82-.89-.3,0-.6,.07-.87,.2-.43,.16-.68,.37-.74,.64-.19-.86-.5-1.35-.94-1.47-3.81-.89-5.74-1.98-5.79-3.32-.01-.17,.05-.33,.16-.46,.44,.78,1.36,1.47,2.73,2.06Zm6.2-10.51c0,1.21-.18,2.05-.55,2.54-.17,.24-.41,.42-.69,.51-.32,.09-.64,.12-.97,.1-.33-.01-.66-.09-.97-.21-.34-.18-.63-.45-.83-.78h-.02c-.27-.4-.41-1.21-.38-2.41v-5.17c0-1.21,.17-2.06,.55-2.56,.17-.23,.4-.41,.68-.5,.31-.09,.64-.13,.97-.1,.33,.02,.66,.09,.97,.22,.34,.18,.63,.45,.82,.79,.28,.4,.41,1.21,.41,2.42v5.17Zm2.8-6.26c.13,1.19,.19,2.39,.15,3.59,0,1.22-.04,2.25-.13,3.27-.09,1.03-.42,1.62-1,1.77v-10.07c.54,.29,.9,.82,.98,1.43Z"/><path class="d" d="M556.67,134.74c-.27-.56-.45-1.17-.51-1.8-.34-2.3-1.45-4.42-3.15-6-1.77-1.75-4.08-2.85-6.55-3.14-2.25-.35-4.55,.18-6.42,1.48-1.78,1.21-2.96,3.12-3.24,5.25-.05,.3-.12,.59-.21,.88-.28,1.02-1.07,1.82-2.08,2.13,.68,.35,1.28,.83,1.78,1.42,.16,.2,.27,.42,.35,.67,.12,.51,.2,1.02,.25,1.54,.16,1,.44,1.97,.83,2.9,.43,1.12,1.06,2.15,1.84,3.05,1.69,1.88,4.01,2.99,6.95,3.35,2.76,.34,4.94-.12,6.58-1.41,1.64-1.29,2.66-3.37,3.06-6.24,.07-.54,.29-1.04,.64-1.46,.48-.4,1.04-.68,1.64-.83-.73-.44-1.34-1.05-1.77-1.78Zm-16.31,4.07c.1,.35,.15,.7,.17,1.06-.01,.18-.11,.34-.26,.43-.27-.43-.51-.87-.73-1.32-.51-1.34-.9-2.72-1.15-4.13-.04-.32-.41-.67-1.09-1.04,.66-.25,1.03-.53,1.09-.86,.17-.77,.4-1.67,.68-2.69,.2-.87,.61-1.69,1.2-2.37,.19,.18,.28,.43,.27,.68-.03,.28-.08,.56-.17,.83-.17,.62-.34,1.35-.51,2.18-.08,.43-.14,.85-.19,1.27-.06,.59-.09,1.19-.08,1.78,.11,1.41,.37,2.8,.77,4.16Zm9.32,.93c0,2.98-1.09,4.33-3.2,4.07-2.11-.26-3.17-1.87-3.17-4.86v-8.26c0-3.11,1.06-4.54,3.18-4.28h0c2.13,.27,3.18,1.96,3.18,5.07v8.26Zm2.94-5.14v1.7c0,.68-.05,1.71-.11,3.09-.06,1.38-.4,2.15-1.03,2.3l.04-12.42c.27,.18,.49,.42,.67,.69,.23,.33,.38,1.41,.43,3.23v1.41Z"/><path class="d" d="M582.33,150.38c-.67-.14-1.18-.72-1.54-1.73v-5.59c-.02-.51,.16-1.01,.5-1.39,.43-.34,.95-.56,1.5-.64-.61-.31-1.13-.75-1.54-1.29-.31-.47-.47-1.03-.45-1.59v-1.51c.02-1.09-.14-2.18-.46-3.23-.94-2.81-3.53-4.71-7.8-5.53-2.57-.49-4.69-.28-6.36,.61-1.38,.75-2.14,1.58-2.29,2.52-.08,.68-.51,1.27-1.14,1.54,.17,.31,.41,.58,.7,.79,.23,.19,.51,.32,.8,.38,.21,.04,.43,.05,.64,.04,.29,.74,.93,1.29,1.71,1.47,.56,.19,1.17,.02,1.56-.41-.28-.11-.46-.39-.45-.69v-.06c.23,.13,.47,.22,.73,.26,.85,.15,1.36-.23,1.56-1.17-.02,0-.04,0-.06,0-.86-.07-1.5-.83-1.42-1.69-.04-.56,.25-1.1,.73-1.39,.72-.31,1.52-.36,2.27-.15,.9,.13,1.71,.59,2.28,1.3,.55,.84,.82,1.84,.75,2.85v2.8c-.56,.47-1.27,.72-2,.71-.53,.02-1.06,0-1.58-.05-.55-.06-1.49-.19-2.73-.39-1.14-.2-2.31-.1-3.41,.29-.99,.4-1.74,1.23-2.05,2.25-.27,.95-.99,1.7-1.92,2,.42,.27,.81,.59,1.16,.94,.33,.37,.56,.82,.65,1.31,.23,.93,.65,1.81,1.23,2.58,1.38,1.89,3.47,3.07,6.19,3.57,2.25,.42,3.94,0,5.07-1.27,.11,.72,.47,1.38,1.02,1.87,.25,.22,.54,.4,.84,.55,.35,.16,.72,.27,1.09,.34,.49,.07,1-.04,1.42-.31,.55,.5,1.23,.85,1.96,1.02,.52,.17,1.1,.12,1.58-.14,.32-.19,.53-.53,.55-.9,0-.33-.08-.66-.26-.94-.32,.16-.69,.19-1.03,.09Zm-15.64-3.45c-1-1.02-1.7-2.28-2.02-3.67-.07-.29-.51-.68-1.3-1.17,.82-.23,1.26-.48,1.3-.73,.14-.75,.46-1.46,.93-2.06,.29-.32,.67-.55,1.09-.65,.1,.07,.16,.18,.17,.3-.04,.2-.12,.38-.24,.55-.09,.13-.19,.26-.31,.41-.12,.17-.23,.35-.31,.55-.11,.25-.18,.52-.22,.79-.07,.52-.1,1.05-.09,1.57,.09,1.05,.41,2.07,.93,2.98,.14,.26,.23,.54,.26,.83,0,.13-.07,.25-.19,.3Zm7.88-1.66c.04,.72-.18,1.43-.63,1.99-.43,.46-1.07,.66-1.69,.51-.9-.17-1.68-.75-2.1-1.57-.23-.44-.4-.91-.5-1.4-.11-.51-.16-1.04-.16-1.56,0-2.51,.68-3.73,2.04-3.69,1.03,.09,2.07-.03,3.05-.36v6.08Zm2.89-5.09v1.81c-.04,2.46-.41,3.75-1.13,3.89l.02-12.44c.27,.2,.49,.46,.67,.74,.22,.36,.36,1.33,.41,2.9,.03,.44,.03,.89,.03,1.38v1.73Z"/><path class="d" d="M601.07,150.03c-.25-.04-.5-.05-.75-.04-.38,0-.61,.09-.7,.26,.05,.39,.08,.77,.08,1.16,0,.39-.07,.78-.2,1.14-.11,.31-.3,.58-.55,.79-.25,.2-.55,.33-.87,.36-.31,.04-.63,.02-.94-.07-.32-.08-.63-.21-.91-.38-.97-.62-1.45-1.99-1.45-4.17v-12.63c1.44,.35,2.87,.71,4.3,1.09,.42,.14,.88,.11,1.28-.08,.36-.18,.58-.57,.55-.98,.02-.35-.03-.7-.14-1.04-1.99-.53-3.98-1.05-5.97-1.56v-7.78c-.51-.19-1.07-.08-1.47,.28-.44,.56-.72,1.22-.82,1.93-.24-.37-.61-.63-1.04-.72-.45-.12-.96,.21-1.54,.97-.68,.93-1.02,2.07-.98,3.22v.59c-1.23-.49-2.14-.48-2.73,.03-.23,.19-.4,.44-.49,.72-.09,.26-.13,.53-.14,.81,0,.29,.1,.56,.26,.8,.32-.16,.69-.19,1.03-.08,1.17,.26,1.71,1.11,1.71,2.53v2.18c.04,1.19-.75,2.24-1.9,2.53,1.27,.93,1.9,1.7,1.9,2.29v2.28c-.03,1.27,.18,2.54,.61,3.74,1.11,2.86,3.36,4.69,6.74,5.56,1.54,.47,3.21,.34,4.66-.37,.57-.29,1.07-.71,1.44-1.23,.36-.5,.55-1.1,.55-1.71,.02-.56-.13-1.11-.43-1.59-.25-.41-.64-.7-1.09-.83Zm-9.62-5.11c0,.47-.03,1.12-.08,1.95-.08,1.17-.4,1.87-.98,2.1v-1.2c.05-1.42-.03-2.84-.22-4.25-.1-.4-.51-.81-1.26-1.25,.71-.09,1.15-.29,1.26-.64,.03-.11,.08-.22,.14-.32,.09-.91,.12-1.82,.08-2.73v-5.82c.46,.46,.76,1.05,.85,1.7,.12,.9,.17,1.82,.16,2.73,.05,.61,.05,1.26,.05,1.92v4.66c0,.29,0,.68,0,1.15Z"/></g></g></g></g></svg>