<svg width="951" height="154" viewBox="0 0 951 154" fill="none" xmlns="http://www.w3.org/2000/svg">
<g filter="url(#filter0_b_58_6191)">
<path d="M51.1 19C60.8 19 69.25 20.6 76.45 23.8C83.65 27 89.2 31.6 93.1 37.6C97 43.6 98.95 50.6 98.95 58.6C98.95 66.6 97 73.6 93.1 79.6C89.2 85.6 83.65 90.2 76.45 93.4C69.25 96.6 60.8 98.2 51.1 98.2H35.95V124H0.550001V19H51.1ZM48.85 70.9C53.65 70.9 57.25 69.85 59.65 67.75C62.05 65.55 63.25 62.5 63.25 58.6C63.25 54.7 62.05 51.7 59.65 49.6C57.25 47.4 53.65 46.3 48.85 46.3H35.95V70.9H48.85ZM145.527 40.45C159.927 40.45 170.927 43.7 178.527 50.2C186.127 56.6 189.927 66.5 189.927 79.9V124H158.427V113.2C154.527 121.4 146.777 125.5 135.177 125.5C128.677 125.5 123.127 124.4 118.527 122.2C114.027 119.9 110.577 116.85 108.177 113.05C105.877 109.15 104.727 104.8 104.727 100C104.727 91.9 107.827 85.75 114.027 81.55C120.227 77.35 129.627 75.25 142.227 75.25H155.877C154.777 68.85 149.627 65.65 140.427 65.65C136.727 65.65 132.977 66.25 129.177 67.45C125.377 68.55 122.127 70.1 119.427 72.1L108.627 49.75C113.327 46.85 118.977 44.6 125.577 43C132.277 41.3 138.927 40.45 145.527 40.45ZM145.377 105.1C147.777 105.1 149.927 104.45 151.827 103.15C153.727 101.85 155.127 99.9 156.027 97.3V91.6H147.627C140.727 91.6 137.277 93.9 137.277 98.5C137.277 100.4 137.977 102 139.377 103.3C140.877 104.5 142.877 105.1 145.377 105.1ZM236.828 50.8C242.828 43.9 251.678 40.45 263.378 40.45V70.45C260.678 70.05 258.178 69.85 255.878 69.85C244.278 69.85 238.478 75.75 238.478 87.55V124H204.578V41.95H236.828V50.8ZM335.634 121.15C330.534 124.05 323.584 125.5 314.784 125.5C303.284 125.5 294.434 122.75 288.234 117.25C282.034 111.65 278.934 103.3 278.934 92.2V71.2H267.684V46.45H278.934V23.5H312.834V46.45H329.634V71.2H312.834V91.9C312.834 94.4 313.484 96.35 314.784 97.75C316.084 99.15 317.784 99.85 319.884 99.85C322.784 99.85 325.334 99.1 327.534 97.6L335.634 121.15ZM401.178 40.45C411.278 40.45 419.378 43.5 425.478 49.6C431.678 55.7 434.778 64.9 434.778 77.2V124H400.878V83.05C400.878 73.65 397.528 68.95 390.828 68.95C387.028 68.95 383.928 70.3 381.528 73C379.228 75.6 378.078 79.75 378.078 85.45V124H344.178V41.95H376.428V50.05C379.628 46.85 383.328 44.45 387.528 42.85C391.728 41.25 396.278 40.45 401.178 40.45ZM538.265 82.9C538.265 83.4 538.115 86.05 537.815 90.85H480.815C482.015 93.95 484.015 96.35 486.815 98.05C489.615 99.65 493.115 100.45 497.315 100.45C500.915 100.45 503.915 100 506.315 99.1C508.815 98.2 511.515 96.65 514.415 94.45L532.115 112.3C524.115 121.1 512.165 125.5 496.265 125.5C486.365 125.5 477.665 123.7 470.165 120.1C462.665 116.4 456.865 111.3 452.765 104.8C448.665 98.3 446.615 91 446.615 82.9C446.615 74.7 448.615 67.4 452.615 61C456.715 54.5 462.265 49.45 469.265 45.85C476.365 42.25 484.315 40.45 493.115 40.45C501.415 40.45 508.965 42.1 515.765 45.4C522.665 48.7 528.115 53.55 532.115 59.95C536.215 66.35 538.265 74 538.265 82.9ZM493.415 63.55C489.915 63.55 487.015 64.5 484.715 66.4C482.415 68.3 480.915 71 480.215 74.5H506.615C505.915 71.1 504.415 68.45 502.115 66.55C499.815 64.55 496.915 63.55 493.415 63.55ZM581.213 50.8C587.213 43.9 596.063 40.45 607.763 40.45V70.45C605.063 70.05 602.563 69.85 600.263 69.85C588.663 69.85 582.863 75.75 582.863 87.55V124H548.963V41.95H581.213V50.8ZM649.471 125.5C642.471 125.5 635.571 124.75 628.771 123.25C621.971 121.75 616.471 119.8 612.271 117.4L621.571 95.05C625.371 97.35 629.871 99.15 635.071 100.45C640.271 101.75 645.321 102.4 650.221 102.4C654.121 102.4 656.821 102.1 658.321 101.5C659.921 100.8 660.721 99.8 660.721 98.5C660.721 97.2 659.721 96.3 657.721 95.8C655.821 95.3 652.671 94.8 648.271 94.3C641.571 93.5 635.871 92.5 631.171 91.3C626.471 90 622.321 87.55 618.721 83.95C615.221 80.35 613.471 75.2 613.471 68.5C613.471 63.2 615.071 58.45 618.271 54.25C621.471 50.05 626.221 46.7 632.521 44.2C638.921 41.7 646.571 40.45 655.471 40.45C661.671 40.45 667.721 41.05 673.621 42.25C679.621 43.35 684.721 45 688.921 47.2L679.621 69.55C672.421 65.55 664.521 63.55 655.921 63.55C648.521 63.55 644.821 64.85 644.821 67.45C644.821 68.75 645.821 69.7 647.821 70.3C649.821 70.8 652.971 71.3 657.271 71.8C663.971 72.6 669.621 73.65 674.221 74.95C678.921 76.25 683.021 78.7 686.521 82.3C690.121 85.9 691.921 91.05 691.921 97.75C691.921 102.85 690.321 107.5 687.121 111.7C683.921 115.9 679.121 119.25 672.721 121.75C666.321 124.25 658.571 125.5 649.471 125.5ZM759.186 40.45C769.286 40.45 777.386 43.5 783.486 49.6C789.686 55.7 792.786 64.9 792.786 77.2V124H758.886V83.05C758.886 73.65 755.536 68.95 748.836 68.95C745.036 68.95 741.936 70.3 739.536 73C737.236 75.6 736.086 79.75 736.086 85.45V124H702.186V12.7H736.086V48.55C742.386 43.15 750.086 40.45 759.186 40.45ZM807.508 41.95H841.408V124H807.508V41.95ZM824.458 35.35C818.358 35.35 813.408 33.75 809.608 30.55C805.908 27.25 804.058 23.1 804.058 18.1C804.058 13.1 805.908 8.99999 809.608 5.79999C813.408 2.49999 818.358 0.849994 824.458 0.849994C830.658 0.849994 835.608 2.39999 839.308 5.5C843.008 8.59999 844.858 12.6 844.858 17.5C844.858 22.7 843.008 27 839.308 30.4C835.608 33.7 830.658 35.35 824.458 35.35ZM911.184 40.45C918.384 40.45 924.984 42.2 930.984 45.7C937.084 49.1 941.884 54.05 945.384 60.55C948.984 67.05 950.784 74.55 950.784 83.05C950.784 91.55 948.984 99.05 945.384 105.55C941.884 111.95 937.084 116.9 930.984 120.4C924.984 123.8 918.384 125.5 911.184 125.5C902.084 125.5 895.134 123.15 890.334 118.45V153.1H856.434V41.95H888.684V48.7C893.584 43.2 901.084 40.45 911.184 40.45ZM903.084 99.1C906.984 99.1 910.184 97.7 912.684 94.9C915.184 92.1 916.434 88.15 916.434 83.05C916.434 77.95 915.184 74 912.684 71.2C910.184 68.3 906.984 66.85 903.084 66.85C899.184 66.85 895.984 68.3 893.484 71.2C890.984 74 889.734 77.95 889.734 83.05C889.734 88.15 890.984 92.1 893.484 94.9C895.984 97.7 899.184 99.1 903.084 99.1Z" fill="white" fill-opacity="0.2"/>
<path d="M76.45 23.8L76.0439 24.7138L76.0439 24.7138L76.45 23.8ZM93.1 37.6L92.2616 38.145L92.2616 38.145L93.1 37.6ZM93.1 79.6L92.2616 79.055L92.2616 79.055L93.1 79.6ZM76.45 93.4L76.0439 92.4862L76.0439 92.4862L76.45 93.4ZM35.95 98.2V97.2H34.95V98.2H35.95ZM35.95 124V125H36.95V124H35.95ZM0.550001 124H-0.449999V125H0.550001V124ZM0.550001 19V18H-0.449999V19H0.550001ZM59.65 67.75L60.3085 68.5026L60.3172 68.495L60.3257 68.4871L59.65 67.75ZM59.65 49.6L58.9743 50.3372L58.9828 50.345L58.9915 50.3526L59.65 49.6ZM35.95 46.3V45.3H34.95V46.3H35.95ZM35.95 70.9H34.95V71.9H35.95V70.9ZM51.1 20C60.6916 20 68.9977 21.5822 76.0439 24.7138L76.8561 22.8862C69.5023 19.6178 60.9084 18 51.1 18V20ZM76.0439 24.7138C83.0857 27.8435 88.4775 32.3234 92.2616 38.145L93.9384 37.055C89.9225 30.8766 84.2143 26.1565 76.8561 22.8862L76.0439 24.7138ZM92.2616 38.145C96.044 43.9641 97.95 50.7699 97.95 58.6H99.95C99.95 50.4301 97.956 43.2359 93.9384 37.055L92.2616 38.145ZM97.95 58.6C97.95 66.4301 96.044 73.2359 92.2616 79.055L93.9384 80.145C97.956 73.9641 99.95 66.7699 99.95 58.6H97.95ZM92.2616 79.055C88.4775 84.8766 83.0857 89.3565 76.0439 92.4862L76.8561 94.3138C84.2143 91.0435 89.9225 86.3234 93.9384 80.145L92.2616 79.055ZM76.0439 92.4862C68.9977 95.6178 60.6916 97.2 51.1 97.2V99.2C60.9084 99.2 69.5023 97.5822 76.8561 94.3138L76.0439 92.4862ZM51.1 97.2H35.95V99.2H51.1V97.2ZM34.95 98.2V124H36.95V98.2H34.95ZM35.95 123H0.550001V125H35.95V123ZM1.55 124V19H-0.449999V124H1.55ZM0.550001 20H51.1V18H0.550001V20ZM48.85 71.9C53.7738 71.9 57.6534 70.8258 60.3085 68.5026L58.9915 66.9974C56.8466 68.8742 53.5262 69.9 48.85 69.9V71.9ZM60.3257 68.4871C62.9729 66.0605 64.25 62.7201 64.25 58.6H62.25C62.25 62.2799 61.1271 65.0395 58.9743 67.0128L60.3257 68.4871ZM64.25 58.6C64.25 54.4815 62.9731 51.1789 60.3085 48.8474L58.9915 50.3526C61.1269 52.221 62.25 54.9185 62.25 58.6H64.25ZM60.3257 48.8628C57.6704 46.4288 53.7836 45.3 48.85 45.3V47.3C53.5164 47.3 56.8296 48.3712 58.9743 50.3372L60.3257 48.8628ZM48.85 45.3H35.95V47.3H48.85V45.3ZM34.95 46.3V70.9H36.95V46.3H34.95ZM35.95 71.9H48.85V69.9H35.95V71.9ZM178.527 50.2L177.877 50.96L177.883 50.9649L178.527 50.2ZM189.927 124V125H190.927V124H189.927ZM158.427 124H157.427V125H158.427V124ZM158.427 113.2H159.427L157.524 112.77L158.427 113.2ZM118.527 122.2L118.072 123.09L118.084 123.096L118.096 123.102L118.527 122.2ZM108.177 113.05L107.316 113.558L107.324 113.571L107.332 113.584L108.177 113.05ZM114.027 81.55L113.466 80.7221L113.466 80.7221L114.027 81.55ZM155.877 75.25V76.25H157.064L156.863 75.0806L155.877 75.25ZM129.177 67.45L129.455 68.4106L129.467 68.4072L129.478 68.4036L129.177 67.45ZM119.427 72.1L118.527 72.5351L119.052 73.6223L120.023 72.9036L119.427 72.1ZM108.627 49.75L108.102 48.899L107.334 49.3727L107.727 50.1851L108.627 49.75ZM125.577 43L125.813 43.9719L125.823 43.9693L125.577 43ZM151.827 103.15L151.263 102.325L151.263 102.325L151.827 103.15ZM156.027 97.3L156.972 97.6271L157.027 97.4682V97.3H156.027ZM156.027 91.6H157.027V90.6H156.027V91.6ZM139.377 103.3L138.697 104.033L138.724 104.058L138.753 104.081L139.377 103.3ZM145.527 41.45C159.792 41.45 170.524 44.6707 177.877 50.96L179.177 49.44C171.331 42.7293 160.063 39.45 145.527 39.45V41.45ZM177.883 50.9649C185.186 57.1145 188.927 66.6861 188.927 79.9H190.927C190.927 66.3139 187.069 56.0855 179.171 49.4351L177.883 50.9649ZM188.927 79.9V124H190.927V79.9H188.927ZM189.927 123H158.427V125H189.927V123ZM159.427 124V113.2H157.427V124H159.427ZM157.524 112.77C153.839 120.519 146.52 124.5 135.177 124.5V126.5C147.035 126.5 155.216 122.281 159.33 113.63L157.524 112.77ZM135.177 124.5C128.787 124.5 123.392 123.418 118.959 121.298L118.096 123.102C122.862 125.382 128.568 126.5 135.177 126.5V124.5ZM118.982 121.31C114.622 119.081 111.316 116.146 109.023 112.516L107.332 113.584C109.839 117.554 113.433 120.719 118.072 123.09L118.982 121.31ZM109.039 112.542C106.835 108.805 105.727 104.632 105.727 100H103.727C103.727 104.968 104.92 109.495 107.316 113.558L109.039 112.542ZM105.727 100C105.727 92.1997 108.688 86.3746 114.588 82.3779L113.466 80.7221C106.966 85.1254 103.727 91.6003 103.727 100H105.727ZM114.588 82.3779C120.544 78.3432 129.705 76.25 142.227 76.25V74.25C129.55 74.25 119.91 76.3568 113.466 80.7221L114.588 82.3779ZM142.227 76.25H155.877V74.25H142.227V76.25ZM156.863 75.0806C156.268 71.6215 154.554 68.9631 151.718 67.2006C148.922 65.4637 145.124 64.65 140.427 64.65V66.65C144.93 66.65 148.307 67.4363 150.662 68.8994C152.976 70.3369 154.386 72.4785 154.892 75.4194L156.863 75.0806ZM140.427 64.65C136.618 64.65 132.766 65.268 128.876 66.4964L129.478 68.4036C133.189 67.232 136.837 66.65 140.427 66.65V64.65ZM128.899 66.4894C125.005 67.6168 121.643 69.2143 118.832 71.2964L120.023 72.9036C122.612 70.9857 125.75 69.4832 129.455 68.4106L128.899 66.4894ZM120.328 71.6649L109.528 49.3149L107.727 50.1851L118.527 72.5351L120.328 71.6649ZM109.152 50.601C113.745 47.7673 119.293 45.5525 125.813 43.9718L125.342 42.0281C118.662 43.6475 112.91 45.9327 108.102 48.899L109.152 50.601ZM125.823 43.9693C132.447 42.2887 139.014 41.45 145.527 41.45V39.45C138.841 39.45 132.108 40.3113 125.331 42.0307L125.823 43.9693ZM145.377 106.1C147.97 106.1 150.318 105.394 152.392 103.975L151.263 102.325C149.536 103.506 147.585 104.1 145.377 104.1V106.1ZM152.392 103.975C154.501 102.532 156.016 100.389 156.972 97.6271L155.082 96.9729C154.238 99.411 152.953 101.168 151.263 102.325L152.392 103.975ZM157.027 97.3V91.6H155.027V97.3H157.027ZM156.027 90.6H147.627V92.6H156.027V90.6ZM147.627 90.6C144.098 90.6 141.276 91.1825 139.31 92.4929C137.273 93.8511 136.277 95.9087 136.277 98.5H138.277C138.277 96.4913 139.007 95.0989 140.42 94.157C141.904 93.1675 144.257 92.6 147.627 92.6V90.6ZM136.277 98.5C136.277 100.68 137.094 102.545 138.697 104.033L140.058 102.567C138.86 101.455 138.277 100.12 138.277 98.5H136.277ZM138.753 104.081C140.477 105.461 142.719 106.1 145.377 106.1V104.1C143.035 104.1 141.277 103.539 140.002 102.519L138.753 104.081ZM236.828 50.8H235.828V53.474L237.583 51.4562L236.828 50.8ZM263.378 40.45H264.378V39.45H263.378V40.45ZM263.378 70.45L263.232 71.4392L264.378 71.6091V70.45H263.378ZM238.478 124V125H239.478V124H238.478ZM204.578 124H203.578V125H204.578V124ZM204.578 41.95V40.95H203.578V41.95H204.578ZM236.828 41.95H237.828V40.95H236.828V41.95ZM237.583 51.4562C243.342 44.8325 251.881 41.45 263.378 41.45V39.45C251.475 39.45 242.314 42.9675 236.074 50.1438L237.583 51.4562ZM262.378 40.45V70.45H264.378V40.45H262.378ZM263.525 69.4608C260.785 69.0549 258.235 68.85 255.878 68.85V70.85C258.121 70.85 260.571 71.0451 263.232 71.4392L263.525 69.4608ZM255.878 68.85C249.92 68.85 245.268 70.3666 242.115 73.574C238.965 76.7782 237.478 81.5001 237.478 87.55H239.478C239.478 81.7999 240.891 77.6718 243.541 74.976C246.188 72.2834 250.237 70.85 255.878 70.85V68.85ZM237.478 87.55V124H239.478V87.55H237.478ZM238.478 123H204.578V125H238.478V123ZM205.578 124V41.95H203.578V124H205.578ZM204.578 42.95H236.828V40.95H204.578V42.95ZM235.828 41.95V50.8H237.828V41.95H235.828ZM335.634 121.15L336.128 122.019L336.849 121.609L336.579 120.825L335.634 121.15ZM288.234 117.25L287.563 117.992L287.57 117.998L288.234 117.25ZM278.934 71.2H279.934V70.2H278.934V71.2ZM267.684 71.2H266.684V72.2H267.684V71.2ZM267.684 46.45V45.45H266.684V46.45H267.684ZM278.934 46.45V47.45H279.934V46.45H278.934ZM278.934 23.5V22.5H277.934V23.5H278.934ZM312.834 23.5H313.834V22.5H312.834V23.5ZM312.834 46.45H311.834V47.45H312.834V46.45ZM329.634 46.45H330.634V45.45H329.634V46.45ZM329.634 71.2V72.2H330.634V71.2H329.634ZM312.834 71.2V70.2H311.834V71.2H312.834ZM314.784 97.75L314.051 98.4304L314.051 98.4304L314.784 97.75ZM327.534 97.6L328.479 97.2747L328.053 96.0355L326.97 96.7738L327.534 97.6ZM335.139 120.281C330.247 123.063 323.49 124.5 314.784 124.5V126.5C323.677 126.5 330.82 125.037 336.128 122.019L335.139 120.281ZM314.784 124.5C303.433 124.5 294.854 121.786 288.897 116.502L287.57 117.998C294.013 123.714 303.134 126.5 314.784 126.5V124.5ZM288.904 116.508C282.977 111.154 279.934 103.115 279.934 92.2H277.934C277.934 103.485 281.09 112.146 287.563 117.992L288.904 116.508ZM279.934 92.2V71.2H277.934V92.2H279.934ZM278.934 70.2H267.684V72.2H278.934V70.2ZM268.684 71.2V46.45H266.684V71.2H268.684ZM267.684 47.45H278.934V45.45H267.684V47.45ZM279.934 46.45V23.5H277.934V46.45H279.934ZM278.934 24.5H312.834V22.5H278.934V24.5ZM311.834 23.5V46.45H313.834V23.5H311.834ZM312.834 47.45H329.634V45.45H312.834V47.45ZM328.634 46.45V71.2H330.634V46.45H328.634ZM329.634 70.2H312.834V72.2H329.634V70.2ZM311.834 71.2V91.9H313.834V71.2H311.834ZM311.834 91.9C311.834 94.5723 312.531 96.7941 314.051 98.4304L315.516 97.0695C314.436 95.9059 313.834 94.2277 313.834 91.9H311.834ZM314.051 98.4304C315.56 100.056 317.536 100.85 319.884 100.85V98.85C318.031 98.85 316.607 98.2443 315.516 97.0695L314.051 98.4304ZM319.884 100.85C322.966 100.85 325.716 100.05 328.097 98.4262L326.97 96.7738C324.951 98.1504 322.601 98.85 319.884 98.85V100.85ZM326.588 97.9252L334.688 121.475L336.579 120.825L328.479 97.2747L326.588 97.9252ZM425.478 49.6L424.771 50.3071L424.776 50.3128L425.478 49.6ZM434.778 124V125H435.778V124H434.778ZM400.878 124H399.878V125H400.878V124ZM381.528 73L380.78 72.3356L380.779 72.3374L381.528 73ZM378.078 124V125H379.078V124H378.078ZM344.178 124H343.178V125H344.178V124ZM344.178 41.95V40.95H343.178V41.95H344.178ZM376.428 41.95H377.428V40.95H376.428V41.95ZM376.428 50.05H375.428V52.4642L377.135 50.7571L376.428 50.05ZM387.528 42.85L387.884 43.7845L387.884 43.7845L387.528 42.85ZM401.178 41.45C411.061 41.45 418.89 44.4266 424.771 50.3071L426.185 48.8929C419.865 42.5734 411.494 39.45 401.178 39.45V41.45ZM424.776 50.3128C430.718 56.1584 433.778 65.0555 433.778 77.2H435.778C435.778 64.7445 432.638 55.2416 426.179 48.8872L424.776 50.3128ZM433.778 77.2V124H435.778V77.2H433.778ZM434.778 123H400.878V125H434.778V123ZM401.878 124V83.05H399.878V124H401.878ZM401.878 83.05C401.878 78.2615 401.03 74.4906 399.18 71.8946C397.285 69.2362 394.441 67.95 390.828 67.95V69.95C393.914 69.95 396.096 71.0138 397.551 73.0554C399.051 75.1594 399.878 78.4385 399.878 83.05H401.878ZM390.828 67.95C386.759 67.95 383.381 69.4099 380.78 72.3356L382.275 73.6644C384.474 71.1901 387.297 69.95 390.828 69.95V67.95ZM380.779 72.3374C378.241 75.2063 377.078 79.6525 377.078 85.45H379.078C379.078 79.8475 380.215 75.9937 382.277 73.6626L380.779 72.3374ZM377.078 85.45V124H379.078V85.45H377.078ZM378.078 123H344.178V125H378.078V123ZM345.178 124V41.95H343.178V124H345.178ZM344.178 42.95H376.428V40.95H344.178V42.95ZM375.428 41.95V50.05H377.428V41.95H375.428ZM377.135 50.7571C380.236 47.6561 383.816 45.3339 387.884 43.7845L387.172 41.9155C382.839 43.5661 379.02 46.0439 375.721 49.3429L377.135 50.7571ZM387.884 43.7845C391.96 42.2315 396.388 41.45 401.178 41.45V39.45C396.167 39.45 391.495 40.2684 387.172 41.9155L387.884 43.7845ZM537.815 90.85V91.85H538.754L538.813 90.9124L537.815 90.85ZM480.815 90.85V89.85H479.355L479.882 91.211L480.815 90.85ZM486.815 98.05L486.296 98.9048L486.307 98.9117L486.319 98.9182L486.815 98.05ZM506.315 99.1L505.976 98.159L505.964 98.1637L506.315 99.1ZM514.415 94.45L515.125 93.7459L514.508 93.124L513.81 93.6533L514.415 94.45ZM532.115 112.3L532.855 112.973L533.493 112.27L532.825 111.596L532.115 112.3ZM470.165 120.1L469.722 120.997L469.732 121.002L470.165 120.1ZM452.765 104.8L453.611 104.266L452.765 104.8ZM452.615 61L451.769 60.4665L451.767 60.47L452.615 61ZM469.265 45.85L468.813 44.9581L468.807 44.9607L469.265 45.85ZM515.765 45.4L515.328 46.2997L515.333 46.3021L515.765 45.4ZM532.115 59.95L531.267 60.48L531.273 60.4894L532.115 59.95ZM484.715 66.4L485.352 67.171L485.352 67.171L484.715 66.4ZM480.215 74.5L479.234 74.3039L478.995 75.5H480.215V74.5ZM506.615 74.5V75.5H507.842L507.594 74.2983L506.615 74.5ZM502.115 66.55L501.459 67.3046L501.468 67.3129L501.478 67.321L502.115 66.55ZM537.265 82.9C537.265 83.3591 537.118 85.961 536.817 90.7876L538.813 90.9124C539.111 86.139 539.265 83.4409 539.265 82.9H537.265ZM537.815 89.85H480.815V91.85H537.815V89.85ZM479.882 91.211C481.161 94.5134 483.304 97.0885 486.296 98.9048L487.334 97.1952C484.725 95.6115 482.869 93.3866 481.747 90.489L479.882 91.211ZM486.319 98.9182C489.309 100.627 492.992 101.45 497.315 101.45V99.45C493.238 99.45 489.921 98.6731 487.311 97.1818L486.319 98.9182ZM497.315 101.45C500.99 101.45 504.118 100.992 506.666 100.036L505.964 98.1637C503.711 99.0083 500.84 99.45 497.315 99.45V101.45ZM506.654 100.041C509.277 99.0965 512.066 97.487 515.019 95.2467L513.81 93.6533C510.964 95.813 508.353 97.3035 505.976 98.1591L506.654 100.041ZM513.705 95.1541L531.405 113.004L532.825 111.596L515.125 93.7459L513.705 95.1541ZM531.375 111.627C523.622 120.155 511.983 124.5 496.265 124.5V126.5C512.347 126.5 524.607 122.045 532.855 112.973L531.375 111.627ZM496.265 124.5C486.486 124.5 477.939 122.722 470.598 119.198L469.732 121.002C477.39 124.678 486.243 126.5 496.265 126.5V124.5ZM470.607 119.203C463.258 115.577 457.604 110.597 453.611 104.266L451.919 105.334C456.126 112.003 462.072 117.223 469.722 120.997L470.607 119.203ZM453.611 104.266C449.617 97.935 447.615 90.8219 447.615 82.9H445.615C445.615 91.1781 447.713 98.665 451.919 105.334L453.611 104.266ZM447.615 82.9C447.615 74.8706 449.571 67.7574 453.463 61.53L451.767 60.47C447.659 67.0426 445.615 74.5294 445.615 82.9H447.615ZM453.461 61.5335C457.463 55.1885 462.877 50.2596 469.722 46.7393L468.807 44.9607C461.653 48.6404 455.967 53.8115 451.769 60.4665L453.461 61.5335ZM469.717 46.7419C476.663 43.2202 484.455 41.45 493.115 41.45V39.45C484.175 39.45 476.067 41.2798 468.813 44.9581L469.717 46.7419ZM493.115 41.45C501.279 41.45 508.677 43.072 515.328 46.2996L516.201 44.5003C509.252 41.128 501.551 39.45 493.115 39.45V41.45ZM515.333 46.3021C522.064 49.5213 527.369 54.2434 531.267 60.48L532.963 59.42C528.861 52.8566 523.265 47.8787 516.196 44.4979L515.333 46.3021ZM531.273 60.4894C535.253 66.7025 537.265 74.1579 537.265 82.9H539.265C539.265 73.8421 537.177 65.9975 532.957 59.4106L531.273 60.4894ZM493.415 62.55C489.725 62.55 486.587 63.5562 484.078 65.629L485.352 67.171C487.442 65.4438 490.105 64.55 493.415 64.55V62.55ZM484.078 65.629C481.568 67.7028 479.97 70.6245 479.234 74.3039L481.195 74.6961C481.86 71.3755 483.262 68.8972 485.352 67.171L484.078 65.629ZM480.215 75.5H506.615V73.5H480.215V75.5ZM507.594 74.2983C506.856 70.7133 505.255 67.8473 502.752 65.779L501.478 67.321C503.574 69.0527 504.973 71.4867 505.635 74.7017L507.594 74.2983ZM502.771 65.7954C500.262 63.6139 497.118 62.55 493.415 62.55V64.55C496.712 64.55 499.367 65.4861 501.459 67.3046L502.771 65.7954ZM581.213 50.8H580.213V53.474L581.967 51.4562L581.213 50.8ZM607.763 40.45H608.763V39.45H607.763V40.45ZM607.763 70.45L607.616 71.4392L608.763 71.6091V70.45H607.763ZM582.863 124V125H583.863V124H582.863ZM548.963 124H547.963V125H548.963V124ZM548.963 41.95V40.95H547.963V41.95H548.963ZM581.213 41.95H582.213V40.95H581.213V41.95ZM581.967 51.4562C587.727 44.8325 596.266 41.45 607.763 41.45V39.45C595.86 39.45 586.699 42.9675 580.458 50.1438L581.967 51.4562ZM606.763 40.45V70.45H608.763V40.45H606.763ZM607.909 69.4608C605.17 69.0549 602.62 68.85 600.263 68.85V70.85C602.506 70.85 604.956 71.0451 607.616 71.4392L607.909 69.4608ZM600.263 68.85C594.304 68.85 589.653 70.3666 586.5 73.574C583.35 76.7782 581.863 81.5001 581.863 87.55H583.863C583.863 81.7999 585.276 77.6718 587.926 74.976C590.573 72.2834 594.621 70.85 600.263 70.85V68.85ZM581.863 87.55V124H583.863V87.55H581.863ZM582.863 123H548.963V125H582.863V123ZM549.963 124V41.95H547.963V124H549.963ZM548.963 42.95H581.213V40.95H548.963V42.95ZM580.213 41.95V50.8H582.213V41.95H580.213ZM628.771 123.25L628.556 124.227L628.771 123.25ZM612.271 117.4L611.348 117.016L611.009 117.83L611.775 118.268L612.271 117.4ZM621.571 95.05L622.089 94.1945L621.094 93.5926L620.648 94.6658L621.571 95.05ZM635.071 100.45L635.314 99.4799L635.314 99.4799L635.071 100.45ZM658.321 101.5L658.692 102.428L658.707 102.423L658.722 102.416L658.321 101.5ZM657.721 95.8L657.467 96.7671L657.479 96.7701L657.721 95.8ZM648.271 94.3L648.153 95.293L648.158 95.2936L648.271 94.3ZM631.171 91.3L630.905 92.2638L630.914 92.2665L630.924 92.2689L631.171 91.3ZM618.721 83.95L618.004 84.6471L618.014 84.6571L618.721 83.95ZM618.271 54.25L617.476 53.644L617.476 53.644L618.271 54.25ZM632.521 44.2L632.157 43.2685L632.152 43.2705L632.521 44.2ZM673.621 42.25L673.422 43.2299L673.431 43.2319L673.441 43.2336L673.621 42.25ZM688.921 47.2L689.844 47.5842L690.196 46.739L689.385 46.3142L688.921 47.2ZM679.621 69.55L679.135 70.4242L680.114 70.9679L680.544 69.9342L679.621 69.55ZM647.821 70.3L647.534 71.2578L647.556 71.2645L647.579 71.2701L647.821 70.3ZM657.271 71.8L657.39 70.807L657.387 70.8067L657.271 71.8ZM674.221 74.95L673.949 75.9123L673.955 75.9138L674.221 74.95ZM686.521 82.3L685.804 82.9971L685.814 83.0071L686.521 82.3ZM687.121 111.7L687.917 112.306L687.917 112.306L687.121 111.7ZM672.721 121.75L673.085 122.681L673.085 122.681L672.721 121.75ZM649.471 124.5C642.543 124.5 635.715 123.758 628.987 122.273L628.556 124.227C635.427 125.742 642.399 126.5 649.471 126.5V124.5ZM628.987 122.273C622.246 120.787 616.85 118.865 612.767 116.532L611.775 118.268C616.092 120.735 621.697 122.713 628.556 124.227L628.987 122.273ZM613.194 117.784L622.494 95.4342L620.648 94.6658L611.348 117.016L613.194 117.784ZM621.053 95.9055C624.954 98.2667 629.551 100.101 634.829 101.42L635.314 99.4799C630.191 98.1993 625.788 96.4333 622.089 94.1945L621.053 95.9055ZM634.829 101.42C640.101 102.738 645.232 103.4 650.221 103.4V101.4C645.41 101.4 640.442 100.762 635.314 99.4799L634.829 101.42ZM650.221 103.4C654.118 103.4 656.995 103.108 658.692 102.428L657.95 100.572C656.647 101.092 654.124 101.4 650.221 101.4V103.4ZM658.722 102.416C660.536 101.622 661.721 100.338 661.721 98.5H659.721C659.721 99.2618 659.306 99.9777 657.92 100.584L658.722 102.416ZM661.721 98.5C661.721 97.5555 661.342 96.7388 660.64 96.1067C659.971 95.5044 659.045 95.1003 657.964 94.8299L657.479 96.7701C658.397 96.9997 658.971 97.2956 659.302 97.5933C659.6 97.8612 659.721 98.1445 659.721 98.5H661.721ZM657.976 94.8329C656 94.313 652.788 93.8068 648.384 93.3064L648.158 95.2936C652.554 95.7932 655.642 96.2869 657.467 96.7671L657.976 94.8329ZM648.39 93.3071C641.718 92.5104 636.063 91.517 631.418 90.3311L630.924 92.2689C635.679 93.483 641.425 94.4896 648.153 95.2929L648.39 93.3071ZM631.438 90.3362C626.912 89.0843 622.912 86.7263 619.428 83.2429L618.014 84.6571C621.731 88.3737 626.03 90.9157 630.905 92.2638L631.438 90.3362ZM619.438 83.2529C616.174 79.8952 614.471 75.0292 614.471 68.5H612.471C612.471 75.3708 614.269 80.8048 618.004 84.6471L619.438 83.2529ZM614.471 68.5C614.471 63.4181 616 58.8812 619.067 54.856L617.476 53.644C614.142 58.0188 612.471 62.9819 612.471 68.5H614.471ZM619.067 54.856C622.129 50.8362 626.712 47.5811 632.89 45.1295L632.152 43.2705C625.73 45.8189 620.813 49.2638 617.476 53.644L619.067 54.856ZM632.885 45.1315C639.14 42.6879 646.661 41.45 655.471 41.45V39.45C646.482 39.45 638.702 40.712 632.157 43.2685L632.885 45.1315ZM655.471 41.45C661.606 41.45 667.589 42.0437 673.422 43.2299L673.82 41.2701C667.853 40.0563 661.736 39.45 655.471 39.45V41.45ZM673.441 43.2336C679.369 44.3204 684.367 45.9437 688.457 48.0858L689.385 46.3142C685.075 44.0563 679.874 42.3796 673.801 41.2664L673.441 43.2336ZM687.998 46.8158L678.698 69.1658L680.544 69.9342L689.844 47.5842L687.998 46.8158ZM680.107 68.6758C672.752 64.5896 664.683 62.55 655.921 62.55V64.55C664.359 64.55 672.091 66.5104 679.135 70.4242L680.107 68.6758ZM655.921 62.55C652.19 62.55 649.278 62.8743 647.265 63.5815C646.254 63.9368 645.4 64.4122 644.789 65.0555C644.157 65.7218 643.821 66.5344 643.821 67.45H645.821C645.821 67.0656 645.947 66.7407 646.24 66.432C646.555 66.1003 647.089 65.7632 647.928 65.4685C649.615 64.8757 652.252 64.55 655.921 64.55V62.55ZM643.821 67.45C643.821 68.3923 644.197 69.2116 644.882 69.8625C645.539 70.4868 646.454 70.9339 647.534 71.2578L648.108 69.3422C647.188 69.0661 646.603 68.7382 646.26 68.4125C645.945 68.1134 645.821 67.8077 645.821 67.45H643.821ZM647.579 71.2701C649.645 71.7867 652.849 72.2925 657.156 72.7933L657.387 70.8067C653.094 70.3075 649.997 69.8133 648.064 69.3299L647.579 71.2701ZM657.153 72.7929C663.82 73.5891 669.415 74.631 673.949 75.9123L674.493 73.9877C669.827 72.669 664.122 71.6109 657.39 70.8071L657.153 72.7929ZM673.955 75.9138C678.478 77.165 682.424 79.5205 685.804 82.9971L687.238 81.6029C683.618 77.8795 679.364 75.335 674.488 73.9862L673.955 75.9138ZM685.814 83.0071C689.173 86.3659 690.921 91.2282 690.921 97.75H692.921C692.921 90.8718 691.069 85.4341 687.228 81.5929L685.814 83.0071ZM690.921 97.75C690.921 102.623 689.398 107.062 686.326 111.094L687.917 112.306C691.244 107.938 692.921 103.077 692.921 97.75H690.921ZM686.326 111.094C683.266 115.11 678.637 118.366 672.357 120.819L673.085 122.681C679.605 120.134 684.576 116.69 687.917 112.306L686.326 111.094ZM672.357 120.819C666.104 123.261 658.485 124.5 649.471 124.5V126.5C658.657 126.5 666.538 125.239 673.085 122.681L672.357 120.819ZM783.486 49.6L782.778 50.3071L782.784 50.3128L783.486 49.6ZM792.786 124V125H793.786V124H792.786ZM758.886 124H757.886V125H758.886V124ZM739.536 73L738.788 72.3356L738.787 72.3374L739.536 73ZM736.086 124V125H737.086V124H736.086ZM702.186 124H701.186V125H702.186V124ZM702.186 12.7V11.7H701.186V12.7H702.186ZM736.086 12.7H737.086V11.7H736.086V12.7ZM736.086 48.55H735.086V50.7242L736.736 49.3093L736.086 48.55ZM759.186 41.45C769.069 41.45 776.898 44.4266 782.778 50.3071L784.193 48.8929C777.873 42.5734 769.502 39.45 759.186 39.45V41.45ZM782.784 50.3128C788.726 56.1584 791.786 65.0555 791.786 77.2H793.786C793.786 64.7445 790.646 55.2416 784.187 48.8872L782.784 50.3128ZM791.786 77.2V124H793.786V77.2H791.786ZM792.786 123H758.886V125H792.786V123ZM759.886 124V83.05H757.886V124H759.886ZM759.886 83.05C759.886 78.2615 759.038 74.4906 757.187 71.8946C755.293 69.2362 752.449 67.95 748.836 67.95V69.95C751.922 69.95 754.104 71.0138 755.559 73.0554C757.058 75.1594 757.886 78.4385 757.886 83.05H759.886ZM748.836 67.95C744.767 67.95 741.389 69.4099 738.788 72.3356L740.283 73.6644C742.482 71.1901 745.304 69.95 748.836 69.95V67.95ZM738.787 72.3374C736.249 75.2063 735.086 79.6525 735.086 85.45H737.086C737.086 79.8475 738.222 75.9937 740.285 73.6626L738.787 72.3374ZM735.086 85.45V124H737.086V85.45H735.086ZM736.086 123H702.186V125H736.086V123ZM703.186 124V12.7H701.186V124H703.186ZM702.186 13.7H736.086V11.7H702.186V13.7ZM735.086 12.7V48.55H737.086V12.7H735.086ZM736.736 49.3093C742.837 44.08 750.299 41.45 759.186 41.45V39.45C749.872 39.45 741.934 42.22 735.435 47.7907L736.736 49.3093ZM807.508 41.95V40.95H806.508V41.95H807.508ZM841.408 41.95H842.408V40.95H841.408V41.95ZM841.408 124V125H842.408V124H841.408ZM807.508 124H806.508V125H807.508V124ZM809.608 30.55L808.942 31.2963L808.953 31.3058L808.964 31.3149L809.608 30.55ZM809.608 5.79999L810.262 6.55636L810.263 6.55503L809.608 5.79999ZM839.308 5.5L838.666 6.26652L838.666 6.26652L839.308 5.5ZM839.308 30.4L839.973 31.1463L839.979 31.1414L839.984 31.1363L839.308 30.4ZM807.508 42.95H841.408V40.95H807.508V42.95ZM840.408 41.95V124H842.408V41.95H840.408ZM841.408 123H807.508V125H841.408V123ZM808.508 124V41.95H806.508V124H808.508ZM824.458 34.35C818.538 34.35 813.833 32.8009 810.252 29.7851L808.964 31.3149C812.982 34.6991 818.178 36.35 824.458 36.35V34.35ZM810.273 29.8037C806.788 26.6953 805.058 22.8177 805.058 18.1H803.058C803.058 23.3823 805.027 27.8047 808.942 31.2963L810.273 29.8037ZM805.058 18.1C805.058 13.383 806.787 9.56164 810.262 6.55636L808.954 5.04363C805.029 8.43835 803.058 12.817 803.058 18.1H805.058ZM810.263 6.55503C813.845 3.4448 818.545 1.84999 824.458 1.84999V-0.150006C818.17 -0.150006 812.971 1.55518 808.952 5.04496L810.263 6.55503ZM824.458 1.84999C830.491 1.84999 835.192 3.35598 838.666 6.26652L839.95 4.73348C836.024 1.44401 830.825 -0.150006 824.458 -0.150006V1.84999ZM838.666 6.26652C842.135 9.17321 843.858 12.8907 843.858 17.5H845.858C845.858 12.3093 843.881 8.02677 839.95 4.73348L838.666 6.26652ZM843.858 17.5C843.858 22.4312 842.117 26.4604 838.631 29.6637L839.984 31.1363C843.899 27.5396 845.858 22.9688 845.858 17.5H843.858ZM838.642 29.6537C835.168 32.7523 830.476 34.35 824.458 34.35V36.35C830.839 36.35 836.048 34.6477 839.973 31.1463L838.642 29.6537ZM930.984 45.7L930.48 46.5638L930.488 46.5687L930.497 46.5735L930.984 45.7ZM945.384 60.55L944.503 61.0241L944.509 61.0345L945.384 60.55ZM945.384 105.55L944.509 105.065L944.506 105.07L945.384 105.55ZM930.984 120.4L931.477 121.27L931.481 121.267L930.984 120.4ZM890.334 118.45L891.033 117.735L889.334 116.071V118.45H890.334ZM890.334 153.1V154.1H891.334V153.1H890.334ZM856.434 153.1H855.434V154.1H856.434V153.1ZM856.434 41.95V40.95H855.434V41.95H856.434ZM888.684 41.95H889.684V40.95H888.684V41.95ZM888.684 48.7H887.684V51.3257L889.43 49.3652L888.684 48.7ZM912.684 94.9L913.43 95.566L913.43 95.566L912.684 94.9ZM912.684 71.2L911.926 71.8529L911.932 71.8595L911.938 71.866L912.684 71.2ZM893.484 71.2L894.23 71.866L894.235 71.8595L894.241 71.8529L893.484 71.2ZM893.484 94.9L892.738 95.566L892.738 95.566L893.484 94.9ZM911.184 41.45C918.213 41.45 924.638 43.1563 930.48 46.5638L931.487 44.8362C925.329 41.2437 918.554 39.45 911.184 39.45V41.45ZM930.497 46.5735C936.42 49.8752 941.088 54.682 944.503 61.0241L946.264 60.0759C942.679 53.418 937.747 48.3248 931.47 44.8265L930.497 46.5735ZM944.509 61.0345C948.015 67.366 949.784 74.6948 949.784 83.05H951.784C951.784 74.4052 949.952 66.734 946.258 60.0655L944.509 61.0345ZM949.784 83.05C949.784 91.4052 948.015 98.734 944.509 105.065L946.258 106.034C949.952 99.366 951.784 91.6948 951.784 83.05H949.784ZM944.506 105.07C941.091 111.315 936.42 116.128 930.486 119.533L931.481 121.267C937.747 117.672 942.676 112.585 946.261 106.03L944.506 105.07ZM930.491 119.53C924.648 122.841 918.219 124.5 911.184 124.5V126.5C918.548 126.5 925.32 124.759 931.477 121.27L930.491 119.53ZM911.184 124.5C902.25 124.5 895.588 122.195 891.033 117.735L889.634 119.165C894.679 124.105 901.917 126.5 911.184 126.5V124.5ZM889.334 118.45V153.1H891.334V118.45H889.334ZM890.334 152.1H856.434V154.1H890.334V152.1ZM857.434 153.1V41.95H855.434V153.1H857.434ZM856.434 42.95H888.684V40.95H856.434V42.95ZM887.684 41.95V48.7H889.684V41.95H887.684ZM889.43 49.3652C894.078 44.1486 901.259 41.45 911.184 41.45V39.45C900.909 39.45 893.089 42.2514 887.937 48.0348L889.43 49.3652ZM903.084 100.1C907.256 100.1 910.732 98.5877 913.43 95.566L911.938 94.234C909.636 96.8123 906.711 98.1 903.084 98.1V100.1ZM913.43 95.566C916.144 92.5258 917.434 88.3068 917.434 83.05H915.434C915.434 87.9932 914.223 91.6742 911.938 94.234L913.43 95.566ZM917.434 83.05C917.434 77.7932 916.144 73.5742 913.43 70.534L911.938 71.866C914.223 74.4258 915.434 78.1068 915.434 83.05H917.434ZM913.441 70.5471C910.747 67.422 907.268 65.85 903.084 65.85V67.85C906.699 67.85 909.62 69.178 911.926 71.8529L913.441 70.5471ZM903.084 65.85C898.899 65.85 895.42 67.422 892.726 70.5471L894.241 71.8529C896.547 69.178 899.468 67.85 903.084 67.85V65.85ZM892.738 70.534C890.023 73.5742 888.734 77.7932 888.734 83.05H890.734C890.734 78.1068 891.944 74.4258 894.23 71.866L892.738 70.534ZM888.734 83.05C888.734 88.3068 890.023 92.5258 892.738 95.566L894.23 94.234C891.944 91.6742 890.734 87.9932 890.734 83.05H888.734ZM892.738 95.566C895.436 98.5877 898.911 100.1 903.084 100.1V98.1C899.456 98.1 896.532 96.8123 894.23 94.234L892.738 95.566Z" fill="white"/>
</g>
<defs>
<filter id="filter0_b_58_6191" x="-3.4502" y="-3.1499" width="958.234" height="160.25" filterUnits="userSpaceOnUse" color-interpolation-filters="sRGB">
<feFlood flood-opacity="0" result="BackgroundImageFix"/>
<feGaussianBlur in="BackgroundImage" stdDeviation="2"/>
<feComposite in2="SourceAlpha" operator="in" result="effect1_backgroundBlur_58_6191"/>
<feBlend mode="normal" in="SourceGraphic" in2="effect1_backgroundBlur_58_6191" result="shape"/>
</filter>
</defs>
</svg>
