<svg width="265" height="46" viewBox="0 0 265 46" fill="none" xmlns="http://www.w3.org/2000/svg">
<path d="M27.9626 4.86L27.5478 5.76992L27.5528 5.77217L27.9626 4.86ZM34.3226 26.34L35.1614 26.8845L35.1656 26.8778L34.3226 26.34ZM27.9626 31.62L28.3662 32.5349L28.3724 32.5322L27.9626 31.62ZM9.84258 33.42V32.42H8.84258V33.42H9.84258ZM9.84258 45V46H10.8426V45H9.84258ZM0.122578 45H-0.877422V46H0.122578V45ZM0.122578 3V2H-0.877422V3H0.122578ZM24.4226 23.64L25.0547 24.4149L25.0608 24.4099L25.0667 24.4049L24.4226 23.64ZM24.4226 12.84L23.7784 13.6049L23.7844 13.6099L23.7905 13.6149L24.4226 12.84ZM9.84258 10.92V9.92H8.84258V10.92H9.84258ZM9.84258 25.5H8.84258V26.5H9.84258V25.5ZM18.3026 4C21.9135 4 24.9858 4.60193 27.5478 5.76991L28.3774 3.95009C25.4994 2.63807 22.1317 2 18.3026 2V4ZM27.5528 5.77217C30.1579 6.9426 32.1201 8.58361 33.4838 10.6845L35.1614 9.59553C33.5651 7.13639 31.2872 5.25739 28.3724 3.94783L27.5528 5.77217ZM33.4838 10.6845C34.8437 12.7794 35.5426 15.2839 35.5426 18.24H37.5426C37.5426 14.956 36.7615 12.0606 35.1614 9.59553L33.4838 10.6845ZM35.5426 18.24C35.5426 21.1529 34.8451 23.6615 33.4795 25.8022L35.1656 26.8778C36.76 24.3785 37.5426 21.4871 37.5426 18.24H35.5426ZM33.4838 25.7955C32.1201 27.8964 30.1579 29.5374 27.5528 30.7078L28.3724 32.5322C31.2872 31.2226 33.5651 29.3436 35.1614 26.8845L33.4838 25.7955ZM27.5589 30.7051C24.9938 31.8368 21.9174 32.42 18.3026 32.42V34.42C22.1277 34.42 25.4914 33.8032 28.3662 32.5349L27.5589 30.7051ZM18.3026 32.42H9.84258V34.42H18.3026V32.42ZM8.84258 33.42V45H10.8426V33.42H8.84258ZM9.84258 44H0.122578V46H9.84258V44ZM1.12258 45V3H-0.877422V45H1.12258ZM0.122578 4H18.3026V2H0.122578V4ZM17.7626 26.5C20.8045 26.5 23.2872 25.8568 25.0547 24.4149L23.7905 22.8651C22.5179 23.9032 20.5606 24.5 17.7626 24.5V26.5ZM25.0667 24.4049C26.8512 22.9022 27.7026 20.8001 27.7026 18.24H25.7026C25.7026 20.3199 25.034 21.8178 23.7784 22.8751L25.0667 24.4049ZM27.7026 18.24C27.7026 15.6471 26.8552 13.534 25.0547 12.0651L23.7905 13.6149C25.03 14.626 25.7026 16.1129 25.7026 18.24H27.7026ZM25.0667 12.0751C23.2984 10.586 20.8107 9.92 17.7626 9.92V11.92C20.5544 11.92 22.5067 12.534 23.7784 13.6049L25.0667 12.0751ZM17.7626 9.92H9.84258V11.92H17.7626V9.92ZM8.84258 10.92V25.5H10.8426V10.92H8.84258ZM9.84258 26.5H17.7626V24.5H9.84258V26.5ZM54.762 16.98H53.762V20.0875L55.5743 17.5632L54.762 16.98ZM59.262 13.44L58.8773 12.5169L58.8704 12.5198L59.262 13.44ZM65.862 12.24H66.862V11.24H65.862V12.24ZM65.862 20.88L65.7853 21.8771L66.862 21.9599V20.88H65.862ZM57.462 23.04L58.1596 23.7565L58.1691 23.7471L57.462 23.04ZM55.182 45V46H56.182V45H55.182ZM45.822 45H44.822V46H45.822V45ZM45.822 12.72V11.72H44.822V12.72H45.822ZM54.762 12.72H55.762V11.72H54.762V12.72ZM55.5743 17.5632C56.5806 16.1615 57.9308 15.0932 59.6535 14.3602L58.8704 12.5198C56.8332 13.3868 55.1833 14.6785 53.9496 16.3968L55.5743 17.5632ZM59.6466 14.3631C61.4236 13.6226 63.4891 13.24 65.862 13.24V11.24C63.2748 11.24 60.9403 11.6574 58.8773 12.5169L59.6466 14.3631ZM64.862 12.24V20.88H66.862V12.24H64.862ZM65.9387 19.8829C64.9041 19.8034 64.1664 19.76 63.762 19.76V21.76C64.0775 21.76 64.7399 21.7966 65.7853 21.8771L65.9387 19.8829ZM63.762 19.76C60.8859 19.76 58.5062 20.5815 56.7548 22.3329L58.1691 23.7471C59.4577 22.4585 61.278 21.76 63.762 21.76V19.76ZM56.7643 22.3235C54.9825 24.0584 54.182 26.6036 54.182 29.76H56.182C56.182 26.9164 56.9014 24.9816 58.1596 23.7565L56.7643 22.3235ZM54.182 29.76V45H56.182V29.76H54.182ZM55.182 44H45.822V46H55.182V44ZM46.822 45V12.72H44.822V45H46.822ZM45.822 13.72H54.762V11.72H45.822V13.72ZM53.762 12.72V16.98H55.762V12.72H53.762ZM80.3145 43.38L79.8411 44.2609L79.8489 44.2651L79.8568 44.2691L80.3145 43.38ZM74.0145 37.44L73.1582 37.9565L73.1582 37.9565L74.0145 37.44ZM74.0145 20.28L73.1582 19.7635L73.1582 19.7635L74.0145 20.28ZM80.3145 14.4L80.7775 15.2864L80.7823 15.2838L80.3145 14.4ZM98.6145 14.4L98.1411 15.2809L98.1514 15.2863L98.6145 14.4ZM104.914 20.28L105.771 19.7635L105.771 19.7635L104.914 20.28ZM104.914 37.44L105.771 37.9565L105.771 37.9565L104.914 37.44ZM98.6145 43.38L99.0775 44.2664L99.0878 44.2609L98.6145 43.38ZM95.3745 35.4L94.6499 34.7108L94.6495 34.7112L95.3745 35.4ZM95.3745 22.38L94.641 23.0598L94.6496 23.069L94.6585 23.0781L95.3745 22.38ZM83.5545 22.38L84.2705 23.0782L84.279 23.0692L83.5545 22.38ZM83.5545 35.4L82.8298 36.0893L82.8385 36.0981L83.5545 35.4ZM89.4945 44.48C86.2357 44.48 83.3354 43.8102 80.7721 42.4909L79.8568 44.2691C82.7335 45.7498 85.9533 46.48 89.4945 46.48V44.48ZM80.7878 42.4991C78.2602 41.141 76.2949 39.2845 74.8707 36.9235L73.1582 37.9565C74.774 40.6355 77.0087 42.739 79.8411 44.2609L80.7878 42.4991ZM74.8707 36.9235C73.4529 34.5729 72.7345 31.8944 72.7345 28.86H70.7345C70.7345 32.2256 71.536 35.2671 73.1582 37.9565L74.8707 36.9235ZM72.7345 28.86C72.7345 25.8256 73.4529 23.1471 74.8707 20.7965L73.1582 19.7635C71.536 22.4529 70.7345 25.4944 70.7345 28.86H72.7345ZM74.8707 20.7965C76.2933 18.438 78.2553 16.6039 80.7775 15.2863L79.8514 13.5136C77.0136 14.9961 74.7756 17.082 73.1582 19.7635L74.8707 20.7965ZM80.7823 15.2838C83.3436 13.9278 86.2402 13.24 89.4945 13.24V11.24C85.9487 11.24 82.7254 11.9921 79.8466 13.5162L80.7823 15.2838ZM89.4945 13.24C92.749 13.24 95.6231 13.9279 98.1411 15.2809L99.0878 13.5191C96.2458 11.9921 93.0399 11.24 89.4945 11.24V13.24ZM98.1514 15.2863C100.674 16.6039 102.636 18.438 104.058 20.7965L105.771 19.7635C104.153 17.082 101.915 14.9961 99.0775 13.5136L98.1514 15.2863ZM104.058 20.7965C105.476 23.1471 106.194 25.8256 106.194 28.86H108.194C108.194 25.4944 107.393 22.4529 105.771 19.7635L104.058 20.7965ZM106.194 28.86C106.194 31.8944 105.476 34.5729 104.058 36.9235L105.771 37.9565C107.393 35.2671 108.194 32.2256 108.194 28.86H106.194ZM104.058 36.9235C102.634 39.2845 100.669 41.141 98.1411 42.4991L99.0878 44.2609C101.92 42.739 104.155 40.6355 105.771 37.9565L104.058 36.9235ZM98.1514 42.4937C95.6313 43.8101 92.7535 44.48 89.4945 44.48V46.48C93.0354 46.48 96.2376 45.7499 99.0775 44.2663L98.1514 42.4937ZM89.4945 38.8C92.1419 38.8 94.3731 37.906 96.0995 36.0887L94.6495 34.7112C93.3359 36.094 91.647 36.8 89.4945 36.8V38.8ZM96.099 36.0892C97.8704 34.227 98.7145 31.7816 98.7145 28.86H96.7145C96.7145 31.3784 95.9985 33.293 94.6499 34.7108L96.099 36.0892ZM98.7145 28.86C98.7145 25.9393 97.8706 23.5077 96.0905 21.6819L94.6585 23.0781C95.9983 24.4523 96.7145 26.3407 96.7145 28.86H98.7145ZM96.1079 21.7002C94.3836 19.8399 92.15 18.92 89.4945 18.92V20.92C91.6389 20.92 93.3253 21.6401 94.641 23.0598L96.1079 21.7002ZM89.4945 18.92C86.8391 18.92 84.591 19.8393 82.8299 21.6908L84.279 23.0692C85.6379 21.6407 87.3499 20.92 89.4945 20.92V18.92ZM82.8385 21.6819C81.0583 23.5077 80.2145 25.9393 80.2145 28.86H82.2145C82.2145 26.3407 82.9306 24.4523 84.2705 23.0781L82.8385 21.6819ZM80.2145 28.86C80.2145 31.7816 81.0585 34.227 82.8299 36.0892L84.279 34.7108C82.9304 33.293 82.2145 31.3784 82.2145 28.86H80.2145ZM82.8385 36.0981C84.6016 37.9064 86.847 38.8 89.4945 38.8V36.8C87.3419 36.8 85.6273 36.0936 84.2705 34.7019L82.8385 36.0981ZM149.331 0.479997H150.331V-0.520003H149.331V0.479997ZM149.331 45V46H150.331V45H149.331ZM140.391 45H139.391V46H140.391V45ZM140.391 41.28H141.391V38.5057L139.621 40.642L140.391 41.28ZM122.031 43.44L121.544 44.3135L121.55 44.3168L122.031 43.44ZM116.271 37.62L117.145 37.1344L117.145 37.1344L116.271 37.62ZM116.271 20.1L117.145 20.5856L117.145 20.5856L116.271 20.1ZM122.031 14.28L121.55 13.4032L121.544 13.4065L122.031 14.28ZM139.971 16.14L139.225 16.8058L140.971 18.7627V16.14H139.971ZM139.971 0.479997V-0.520003H138.971V0.479997H139.971ZM137.811 35.4L138.527 36.0982L138.535 36.0892L137.811 35.4ZM137.811 22.38L137.086 23.0693L137.095 23.0781L137.811 22.38ZM125.991 22.38L126.707 23.0782L126.715 23.0692L125.991 22.38ZM125.991 35.4L125.266 36.0893L125.275 36.0981L125.991 35.4ZM148.331 0.479997V45H150.331V0.479997H148.331ZM149.331 44H140.391V46H149.331V44ZM141.391 45V41.28H139.391V45H141.391ZM139.621 40.642C137.531 43.1645 134.482 44.48 130.311 44.48V46.48C134.94 46.48 138.611 44.9955 141.161 41.918L139.621 40.642ZM130.311 44.48C127.426 44.48 124.833 43.8364 122.512 42.5632L121.55 44.3168C124.188 45.7636 127.116 46.48 130.311 46.48V44.48ZM122.518 42.5665C120.246 41.3002 118.458 39.497 117.145 37.1344L115.397 38.1056C116.884 40.783 118.936 42.8598 121.544 44.3135L122.518 42.5665ZM117.145 37.1344C115.839 34.7841 115.171 32.0361 115.171 28.86H113.171C113.171 32.3239 113.902 35.4159 115.397 38.1056L117.145 37.1344ZM115.171 28.86C115.171 25.6839 115.839 22.9359 117.145 20.5856L115.397 19.6144C113.902 22.3041 113.171 25.3961 113.171 28.86H115.171ZM117.145 20.5856C118.458 18.223 120.246 16.4198 122.518 15.1535L121.544 13.4065C118.936 14.8602 116.884 16.937 115.397 19.6144L117.145 20.5856ZM122.512 15.1568C124.833 13.8836 127.426 13.24 130.311 13.24V11.24C127.116 11.24 124.188 11.9564 121.55 13.4032L122.512 15.1568ZM130.311 13.24C134.203 13.24 137.129 14.4575 139.225 16.8058L140.717 15.4742C138.172 12.6225 134.659 11.24 130.311 11.24V13.24ZM140.971 16.14V0.479997H138.971V16.14H140.971ZM139.971 1.48H149.331V-0.520003H139.971V1.48ZM131.931 38.8C134.544 38.8 136.767 37.9029 138.527 36.0981L137.095 34.7019C135.735 36.0971 134.038 36.8 131.931 36.8V38.8ZM138.535 36.0892C140.307 34.227 141.151 31.7816 141.151 28.86H139.151C139.151 31.3784 138.435 33.293 137.086 34.7108L138.535 36.0892ZM141.151 28.86C141.151 25.9393 140.307 23.5077 138.527 21.6819L137.095 23.0781C138.435 24.4523 139.151 26.3407 139.151 28.86H141.151ZM138.535 21.6908C136.778 19.843 134.552 18.92 131.931 18.92V20.92C134.03 20.92 135.724 21.637 137.086 23.0692L138.535 21.6908ZM131.931 18.92C129.275 18.92 127.027 19.8393 125.266 21.6908L126.715 23.0692C128.074 21.6407 129.786 20.92 131.931 20.92V18.92ZM125.275 21.6819C123.495 23.5077 122.651 25.9393 122.651 28.86H124.651C124.651 26.3407 125.367 24.4523 126.707 23.0781L125.275 21.6819ZM122.651 28.86C122.651 31.7816 123.495 34.227 125.266 36.0892L126.715 34.7108C125.367 33.293 124.651 31.3784 124.651 28.86H122.651ZM125.275 36.0981C127.038 37.9064 129.283 38.8 131.931 38.8V36.8C129.778 36.8 128.064 36.0936 126.707 34.7019L125.275 36.0981ZM193.514 12.72H194.514V11.72H193.514V12.72ZM193.514 45V46H194.514V45H193.514ZM184.634 45H183.634V46H184.634V45ZM184.634 41.16H185.634V38.5228L183.885 40.497L184.634 41.16ZM180.194 44.4L180.58 45.3224L180.589 45.3187L180.598 45.3147L180.194 44.4ZM164.534 41.82L165.235 41.1072L165.235 41.1072L164.534 41.82ZM160.814 12.72V11.72H159.814V12.72H160.814ZM170.174 12.72H171.174V11.72H170.174V12.72ZM182.114 35.22L182.841 35.9067L182.85 35.8966L182.114 35.22ZM184.154 12.72V11.72H183.154V12.72H184.154ZM192.514 12.72V45H194.514V12.72H192.514ZM193.514 44H184.634V46H193.514V44ZM185.634 45V41.16H183.634V45H185.634ZM183.885 40.497C182.741 41.7887 181.379 42.7831 179.79 43.4853L180.598 45.3147C182.449 44.4969 184.047 43.3313 185.382 41.823L183.885 40.497ZM179.808 43.4776C178.219 44.1427 176.491 44.48 174.614 44.48V46.48C176.737 46.48 178.729 46.0973 180.58 45.3224L179.808 43.4776ZM174.614 44.48C170.575 44.48 167.489 43.3244 165.235 41.1072L163.832 42.5328C166.539 45.1956 170.172 46.48 174.614 46.48V44.48ZM165.235 41.1072C163.009 38.9174 161.814 35.5961 161.814 30.96H159.814C159.814 35.9239 161.098 39.8426 163.832 42.5328L165.235 41.1072ZM161.814 30.96V12.72H159.814V30.96H161.814ZM160.814 13.72H170.174V11.72H160.814V13.72ZM169.174 12.72V29.58H171.174V12.72H169.174ZM169.174 29.58C169.174 32.2954 169.739 34.5182 171.043 36.0725C172.374 37.6605 174.329 38.38 176.714 38.38V36.38C174.739 36.38 173.424 35.7995 172.575 34.7875C171.698 33.7418 171.174 32.0646 171.174 29.58H169.174ZM176.714 38.38C179.189 38.38 181.266 37.5737 182.841 35.9066L181.387 34.5334C180.241 35.7463 178.718 36.38 176.714 36.38V38.38ZM182.85 35.8966C184.441 34.1657 185.154 31.7028 185.154 28.68H183.154C183.154 31.4172 182.507 33.3143 181.378 34.5434L182.85 35.8966ZM185.154 28.68V12.72H183.154V28.68H185.154ZM184.154 13.72H193.514V11.72H184.154V13.72ZM211.485 43.38L211.017 44.2638L211.025 44.2679L211.033 44.2718L211.485 43.38ZM205.065 37.44L204.209 37.9565L204.215 37.9664L205.065 37.44ZM205.065 20.28L204.215 19.7536L204.209 19.7635L205.065 20.28ZM211.485 14.4L211.943 15.2891L211.948 15.2866L211.485 14.4ZM229.665 14.4L229.169 15.2682L229.177 15.2729L229.185 15.2774L229.665 14.4ZM235.245 20.46L235.718 21.3409L236.532 20.9037L236.161 20.0577L235.245 20.46ZM227.985 24.36L227.116 24.8536L227.598 25.7033L228.458 25.2409L227.985 24.36ZM214.665 22.32L213.958 21.6129L213.958 21.6129L214.665 22.32ZM227.985 33.36L228.464 32.4821L227.592 32.0064L227.111 32.8754L227.985 33.36ZM235.245 37.32L236.156 37.7327L236.539 36.8868L235.724 36.4421L235.245 37.32ZM229.665 43.32L229.175 42.4484L229.169 42.4518L229.665 43.32ZM220.785 44.48C217.485 44.48 214.542 43.8094 211.938 42.4882L211.033 44.2718C213.948 45.7506 217.206 46.48 220.785 46.48V44.48ZM211.953 42.4962C209.384 41.136 207.378 39.2767 205.915 36.9136L204.215 37.9664C205.872 40.6433 208.147 42.744 211.017 44.2638L211.953 42.4962ZM205.922 36.9235C204.504 34.5729 203.785 31.8944 203.785 28.86H201.785C201.785 32.2256 202.587 35.2671 204.209 37.9565L205.922 36.9235ZM203.785 28.86C203.785 25.8256 204.504 23.1471 205.922 20.7965L204.209 19.7635C202.587 22.4529 201.785 25.4944 201.785 28.86H203.785ZM205.915 20.8064C207.377 18.4458 209.379 16.6089 211.943 15.2891L211.028 13.5109C208.152 14.9911 205.874 17.0742 204.215 19.7536L205.915 20.8064ZM211.948 15.2866C214.55 13.9287 217.489 13.24 220.785 13.24V11.24C217.201 11.24 213.94 11.9913 211.023 13.5134L211.948 15.2866ZM220.785 13.24C224.041 13.24 226.824 13.9284 229.169 15.2682L230.161 13.5318C227.466 11.9916 224.329 11.24 220.785 11.24V13.24ZM229.185 15.2774C231.554 16.5728 233.26 18.427 234.33 20.8623L236.161 20.0577C234.911 17.213 232.896 15.0272 230.145 13.5226L229.185 15.2774ZM234.772 19.5791L227.512 23.4791L228.458 25.2409L235.718 21.3409L234.772 19.5791ZM228.855 23.8664C227.014 20.6229 224.278 18.92 220.725 18.92V20.92C223.493 20.92 225.596 22.1771 227.116 24.8536L228.855 23.8664ZM220.725 18.92C218.043 18.92 215.761 19.8097 213.958 21.6129L215.372 23.0271C216.769 21.6303 218.527 20.92 220.725 20.92V18.92ZM213.958 21.6129C212.131 23.4402 211.265 25.8968 211.265 28.86H213.265C213.265 26.3032 214 24.3998 215.372 23.0271L213.958 21.6129ZM211.265 28.86C211.265 31.8232 212.131 34.2798 213.958 36.1071L215.372 34.6929C214 33.3202 213.265 31.4168 213.265 28.86H211.265ZM213.958 36.1071C215.761 37.9103 218.043 38.8 220.725 38.8V36.8C218.527 36.8 216.769 36.0897 215.372 34.6929L213.958 36.1071ZM220.725 38.8C222.485 38.8 224.075 38.391 225.462 37.5431C226.846 36.6969 227.972 35.4467 228.86 33.8446L227.111 32.8754C226.358 34.2333 225.455 35.2031 224.419 35.8369C223.385 36.469 222.165 36.8 220.725 36.8V38.8ZM227.506 34.2379L234.766 38.1979L235.724 36.4421L228.464 32.4821L227.506 34.2379ZM234.334 36.9073C233.266 39.2644 231.558 41.1077 229.175 42.4484L230.155 44.1916C232.892 42.6523 234.904 40.4956 236.156 37.7327L234.334 36.9073ZM229.169 42.4518C226.824 43.7916 224.041 44.48 220.785 44.48V46.48C224.329 46.48 227.466 45.7284 230.161 44.1882L229.169 42.4518ZM264.923 43.44L265.518 44.2442L266.128 43.7928L265.857 43.0833L264.923 43.44ZM261.503 45L261.739 45.9719L261.749 45.9694L261.759 45.9667L261.503 45ZM248.363 42.54L247.677 43.2678L247.684 43.2743L248.363 42.54ZM245.243 20.64H246.243V19.64H245.243V20.64ZM240.263 20.64H239.263V21.64H240.263V20.64ZM240.263 13.44V12.44H239.263V13.44H240.263ZM245.243 13.44V14.44H246.243V13.44H245.243ZM245.243 5.58V4.58H244.243V5.58H245.243ZM254.603 5.58H255.603V4.58H254.603V5.58ZM254.603 13.44H253.603V14.44H254.603V13.44ZM262.643 13.44H263.643V12.44H262.643V13.44ZM262.643 20.64V21.64H263.643V20.64H262.643ZM254.603 20.64V19.64H253.603V20.64H254.603ZM255.623 36.96L254.878 37.6268L254.896 37.6475L254.916 37.6671L255.623 36.96ZM262.403 36.84L263.337 36.4833L262.858 35.2283L261.793 36.0474L262.403 36.84ZM264.329 42.6358C263.531 43.2257 262.512 43.6984 261.247 44.0333L261.759 45.9667C263.214 45.5816 264.476 45.0143 265.518 44.2442L264.329 42.6358ZM261.268 44.0281C260.031 44.3279 258.711 44.48 257.303 44.48V46.48C258.856 46.48 260.335 46.3121 261.739 45.9719L261.268 44.0281ZM257.303 44.48C253.63 44.48 250.923 43.5449 249.042 41.8057L247.684 43.2743C250.043 45.4551 253.296 46.48 257.303 46.48V44.48ZM249.049 41.8122C247.229 40.0976 246.243 37.5193 246.243 33.9H244.243C244.243 37.8807 245.337 41.0624 247.677 43.2678L249.049 41.8122ZM246.243 33.9V20.64H244.243V33.9H246.243ZM245.243 19.64H240.263V21.64H245.243V19.64ZM241.263 20.64V13.44H239.263V20.64H241.263ZM240.263 14.44H245.243V12.44H240.263V14.44ZM246.243 13.44V5.58H244.243V13.44H246.243ZM245.243 6.58H254.603V4.58H245.243V6.58ZM253.603 5.58V13.44H255.603V5.58H253.603ZM254.603 14.44H262.643V12.44H254.603V14.44ZM261.643 13.44V20.64H263.643V13.44H261.643ZM262.643 19.64H254.603V21.64H262.643V19.64ZM253.603 20.64V33.78H255.603V20.64H253.603ZM253.603 33.78C253.603 35.3026 253.986 36.6296 254.878 37.6268L256.368 36.2932C255.901 35.7704 255.603 34.9774 255.603 33.78H253.603ZM254.916 37.6671C255.869 38.62 257.15 39.04 258.623 39.04V37.04C257.537 37.04 256.817 36.74 256.33 36.2529L254.916 37.6671ZM258.623 39.04C260.294 39.04 261.776 38.5841 263.013 37.6326L261.793 36.0474C260.95 36.6959 259.912 37.04 258.623 37.04V39.04ZM261.469 37.1967L263.989 43.7967L265.857 43.0833L263.337 36.4833L261.469 37.1967Z" fill="#00305B"/>
</svg>
