<svg width="528" height="535" viewBox="0 0 528 535" fill="none" xmlns="http://www.w3.org/2000/svg">
<path d="M349.919 253.158C339.338 302.822 357.615 344.209 341.174 414.659C340.913 415.68 341.009 416.765 341.445 417.718C341.88 418.671 342.626 419.428 343.548 419.851C344.469 420.274 345.504 420.336 346.465 420.024C347.425 419.713 348.248 419.049 348.783 418.154C359.134 401.978 367.922 384.755 375.018 366.742C381.664 345.681 396.093 249.847 399.503 226.947C399.579 225.18 400.257 223.502 401.414 222.218C402.57 220.935 404.127 220.132 405.8 219.957V219.957C405.8 219.957 361.9 197.148 349.919 253.158ZM379.565 226.395C380.22 226.262 380.899 226.346 381.507 226.634C382.116 226.923 382.624 227.402 382.963 228.007C383.303 228.611 383.456 229.311 383.402 230.011C383.348 230.711 383.09 231.376 382.663 231.915C382.235 232.454 381.66 232.841 381.015 233.023C380.371 233.205 379.688 233.173 379.062 232.931C378.435 232.689 377.895 232.249 377.516 231.672C377.136 231.094 376.935 230.408 376.941 229.706C376.905 229.307 376.945 228.904 377.057 228.522C377.17 228.139 377.353 227.783 377.597 227.476C377.841 227.168 378.141 226.914 378.478 226.728C378.816 226.543 379.185 226.429 379.565 226.395V226.395ZM358.839 247.64C358.839 247.64 386.299 262.263 389.534 229.246C389.797 229.706 391.72 266.862 358.839 247.64Z" fill="#00305B" fill-opacity="0.05"/>
<path d="M351.319 240.19C351.319 240.19 368.11 164.958 403.265 197.332C403.265 197.332 369.247 183.077 351.319 240.19Z" fill="#00305B" fill-opacity="0.05"/>
<path d="M245.593 388.907C245.593 388.907 238.422 398.104 271.828 418.521C273.351 423.029 274.292 427.73 274.626 432.501C274.913 427.723 275.855 423.014 277.425 418.521C311.18 397.736 303.66 388.907 303.66 388.907C311.443 380.905 321.15 368.121 313.979 356.441C306.808 344.761 285.995 385.504 282.147 384.032C277.125 382.074 271.603 382.074 266.581 384.032C262.733 385.596 242.27 344.945 234.749 356.441C227.229 367.937 237.898 381.273 245.593 388.907ZM306.283 374.007C309.257 376.675 301.299 378.054 281.797 401.599C281.797 401.783 303.222 371.8 306.283 374.375V374.007Z" fill="#00305B" fill-opacity="0.05"/>
<path d="M335.228 359.845C337.764 383.757 339.338 447.861 274.975 435.445C210.612 447.861 212.099 383.757 214.723 359.845C205.978 434.709 240.957 442.618 252.151 443.63C254.252 443.721 256.31 444.286 258.185 445.286C263.278 448.422 269.074 450.075 274.975 450.075C280.877 450.075 286.673 448.422 291.766 445.286C293.637 444.275 295.697 443.71 297.8 443.63C309.256 442.894 344.323 434.893 335.228 359.845Z" fill="#00305B" fill-opacity="0.05"/>
<path d="M154.558 215.082C154.558 215.082 160.854 214.623 161.816 217.106C161.816 217.106 169.949 267.689 191.286 234.12C191.286 234.12 208.776 230.625 235.011 292.705C234.836 292.705 197.408 187.491 154.558 215.082ZM180.005 218.669C180.597 218.681 181.16 218.94 181.57 219.389C181.98 219.837 182.203 220.438 182.192 221.06C182.18 221.682 181.934 222.274 181.508 222.705C181.081 223.137 180.509 223.372 179.918 223.36C179.385 223.36 178.873 223.137 178.496 222.74C178.119 222.343 177.907 221.805 177.907 221.244C177.84 220.931 177.842 220.606 177.913 220.293C177.984 219.981 178.122 219.689 178.316 219.441C178.509 219.193 178.754 218.995 179.032 218.861C179.31 218.727 179.613 218.662 179.918 218.669H180.005ZM166.014 222.624C165.781 222.053 165.576 221.47 165.401 220.877C165.552 221.478 165.757 222.063 166.014 222.624C167.937 228.51 174.759 245.617 186.302 229.338C186.302 229.338 175.371 252.422 166.014 222.624V222.624Z" fill="#00305B" fill-opacity="0.05"/>
<path d="M166.012 222.623C165.755 222.062 165.55 221.477 165.399 220.875C165.574 221.469 165.779 222.052 166.012 222.623V222.623Z" fill="#00305B" fill-opacity="0.05"/>
<path d="M166.014 222.622C175.371 252.421 186.302 229.336 186.302 229.336C175.021 245.615 167.938 228.508 166.014 222.622Z" fill="#00305B" fill-opacity="0.05"/>
<path d="M145.462 223.359C145.462 223.359 142.838 260.883 159.192 275.507C175.545 290.13 178.868 334.736 178.868 334.736C178.868 334.736 177.206 286.543 168.374 277.99C155.138 262.99 147.07 243.753 145.462 223.359V223.359Z" fill="#00305B" fill-opacity="0.05"/>
<path d="M183.853 335.104C183.853 335.104 177.819 407.852 211.575 410.243C211.575 410.243 187.788 390.102 183.853 335.104Z" fill="#00305B" fill-opacity="0.05"/>
<path d="M274.975 481.89C320.974 481.89 332.43 430.386 333.304 425.604C321.411 499.181 274.975 491.271 274.975 491.271C274.975 491.271 228.539 499.273 216.646 425.696C217.52 430.387 228.976 481.89 274.975 481.89Z" fill="#00305B" fill-opacity="0.05"/>
<path d="M292.552 87.889C304.726 88.8472 316.832 85.2654 326.745 77.7722C327.371 77.2872 328.091 76.9545 328.854 76.7982C329.617 76.6418 330.404 76.6657 331.157 76.8681C331.91 77.0705 332.611 77.4464 333.209 77.9686C333.808 78.4908 334.288 79.1463 334.616 79.8876C337.369 85.0961 341.783 89.1147 347.079 91.2348C352.374 93.3549 358.212 93.4403 363.562 91.4759C364.312 91.2884 365.093 91.2716 365.85 91.4268C366.608 91.5819 367.325 91.9054 367.955 92.3755C368.584 92.8457 369.11 93.4517 369.499 94.153C369.887 94.8543 370.129 95.6348 370.208 96.4423C371.478 107.121 374.94 117.383 380.352 126.517C388.305 135.945 397.778 143.822 408.336 149.785C408.336 149.785 387.26 137.553 369.858 143.255C359.058 147.587 350.196 156.021 345.022 166.892C332.08 189.057 323.51 235.502 318.35 273.946C318.35 275.458 317.779 276.908 316.762 277.978C315.745 279.047 314.366 279.648 312.928 279.648C311.49 279.648 310.111 279.047 309.094 277.978C308.077 276.908 307.506 275.458 307.506 273.946C305.578 239.799 305.374 205.568 306.894 171.398C309.491 145.086 302.765 118.69 288.005 97.27C287.311 96.4123 286.874 95.3576 286.749 94.2389C286.624 93.1203 286.817 91.9878 287.303 90.9843C287.79 89.9809 288.548 89.1514 289.482 88.6005C290.416 88.0497 291.485 87.8021 292.552 87.889Z" fill="#00305B" fill-opacity="0.05"/>
<path d="M470.338 231.637C506.543 236.419 549.043 196.688 515.9 191.538C507.942 190.342 498.41 203.494 464.392 181.237C421.367 152.818 420.667 160.268 420.667 160.268C420.667 160.268 419.268 158.336 443.841 175.167C470.076 193.561 479.958 204.505 491.938 205.241C491.938 205.241 470.163 251.226 409.823 190.71C409.911 190.71 421.104 225.107 470.338 231.637Z" fill="#00305B" fill-opacity="0.05"/>
<path d="M371.082 82.0024C480.045 -15.3946 526.043 80.2549 526.043 80.2549C484.504 -56.6895 386.123 16.4273 343.885 56.2506C341.886 58.1042 340.35 60.4462 339.413 63.0707C338.476 65.6952 338.166 68.5216 338.512 71.3013C338.857 74.081 339.847 76.7288 341.394 79.0118C342.941 81.2948 344.998 83.1429 347.383 84.3936L348.52 84.9455C352.133 86.8682 356.209 87.6152 360.228 87.091C364.246 86.5668 368.025 84.7953 371.082 82.0024V82.0024Z" fill="#00305B" fill-opacity="0.05"/>
<path d="M263.169 489.061C249.256 507.396 230.522 521.021 209.3 528.24C209.3 528.24 284.332 497.89 286.868 487.773" fill="#00305B" fill-opacity="0.05"/>
<path d="M275.412 492.834C267.49 509.597 255.09 523.564 239.732 533.025C239.732 533.025 293.339 496.237 293.689 487.592" fill="#00305B" fill-opacity="0.05"/>
<path d="M289.841 488.786C284.858 506.713 274.974 522.704 261.42 534.771C261.42 534.771 308.031 488.786 306.981 480.049" fill="#00305B" fill-opacity="0.05"/>
<path d="M132.607 161.002C130.939 157.442 130.02 153.544 129.915 149.576C129.809 145.608 130.519 141.663 131.995 138.01C133.811 135.691 136.139 133.874 138.777 132.72C141.414 131.566 144.28 131.108 147.124 131.388C145.113 126.237 141.877 115.293 146.687 109.315C150.097 105.084 156.656 104.257 166.188 106.924C166.312 104.037 167.062 101.219 168.381 98.6847C169.7 96.1502 171.552 93.9664 173.796 92.3003C177.231 90.963 180.936 90.582 184.552 91.1943C188.168 91.8067 191.572 93.3916 194.434 95.7952C195.787 92.5457 197.757 89.6212 200.223 87.2014C202.69 84.7816 205.6 82.9176 208.776 81.7237C212.326 81.0621 215.974 81.2741 219.433 82.3432C222.892 83.4123 226.069 85.3094 228.715 87.8857C230.639 82.0916 235.886 69.4916 245.243 67.2843C252.239 65.9048 259.759 70.9631 267.63 82.3675L264.657 84.5748C257.748 74.55 251.452 69.9515 245.942 71.0551C237.897 72.6186 232.65 86.4142 231.338 91.6565C231.258 91.9645 231.103 92.2451 230.888 92.4708C230.674 92.6966 230.407 92.8597 230.114 92.9441C229.861 93.0975 229.575 93.1782 229.283 93.1782C228.992 93.1782 228.705 93.0975 228.452 92.9441C226.154 90.1779 223.247 88.0447 219.985 86.7302C216.724 85.4158 213.206 84.96 209.738 85.4025C200.993 87.7018 197.058 98.9222 196.97 99.0142C196.88 99.2911 196.73 99.5426 196.533 99.7498C196.336 99.9569 196.097 100.114 195.834 100.21C195.605 100.339 195.35 100.406 195.09 100.406C194.831 100.406 194.576 100.339 194.347 100.21C186.127 94.8755 179.655 93.312 175.545 95.7032C169.686 99.1061 169.599 109.407 169.599 109.499C169.592 109.783 169.526 110.062 169.405 110.317C169.284 110.571 169.112 110.794 168.899 110.97C168.65 111.082 168.383 111.139 168.112 111.139C167.842 111.139 167.574 111.082 167.325 110.97C158.58 108.027 152.021 108.303 149.835 111.522C145.812 116.489 149.835 128.077 151.846 132.124C152 132.42 152.08 132.752 152.08 133.089C152.08 133.427 152 133.759 151.846 134.055C151.671 134.321 151.435 134.535 151.16 134.68C150.885 134.825 150.58 134.894 150.272 134.883C142.839 134.883 137.854 136.262 135.493 140.033C130.596 147.115 136.193 158.979 136.193 158.979L132.607 161.002Z" fill="#00305B" fill-opacity="0.05"/>
<path d="M82.1489 241.753C68.0695 251.686 65.9707 271.46 70.1683 287.738C72.6722 297.461 77.0476 306.539 83.0234 314.41C85.4341 318.618 88.8692 322.072 92.974 324.416C97.0787 326.761 101.704 327.91 106.372 327.746L103.049 324.527C96.8404 343.933 96.9279 370.512 109.696 387.343C112.17 390.95 115.684 393.623 119.717 394.965C123.749 396.306 128.085 396.246 132.083 394.792C135.288 393.28 137.804 390.51 139.095 387.073C140.386 383.637 140.348 379.806 138.991 376.398C137.942 373.915 134.794 375.111 134.094 377.134C131.202 383.592 129.703 390.643 129.703 397.781C129.703 404.92 131.202 411.97 134.094 418.429C135.272 420.958 136.959 423.188 139.039 424.963C141.118 426.737 143.54 428.015 146.136 428.706C148.733 429.398 151.441 429.486 154.073 428.966C156.705 428.446 159.198 427.33 161.378 425.694L156.918 424.407C157.518 428.433 158.958 432.27 161.135 435.641C163.313 439.012 166.173 441.835 169.511 443.905C172.451 445.409 175.819 445.704 178.956 444.732C183.066 443.353 185.952 439.674 189.974 438.019C193.997 436.363 191.723 431.121 188.488 432.5C183.241 434.616 178.518 441.697 172.484 439.03C166.45 436.363 163.739 429.005 162.078 422.935C161.936 422.465 161.684 422.041 161.345 421.7C161.006 421.359 160.591 421.114 160.139 420.985C159.686 420.857 159.21 420.851 158.754 420.966C158.298 421.082 157.878 421.316 157.53 421.648C148.786 429.189 138.641 418.245 136.368 409.416C134.159 399.086 135.171 388.283 139.254 378.605L134.356 379.249C138.029 387.711 127.798 392.309 121.589 390.102C118.305 388.466 115.409 386.083 113.11 383.124C110.811 380.165 109.166 376.705 108.296 372.995C103.311 357.957 103.311 341.588 108.296 326.55C108.996 324.251 106.81 322.779 104.973 323.055C96.2283 324.435 88.6202 313.858 84.2477 307.236C79.8546 300.329 76.712 292.627 74.978 284.52C72.0047 271.46 73.4039 254.721 84.8598 246.72C87.7457 244.696 84.8598 239.73 82.1489 241.753Z" fill="#00305B" fill-opacity="0.05"/>
<path d="M274.013 115.478C272.327 111.598 269.793 108.191 266.616 105.538C263.44 102.884 259.711 101.059 255.736 100.211C252.374 99.3426 248.823 99.8968 245.846 101.755C242.87 103.612 240.706 106.625 239.82 110.144L241.831 109.316C235.535 105.913 227.314 102.051 220.756 107.109C218.182 109.766 216.294 113.068 215.269 116.704C214.244 120.341 214.116 124.191 214.897 127.894L216.908 126.699C212.098 124.032 205.977 121.64 201.779 126.699C197.898 132.339 195.844 139.142 195.92 146.104L198.019 144.909C192.072 140.402 182.977 135.712 176.943 142.15C173.586 144.991 171.007 148.719 169.47 152.953C167.934 157.187 167.495 161.775 168.198 166.246C168.352 166.543 168.598 166.775 168.895 166.904C169.192 167.033 169.522 167.05 169.83 166.953C170.138 166.856 170.404 166.65 170.585 166.371C170.766 166.091 170.849 165.755 170.822 165.418C170.249 161.698 170.591 157.885 171.815 154.344C173.04 150.802 175.106 147.649 177.818 145.185C179.061 143.5 180.823 142.322 182.801 141.852C184.779 141.382 186.851 141.65 188.662 142.61C191.65 143.658 194.456 145.211 196.969 147.208C197.844 147.944 198.981 147.208 198.981 146.012C199.014 140.966 200.057 135.984 202.042 131.389C205.102 124.859 210.349 126.147 215.596 128.998C215.807 129.106 216.04 129.156 216.274 129.145C216.508 129.133 216.736 129.06 216.936 128.932C217.137 128.804 217.303 128.625 217.42 128.411C217.537 128.198 217.602 127.957 217.608 127.71C216.874 124.514 216.872 121.18 217.601 117.982C218.331 114.784 219.772 111.814 221.805 109.316C227.314 104.35 235.01 108.213 240.432 111.248C240.612 111.353 240.813 111.416 241.019 111.431C241.225 111.445 241.431 111.412 241.623 111.333C241.816 111.254 241.989 111.131 242.131 110.973C242.272 110.815 242.379 110.626 242.443 110.42C244.192 101.223 253.549 101.223 259.933 104.074C265.066 106.587 269.164 110.963 271.477 116.398C272.264 118.053 274.625 116.398 273.838 114.926L274.013 115.478Z" fill="#00305B" fill-opacity="0.05"/>
<path d="M127.447 169.374C105.058 174.71 82.0689 176.722 59.1491 175.353C41.6592 174.893 16.9109 174.249 5.19264 190.436C-6.52563 206.622 6.50438 224.925 21.6332 229.615C40.4349 235.501 61.7726 227.04 78.4755 218.303C88.7946 212.877 98.589 206.531 108.383 199.909C113.018 197.058 119.664 190.712 125.349 192.275C131.033 193.839 134.094 199.909 136.017 204.691C137.504 208.002 142.139 204.691 140.652 201.748C137.592 195.126 133.219 187.585 125.611 186.665C118.003 185.745 108.995 192.919 102.349 197.15C86.227 208.617 68.5327 217.425 49.8795 223.269C39.9988 226.405 29.4211 226.115 19.7093 222.441C15.4483 220.628 11.8816 217.375 9.57026 213.196C7.25896 209.017 6.33426 204.149 6.94163 199.357C9.04043 190.16 19.0097 185.377 27.0551 183.262C37.6396 180.79 48.506 179.922 59.324 180.687C82.803 182.071 106.351 179.997 129.284 174.525C129.628 174.428 129.951 174.261 130.235 174.033C130.518 173.805 130.755 173.521 130.934 173.196C131.113 172.872 131.229 172.514 131.276 172.142C131.323 171.77 131.3 171.392 131.208 171.03C131.116 170.668 130.957 170.328 130.74 170.03C130.524 169.732 130.253 169.482 129.945 169.294C129.636 169.107 129.295 168.984 128.942 168.935C128.588 168.886 128.229 168.91 127.885 169.007L127.447 169.374Z" fill="#00305B" fill-opacity="0.05"/>
</svg>
